<?xml version="1.0" standalone="no"?>
<!DOCTYPE svg PUBLIC "-//W3C//DTD SVG 1.1//EN" "http://www.w3.org/Graphics/SVG/1.1/DTD/svg11.dtd" >
<svg xmlns="http://www.w3.org/2000/svg" xmlns:xlink="http://www.w3.org/1999/xlink" version="1.1">
<metadata>
Created by FontForge 20190801 at Tue Feb 15 20:53:48 2011
 By Jimmy Wärting
Copyright (C) 2011 Markanna Studios Inc.www.SweetFonts.com
</metadata>
<defs>
<font id="SweetSansPro-Medium" horiz-adv-x="500" >
  <font-face 
    font-family="Sweet Sans Pro Medium"
    font-weight="500"
    font-stretch="normal"
    units-per-em="1000"
    panose-1="2 0 0 0 0 0 0 0 0 0"
    ascent="770"
    descent="-230"
    x-height="483"
    cap-height="653"
    bbox="-118 -307 1539 1068"
    underline-thickness="56"
    underline-position="-128"
    stemh="100"
    stemv="112"
    unicode-range="U+000D-FB04"
  />
<missing-glyph horiz-adv-x="579" 
d="M0 0v653h579v-653h-579zM289 252l-142 -160h284zM147 561l142 -160l142 160h-284zM355 326l122 -136v273zM223 326l-121 137v-273z" />
    <glyph glyph-name="f_i" unicode="fi" horiz-adv-x="645" 
d="M37 483h89v88c0 105 76 140 140 140c38 0 87 -12 106 -23l-19 -86c-12 9 -47 18 -67 18c-35 0 -57 -18 -57 -49v-88h127v-81h-127v-402h-103v402h-89v81zM560 0h-103v483h103v-483zM443 640c0 33 28 60 65 60s66 -28 66 -60c0 -33 -29 -59 -66 -59s-65 26 -65 59z" />
    <glyph glyph-name="f_l" unicode="fl" horiz-adv-x="656" 
d="M37 483h89v88c0 105 76 140 140 140c38 0 87 -12 106 -23l-19 -86c-12 9 -47 18 -67 18c-35 0 -57 -18 -57 -49v-88h127v-81h-127v-402h-103v402h-89v81zM565 0h-103v700h103v-700z" />
    <glyph glyph-name="f_f" unicode="ff" horiz-adv-x="705" 
d="M566 571v-88h127v-81h-127v-402h-103v402h-234v-402h-103v402h-89v81h89v88c0 105 76 140 140 140c38 0 87 -12 106 -23l-19 -86c-12 9 -47 18 -67 18c-35 0 -57 -18 -57 -49v-88h234v88c0 105 76 140 140 140c38 0 87 -12 106 -23l-19 -86c-12 9 -47 18 -67 18
c-35 0 -57 -18 -57 -49z" />
    <glyph glyph-name="f_f_i" unicode="ffi" horiz-adv-x="982" 
d="M463 0v402h-234v-402h-103v402h-89v81h89v88c0 105 76 140 140 140c38 0 87 -12 106 -23l-19 -86c-12 9 -47 18 -67 18c-35 0 -57 -18 -57 -49v-88h234v88c0 105 76 140 140 140c38 0 87 -12 106 -23l-19 -86c-12 9 -47 18 -67 18c-35 0 -57 -18 -57 -49v-88h127v-81
h-127v-402h-103zM794 0v483h103v-483h-103zM845 581c-37 0 -65 26 -65 59s28 60 65 60s66 -28 66 -60c0 -33 -29 -59 -66 -59z" />
    <glyph glyph-name="f_f_l" unicode="ffl" horiz-adv-x="993" 
d="M463 0v402h-234v-402h-103v402h-89v81h89v88c0 105 76 140 140 140c38 0 87 -12 106 -23l-19 -86c-12 9 -47 18 -67 18c-35 0 -57 -18 -57 -49v-88h234v88c0 105 76 140 140 140c38 0 87 -12 106 -23l-19 -86c-12 9 -47 18 -67 18c-35 0 -57 -18 -57 -49v-88h127v-81
h-127v-402h-103zM799 0v700h103v-700h-103z" />
    <glyph glyph-name="f_j" unicode="fj" horiz-adv-x="645" 
d="M37 483h89v88c0 105 76 140 140 140c38 0 87 -12 106 -23l-19 -86c-12 9 -47 18 -67 18c-35 0 -57 -18 -57 -49v-88h127v-81h-127v-402h-103v402h-89v81zM394 -227l-30 81c44 10 93 24 93 99v530h103v-530c0 -133 -93 -180 -166 -180zM443 640c0 33 28 60 65 60
s66 -28 66 -60c0 -33 -29 -59 -66 -59s-65 26 -65 59z" />
    <glyph glyph-name="f_f_j" unicode="ffj" horiz-adv-x="982" 
d="M463 0v402h-234v-402h-103v402h-89v81h89v88c0 105 76 140 140 140c38 0 87 -12 106 -23l-19 -86c-12 9 -47 18 -67 18c-35 0 -57 -18 -57 -49v-88h234v88c0 105 76 140 140 140c38 0 87 -12 106 -23l-19 -86c-12 9 -47 18 -67 18c-35 0 -57 -18 -57 -49v-88h127v-81
h-127v-402h-103zM731 -227l-30 81c44 10 93 24 93 99v530h103v-530c0 -133 -93 -180 -166 -180zM845 581c-37 0 -65 26 -65 59s28 60 65 60s66 -28 66 -60c0 -33 -29 -59 -66 -59z" />
    <glyph glyph-name="f_t" unicode="ft" horiz-adv-x="729" 
d="M229 571v-88h241v143h103v-143h127v-81h-127v-282c0 -32 22 -49 57 -49c20 0 58 4 70 8l10 -81c-17 -11 -67 -18 -100 -18c-64 0 -140 35 -140 140v282h-241v-402h-103v402h-89v81h89v88c0 105 76 140 140 140c38 0 87 -12 106 -23l-19 -86c-12 9 -47 18 -67 18
c-35 0 -57 -18 -57 -49z" />
    <glyph glyph-name="f_f_t" unicode="fft" horiz-adv-x="1066" 
d="M37 402v81h89v88c0 105 76 140 140 140c38 0 87 -12 106 -23l-19 -86c-12 9 -47 18 -67 18c-35 0 -57 -18 -57 -49v-88h234v88c0 105 76 140 140 140c38 0 87 -12 106 -23l-19 -86c-12 9 -47 18 -67 18c-35 0 -57 -18 -57 -49v-88h241v143h103v-143h127v-81h-127v-282
c0 -32 22 -49 57 -49c20 0 58 4 70 8l10 -81c-17 -11 -67 -18 -100 -18c-64 0 -140 35 -140 140v282h-241v-402h-103v402h-234v-402h-103v402h-89z" />
    <glyph glyph-name="t_t" unicode="tt" horiz-adv-x="763" 
d="M27 402v81h90v143h103v-143h266v143h103v-143h127v-81h-127v-282c0 -32 22 -49 57 -49c20 0 58 4 70 8l10 -81c-17 -11 -67 -18 -100 -18c-64 0 -140 35 -140 140v282h-266v-282c0 -32 22 -49 57 -49c20 0 58 4 70 8l10 -81c-17 -11 -67 -18 -100 -18
c-64 0 -140 35 -140 140v282h-90z" />
    <glyph glyph-name=".notdef" horiz-adv-x="579" 
d="M0 0v653h579v-653h-579zM289 252l-142 -160h284zM147 561l142 -160l142 160h-284zM355 326l122 -136v273zM223 326l-121 137v-273z" />
    <glyph glyph-name="space" unicode=" " horiz-adv-x="225" 
 />
    <glyph glyph-name="A" unicode="A" horiz-adv-x="756" 
d="M24 0l303 653h102l303 -653h-123l-79 176h-311l-78 -176h-117zM372 519l-113 -253h231l-112 253h-6z" />
    <glyph glyph-name="B" unicode="B" horiz-adv-x="817" 
d="M516 0h-403v653h395c74 0 125 -25 157 -57c28 -28 44 -63 44 -103c0 -60 -36 -114 -83 -133c76 -18 119 -85 119 -165c0 -48 -16 -97 -60 -139c-32 -30 -75 -56 -169 -56zM520 293h-295v-193h295c31 0 61 10 81 30c17 17 27 42 27 66s-10 45 -26 62c-20 21 -49 35 -82 35
zM496 553h-271v-170h271c27 0 51 6 69 24c17 17 27 41 27 65c0 22 -9 42 -23 56c-18 18 -42 25 -73 25z" />
    <glyph glyph-name="C" unicode="C" horiz-adv-x="771" 
d="M659 190l75 -74c-70 -70 -180 -136 -322 -136c-215 0 -357 155 -357 347c0 189 143 346 352 346c119 0 233 -47 306 -115l-76 -75c-58 55 -148 90 -228 90c-143 0 -236 -112 -236 -247c0 -136 95 -246 241 -246c102 0 189 50 245 110z" />
    <glyph glyph-name="D" unicode="D" horiz-adv-x="815" 
d="M426 0h-313v653h313c118 0 184 -33 240 -87c58 -60 89 -144 89 -239c0 -98 -34 -187 -96 -247c-56 -50 -115 -80 -233 -80zM225 100h196c83 0 111 19 150 51c42 42 67 106 67 176c0 68 -22 129 -63 171c-37 34 -72 55 -154 55h-196v-453z" />
    <glyph glyph-name="E" unicode="E" horiz-adv-x="714" 
d="M476 391v-100h-251v-191h442v-100h-554v653h530v-100h-418v-162h251z" />
    <glyph glyph-name="F" unicode="F" horiz-adv-x="661" 
d="M225 0h-112v653h525v-100h-413v-162h251v-100h-251v-291z" />
    <glyph glyph-name="G" unicode="G" horiz-adv-x="805" 
d="M715 555l-78 -70c-55 55 -148 88 -225 88c-141 0 -240 -112 -240 -247c0 -126 86 -246 251 -246c68 0 148 20 192 53v131h-205v100h307v-286c-82 -60 -198 -98 -301 -98c-207 0 -361 155 -361 347s156 346 356 346c104 0 215 -42 304 -118z" />
    <glyph glyph-name="H" unicode="H" horiz-adv-x="805" 
d="M225 0h-112v653h112v-247h355v247h112v-653h-112v306h-355v-306z" />
    <glyph glyph-name="I" unicode="I" horiz-adv-x="338" 
d="M225 0h-112v653h112v-653z" />
    <glyph glyph-name="J" unicode="J" horiz-adv-x="648" 
d="M436 653h112v-421c0 -161 -114 -252 -273 -252c-164 0 -229 98 -262 167l93 49c21 -48 63 -116 168 -116c94 0 162 54 162 152v421z" />
    <glyph glyph-name="K" unicode="K" horiz-adv-x="766" 
d="M225 653v-323l341 323h139l-267 -250l325 -403h-145l-261 328l-132 -123v-205h-112v653h112z" />
    <glyph glyph-name="L" unicode="L" horiz-adv-x="647" 
d="M113 653h112v-553h401v-100h-513v653z" />
    <glyph glyph-name="M" unicode="M" horiz-adv-x="907" 
d="M794 0h-112v444h-5l-217 -366h-18l-217 366h-5v-444h-107v653h115l227 -385h2l227 385h110v-653z" />
    <glyph glyph-name="N" unicode="N" horiz-adv-x="815" 
d="M590 653h112v-653h-99l-377 453h-1v-453h-112v653h99l377 -453h1v453z" />
    <glyph glyph-name="O" unicode="O" horiz-adv-x="846" 
d="M55 328c0 191 161 345 367 345s370 -154 370 -345c0 -194 -164 -348 -370 -348s-367 154 -367 348zM173 328c0 -136 109 -248 249 -248c141 0 252 112 252 248c0 135 -111 245 -252 245c-140 0 -249 -110 -249 -245z" />
    <glyph glyph-name="P" unicode="P" horiz-adv-x="750" 
d="M225 0h-112v653h360c92 0 149 -26 189 -69c35 -38 52 -83 52 -131c0 -56 -23 -105 -60 -141c-39 -37 -94 -61 -181 -61h-248v-251zM473 553h-248v-202h248c28 0 67 2 99 32c19 18 30 43 30 69s-10 48 -27 66c-30 32 -70 35 -102 35z" />
    <glyph glyph-name="Q" unicode="Q" horiz-adv-x="846" 
d="M55 328c0 191 161 345 367 345s370 -154 370 -345c0 -124 -67 -232 -169 -293l84 -121l-108 -35l-79 114c-31 -8 -64 -13 -98 -13c-206 0 -367 154 -367 348zM374 204l108 35l81 -117c67 44 111 121 111 206c0 135 -111 245 -252 245c-140 0 -249 -110 -249 -245
c0 -136 109 -248 249 -248c12 0 24 1 36 2z" />
    <glyph glyph-name="R" unicode="R" horiz-adv-x="783" 
d="M225 0h-112v653h360c87 0 147 -24 189 -69c33 -35 52 -81 52 -131c0 -88 -58 -155 -144 -187l156 -266h-129l-140 251h-232v-251zM473 553h-248v-202h268c59 0 109 46 109 102c0 25 -10 47 -27 65c-31 32 -67 35 -102 35z" />
    <glyph glyph-name="S" unicode="S" horiz-adv-x="736" 
d="M643 578l-68 -78c-36 33 -117 76 -237 76c-78 0 -147 -25 -147 -94c0 -71 97 -74 196 -81c117 -8 301 -20 301 -202c0 -158 -132 -219 -288 -219c-172 0 -284 71 -357 137l68 78c53 -48 145 -118 291 -118c97 0 174 33 174 107c0 82 -75 99 -189 108
c-144 10 -308 22 -308 180c0 155 143 201 263 201c138 0 249 -54 301 -95z" />
    <glyph glyph-name="T" unicode="T" horiz-adv-x="685" 
d="M30 553v100h625v-100h-256v-553h-112v553h-257z" />
    <glyph glyph-name="U" unicode="U" horiz-adv-x="779" 
d="M567 653h112v-421c0 -161 -124 -252 -290 -252c-165 0 -289 91 -289 252v421h112v-421c0 -98 78 -152 177 -152c100 0 178 54 178 152v421z" />
    <glyph glyph-name="V" unicode="V" horiz-adv-x="752" 
d="M608 653h122l-303 -653h-102l-303 653h128l226 -510h6z" />
    <glyph glyph-name="W" unicode="W" horiz-adv-x="1008" 
d="M37 653h123l146 -480h6l155 480h80l155 -480h6l146 480h117l-209 -653h-112l-143 437h-6l-143 -437h-112z" />
    <glyph glyph-name="X" unicode="X" horiz-adv-x="733" 
d="M558 653h136l-257 -312l270 -341h-143l-200 262l-208 -262h-136l277 336l-250 317h143l180 -238z" />
    <glyph glyph-name="Y" unicode="Y" horiz-adv-x="680" 
d="M532 653h132l-268 -352v-301h-112v301l-268 352h142l187 -252z" />
    <glyph glyph-name="Z" unicode="Z" horiz-adv-x="677" 
d="M616 100v-100h-565v70l402 483h-382v100h545v-70l-402 -483h402z" />
    <glyph glyph-name="a" unicode="a" horiz-adv-x="605" 
d="M111 352l-36 85c44 27 130 62 229 62c109 0 219 -36 219 -142v-270c0 -25 2 -61 13 -87h-104c-6 14 -10 41 -12 60c-38 -33 -91 -70 -184 -70c-115 0 -190 68 -190 166c0 86 79 155 223 155c53 0 117 -12 151 -37v53c0 59 -52 84 -121 84c-75 0 -154 -35 -188 -59z
M258 76c90 0 152 58 162 69v49c-22 16 -73 36 -134 36c-101 0 -136 -32 -136 -74c0 -45 39 -80 108 -80z" />
    <glyph glyph-name="b" unicode="b" horiz-adv-x="629" 
d="M173 0h-95c9 46 9 91 9 133v567h103v-276c43 48 95 75 149 75c129 0 237 -102 237 -256c0 -157 -107 -258 -237 -258c-78 0 -138 50 -159 82c0 -21 -2 -46 -7 -67zM329 408c-50 0 -99 -26 -139 -67v-198c16 -20 65 -68 139 -68c73 0 133 66 133 168
c0 100 -59 165 -133 165z" />
    <glyph glyph-name="c" unicode="c" horiz-adv-x="564" 
d="M517 420l-69 -69c-38 38 -90 57 -138 57c-80 0 -145 -65 -145 -165c0 -102 68 -167 151 -167c60 0 108 30 144 66l69 -65c-20 -24 -97 -92 -223 -92c-137 0 -254 101 -254 258c0 154 116 256 258 256c74 0 149 -25 207 -79z" />
    <glyph glyph-name="d" unicode="d" horiz-adv-x="629" 
d="M551 0h-95c-5 21 -7 46 -7 67c-21 -32 -81 -82 -159 -82c-130 0 -237 101 -237 258c0 154 108 256 237 256c54 0 106 -23 149 -65v266h103v-567c0 -42 0 -87 9 -133zM300 408c-74 0 -133 -65 -133 -165c0 -102 60 -168 133 -168c74 0 123 48 139 68v198
c-40 41 -89 67 -139 67z" />
    <glyph glyph-name="e" unicode="e" horiz-adv-x="597" 
d="M464 142l69 -67c-53 -51 -141 -90 -238 -90c-155 0 -243 115 -243 253c0 145 103 261 252 261c116 0 243 -71 243 -251c0 -9 0 -19 -1 -29h-390c7 -79 56 -143 150 -143c60 0 120 26 158 66zM299 413c-74 0 -120 -50 -137 -113h271c-1 77 -70 113 -134 113z" />
    <glyph glyph-name="f" unicode="f" horiz-adv-x="368" 
d="M37 483h89v88c0 105 76 140 140 140c38 0 87 -12 106 -23l-19 -86c-12 9 -47 18 -67 18c-35 0 -57 -18 -57 -49v-88h127v-81h-127v-402h-103v402h-89v81z" />
    <glyph glyph-name="g" unicode="g" horiz-adv-x="629" 
d="M439 -25v84c-43 -48 -95 -74 -149 -74c-129 0 -237 101 -237 255c0 157 107 259 237 259c78 0 138 -56 159 -88c0 24 2 49 7 73h95c-9 -46 -9 -91 -9 -133v-376c0 -111 -82 -202 -242 -202c-111 0 -177 36 -221 80l61 62c32 -31 79 -56 160 -56c91 0 139 50 139 116z
M300 75c50 0 99 26 139 67v198c-16 20 -65 68 -139 68c-73 0 -133 -66 -133 -168c0 -100 59 -165 133 -165z" />
    <glyph glyph-name="h" unicode="h" horiz-adv-x="604" 
d="M189 0h-103v700h103v-276c30 36 78 75 141 75c116 0 194 -72 194 -172v-327h-104v327c0 44 -41 81 -100 81s-102 -40 -131 -77v-331z" />
    <glyph glyph-name="i" unicode="i" horiz-adv-x="275" 
d="M189 0h-103v483h103v-483zM72 640c0 33 28 60 65 60s66 -28 66 -60c0 -33 -29 -59 -66 -59s-65 26 -65 59z" />
    <glyph glyph-name="j" unicode="j" horiz-adv-x="275" 
d="M23 -227l-30 81c44 10 93 24 93 99v530h103v-530c0 -133 -93 -180 -166 -180zM72 640c0 33 28 60 65 60s66 -28 66 -60c0 -33 -29 -59 -66 -59s-65 26 -65 59z" />
    <glyph glyph-name="k" unicode="k" horiz-adv-x="572" 
d="M400 483h139l-191 -175l220 -308h-129l-167 239l-82 -75v-164h-104v700h104v-424z" />
    <glyph glyph-name="l" unicode="l" horiz-adv-x="285" 
d="M194 0h-103v700h103v-700z" />
    <glyph glyph-name="m" unicode="m" horiz-adv-x="900" 
d="M505 331v-331h-104v327c0 44 -37 81 -89 81c-54 0 -94 -39 -122 -77v-331h-103v351c0 43 -3 86 -12 132h94c6 -25 8 -43 10 -71c34 44 75 87 150 87c71 0 131 -38 159 -97c34 52 82 97 156 97c98 0 176 -72 176 -172v-327h-104v327c0 44 -37 81 -89 81
c-54 0 -94 -39 -122 -77z" />
    <glyph glyph-name="n" unicode="n" horiz-adv-x="605" 
d="M179 412c36 44 80 87 160 87c104 0 186 -72 186 -172v-327h-104v327c0 44 -41 81 -99 81c-60 0 -102 -39 -132 -77v-331h-103v350c0 43 -3 87 -12 133h94c6 -25 8 -43 10 -71z" />
    <glyph glyph-name="o" unicode="o" horiz-adv-x="618" 
d="M52 243c0 142 103 256 256 256c154 0 258 -114 258 -256c0 -145 -104 -258 -258 -258c-153 0 -256 113 -256 258zM159 243c0 -93 55 -172 149 -172c96 0 152 79 152 172c0 90 -56 170 -152 170c-94 0 -149 -80 -149 -170z" />
    <glyph glyph-name="p" unicode="p" horiz-adv-x="629" 
d="M78 483h95c5 -24 7 -43 7 -67c21 32 81 83 159 83c130 0 237 -102 237 -259c0 -154 -108 -255 -237 -255c-54 0 -106 26 -149 74v-266h-103v558c0 42 0 86 -9 132zM329 75c74 0 133 65 133 165c0 102 -60 168 -133 168c-74 0 -123 -48 -139 -68v-198
c40 -41 89 -67 139 -67z" />
    <glyph glyph-name="q" unicode="q" horiz-adv-x="629" 
d="M456 483h95c-9 -46 -9 -90 -9 -132v-558h-103v266c-43 -48 -95 -74 -149 -74c-129 0 -237 101 -237 255c0 157 107 259 237 259c78 0 138 -51 159 -83c0 24 2 43 7 67zM300 75c50 0 99 26 139 67v198c-16 20 -65 68 -139 68c-73 0 -133 -66 -133 -168
c0 -100 59 -165 133 -165z" />
    <glyph glyph-name="r" unicode="r" horiz-adv-x="402" 
d="M295 398c-46 0 -78 -43 -105 -82v-316h-103v351c0 43 -4 86 -13 132h95c6 -28 8 -49 10 -81c32 49 70 97 140 97c28 0 55 -7 68 -20l-31 -96c-14 9 -46 15 -61 15z" />
    <glyph glyph-name="s" unicode="s" horiz-adv-x="557" 
d="M480 445l-39 -79c-32 18 -109 49 -179 49c-52 0 -98 -17 -98 -56c0 -49 75 -54 118 -56c85 -4 230 -12 230 -152c0 -115 -99 -168 -226 -168c-113 0 -192 42 -240 74l39 78c45 -27 112 -66 200 -66c71 0 124 25 124 72c0 55 -74 61 -127 64c-101 6 -221 15 -221 142
c0 118 105 154 199 154c91 0 182 -34 220 -56z" />
    <glyph glyph-name="t" unicode="t" horiz-adv-x="394" 
d="M27 402v81h90v143h103v-143h127v-81h-127v-282c0 -32 22 -49 57 -49c20 0 58 4 70 8l10 -81c-17 -11 -67 -18 -100 -18c-64 0 -140 35 -140 140v282h-90z" />
    <glyph glyph-name="u" unicode="u" horiz-adv-x="604" 
d="M424 71c-36 -44 -79 -86 -159 -86c-104 0 -186 71 -186 171v327h104v-327c0 -44 41 -81 99 -81c60 0 102 39 132 77v331h103v-350c0 -42 0 -87 9 -133h-95c-5 21 -7 50 -7 71z" />
    <glyph glyph-name="v" unicode="v" horiz-adv-x="557" 
d="M426 483h106l-211 -483h-86l-210 483h117l136 -340h6z" />
    <glyph glyph-name="w" unicode="w" horiz-adv-x="784" 
d="M346 483h98l100 -346h6l93 346h111l-160 -483h-104l-95 331h-6l-95 -331h-104l-160 483h112l98 -346h6z" />
    <glyph glyph-name="x" unicode="x" horiz-adv-x="574" 
d="M410 483h131l-191 -235l202 -248h-130l-135 182l-134 -182h-131l202 248l-191 235h132l122 -170z" />
    <glyph glyph-name="y" unicode="y" horiz-adv-x="564" 
d="M279 148h6l150 335h105l-329 -690h-107l122 241l-202 449h117z" />
    <glyph glyph-name="z" unicode="z" horiz-adv-x="529" 
d="M474 81v-81h-428v61l284 341h-264v81h408v-61l-284 -341h284z" />
    <glyph glyph-name="ampersand" unicode="&#x26;" horiz-adv-x="777" 
d="M573 575l-56 -88c-27 20 -75 46 -129 46c-47 0 -75 -29 -75 -62c0 -50 80 -119 111 -150l119 -119c36 36 73 84 109 143l90 -46c-45 -67 -89 -121 -132 -164l137 -135h-147l-69 67c-85 -62 -162 -82 -223 -82c-110 0 -226 60 -226 192c0 105 67 162 152 195
c-22 32 -33 61 -33 96c0 102 89 165 189 165c79 0 141 -33 183 -58zM336 261l-40 39c-46 -18 -102 -47 -102 -117c0 -69 65 -98 124 -98c38 0 89 14 145 50z" />
    <glyph glyph-name="zero" unicode="0" horiz-adv-x="730" 
d="M51 284c0 169 142 303 313 303s315 -134 315 -303c0 -170 -144 -303 -315 -303s-313 133 -313 303zM162 284c0 -112 90 -205 202 -205c111 0 204 93 204 205s-93 205 -204 205c-112 0 -202 -93 -202 -205z" />
    <glyph glyph-name="one" unicode="1" horiz-adv-x="399" 
d="M44 405l-24 90l166 73h111v-568h-111v467z" />
    <glyph glyph-name="one.alt" horiz-adv-x="315" 
d="M102 0v568h111v-568h-111z" />
    <glyph glyph-name="two" unicode="2" horiz-adv-x="603" 
d="M125 405l-65 78c67 53 136 104 255 104c115 0 231 -48 231 -161c0 -138 -156 -172 -237 -197c-76 -24 -139 -56 -139 -135v-6h363v-88h-474v84c0 142 121 209 247 243c27 7 129 33 129 96c0 48 -60 66 -117 66c-87 0 -140 -38 -193 -84z" />
    <glyph glyph-name="three" unicode="3" horiz-adv-x="678" 
d="M300 254v89h89c43 0 80 26 80 66c0 59 -66 80 -120 80c-78 0 -151 -45 -201 -92l-68 68c65 61 157 122 271 122c97 0 230 -42 230 -159c0 -59 -39 -101 -67 -113c42 -10 110 -46 110 -136c0 -128 -131 -199 -294 -199c-120 0 -218 37 -300 120l68 78
c55 -57 126 -99 232 -99c101 0 183 39 183 107c0 57 -68 68 -112 68h-101z" />
    <glyph glyph-name="four" unicode="4" horiz-adv-x="712" 
d="M672 213v-88h-110v-125h-112v125h-418v77l433 366h97v-355h110zM200 216v-3h250v211h-9z" />
    <glyph glyph-name="five" unicode="5" horiz-adv-x="659" 
d="M544 568v-99h-350v-146c52 27 97 52 178 52c120 0 242 -61 242 -186c0 -154 -150 -209 -292 -209c-144 0 -235 56 -283 90l58 78c37 -26 111 -69 226 -69c87 0 180 28 180 109c0 61 -66 92 -134 92c-92 0 -152 -26 -207 -54l-68 49v293h450z" />
    <glyph glyph-name="six" unicode="6" horiz-adv-x="680" 
d="M601 529l-58 -78c-44 24 -105 38 -167 38c-111 0 -212 -71 -222 -193c56 38 139 78 241 78c160 0 235 -94 235 -181c0 -121 -106 -212 -259 -212c-162 0 -318 100 -318 294c0 196 152 312 326 312c124 0 197 -44 222 -58zM385 284c-87 0 -168 -38 -222 -70
c28 -88 114 -135 210 -135c86 0 146 56 146 116c0 40 -37 89 -134 89z" />
    <glyph glyph-name="seven" unicode="7" horiz-adv-x="610" 
d="M43 469v99h521v-100l-311 -468h-146l329 469h-393z" />
    <glyph glyph-name="eight" unicode="8" horiz-adv-x="688" 
d="M344 -21c-149 0 -289 67 -289 184c0 87 67 136 136 148c-66 12 -104 53 -104 119c0 109 144 159 257 159c114 0 257 -50 257 -159c0 -66 -35 -107 -105 -119c70 -12 137 -61 137 -148c0 -117 -141 -184 -289 -184zM344 77c85 0 168 34 168 96c0 63 -92 93 -168 93
c-75 0 -168 -30 -168 -93c0 -62 84 -96 168 -96zM344 348c88 0 135 25 135 72c0 54 -74 81 -135 81c-60 0 -135 -27 -135 -81c0 -47 47 -72 135 -72z" />
    <glyph glyph-name="nine" unicode="9" horiz-adv-x="678" 
d="M77 39l57 78c44 -24 105 -38 167 -38c111 0 211 70 221 192c-56 -37 -139 -77 -239 -77c-160 0 -236 94 -236 181c0 121 107 212 260 212c162 0 317 -100 317 -294c0 -196 -152 -312 -325 -312c-124 0 -198 44 -222 58zM293 284c86 0 167 37 221 69
c-28 89 -115 136 -209 136c-86 0 -147 -56 -147 -116c0 -40 37 -89 135 -89z" />
    <glyph glyph-name="period" unicode="." horiz-adv-x="286" 
d="M63 57c0 40 34 73 79 73s80 -33 80 -73s-35 -72 -80 -72s-79 32 -79 72z" />
    <glyph glyph-name="comma" unicode="," horiz-adv-x="310" 
d="M68 -191l-31 66c50 13 134 58 134 114v8c-8 -2 -18 -5 -28 -5c-45 0 -79 30 -79 69c0 38 34 69 79 69c56 0 109 -47 109 -113c0 -125 -107 -182 -184 -208z" />
    <glyph glyph-name="colon" unicode=":" horiz-adv-x="323" 
d="M82 57c0 40 34 73 79 73s80 -33 80 -73s-35 -72 -80 -72s-79 32 -79 72zM82 421c0 40 34 73 79 73s80 -33 80 -73s-35 -72 -80 -72s-79 32 -79 72z" />
    <glyph glyph-name="semicolon" unicode=";" horiz-adv-x="336" 
d="M86 -191l-31 66c50 13 134 58 134 114v8c-8 -2 -18 -5 -28 -5c-45 0 -79 30 -79 69c0 38 34 69 79 69c56 0 109 -47 109 -113c0 -125 -107 -182 -184 -208zM82 421c0 40 34 73 79 73s80 -33 80 -73s-35 -72 -80 -72s-79 32 -79 72z" />
    <glyph glyph-name="exclam" unicode="!" horiz-adv-x="311" 
d="M76 57c0 40 34 73 79 73s80 -33 80 -73s-35 -72 -80 -72s-79 32 -79 72zM191 210h-72l-25 285v158h122v-158z" />
    <glyph glyph-name="question" unicode="?" horiz-adv-x="580" 
d="M116 485l-70 64c65 72 132 123 268 123c112 0 209 -41 209 -159c0 -54 -21 -90 -50 -118c-67 -64 -178 -88 -182 -185h-100c-5 144 141 183 204 243c17 16 28 35 28 57c0 48 -51 72 -112 72c-94 0 -145 -40 -195 -97zM181 57c0 40 34 73 79 73s80 -33 80 -73
s-35 -72 -80 -72s-79 32 -79 72z" />
    <glyph glyph-name="exclamdown" unicode="&#xa1;" horiz-adv-x="302" 
d="M210 423c0 -40 -34 -73 -79 -73s-80 33 -80 73s35 72 80 72s79 -32 79 -72zM95 270h72l25 -285v-158h-122v158z" />
    <glyph glyph-name="questiondown" unicode="&#xbf;" horiz-adv-x="571" 
d="M446 -5l70 -64c-65 -72 -132 -123 -268 -123c-112 0 -209 41 -209 159c0 54 21 90 50 118c67 64 178 88 182 185h100c5 -144 -141 -183 -204 -243c-17 -16 -28 -35 -28 -57c0 -48 51 -72 112 -72c94 0 145 40 195 97zM381 423c0 -40 -34 -73 -79 -73s-80 33 -80 73
s35 72 80 72s79 -32 79 -72z" />
    <glyph glyph-name="quotesingle" unicode="'" horiz-adv-x="238" 
d="M150 378h-62l-25 164v111h112v-111z" />
    <glyph glyph-name="quotedbl" unicode="&#x22;" horiz-adv-x="502" 
d="M150 378h-62l-25 164v111h112v-111zM414 378h-62l-25 164v111h112v-111z" />
    <glyph glyph-name="quoteleft" unicode="&#x2018;" horiz-adv-x="300" 
d="M227 683l30 -63c-48 -12 -128 -55 -128 -108v-8c8 2 17 5 27 5c43 0 75 -28 75 -65s-32 -66 -75 -66c-53 0 -104 45 -104 107c0 119 102 173 175 198z" />
    <glyph glyph-name="quoteright" unicode="&#x2019;" horiz-adv-x="300" 
d="M80 368l-30 63c48 12 128 55 128 108v8c-8 -2 -17 -5 -27 -5c-43 0 -75 28 -75 65s32 66 75 66c53 0 104 -45 104 -107c0 -119 -102 -173 -175 -198z" />
    <glyph glyph-name="quotedblleft" unicode="&#x201c;" horiz-adv-x="573" 
d="M227 683l30 -63c-48 -12 -128 -55 -128 -108v-8c8 2 17 5 27 5c43 0 75 -28 75 -65s-32 -66 -75 -66c-53 0 -104 45 -104 107c0 119 102 173 175 198zM500 683l30 -63c-48 -12 -128 -55 -128 -108v-8c8 2 17 5 27 5c43 0 75 -28 75 -65s-32 -66 -75 -66
c-53 0 -104 45 -104 107c0 119 102 173 175 198z" />
    <glyph glyph-name="quotedblright" unicode="&#x201d;" horiz-adv-x="573" 
d="M353 368l-30 63c48 12 128 55 128 108v8c-8 -2 -17 -5 -27 -5c-43 0 -75 28 -75 65s32 66 75 66c53 0 104 -45 104 -107c0 -119 -102 -173 -175 -198zM80 368l-30 63c48 12 128 55 128 108v8c-8 -2 -17 -5 -27 -5c-43 0 -75 28 -75 65s32 66 75 66c53 0 104 -45 104 -107
c0 -119 -102 -173 -175 -198z" />
    <glyph glyph-name="quotesinglbase" unicode="&#x201a;" horiz-adv-x="302" 
d="M68 -175l-30 63c48 12 128 55 128 108v8c-8 -2 -17 -5 -27 -5c-43 0 -75 28 -75 65s32 66 75 66c53 0 104 -45 104 -107c0 -119 -102 -173 -175 -198z" />
    <glyph glyph-name="quotedblbase" unicode="&#x201e;" horiz-adv-x="575" 
d="M68 -175l-30 63c48 12 128 55 128 108v8c-8 -2 -17 -5 -27 -5c-43 0 -75 28 -75 65s32 66 75 66c53 0 104 -45 104 -107c0 -119 -102 -173 -175 -198zM341 -175l-30 63c48 12 128 55 128 108v8c-8 -2 -17 -5 -27 -5c-43 0 -75 28 -75 65s32 66 75 66
c53 0 104 -45 104 -107c0 -119 -102 -173 -175 -198z" />
    <glyph glyph-name="guilsinglleft" unicode="&#x2039;" horiz-adv-x="343" 
d="M151 395h124l-121 -145v-8l121 -144h-124l-99 122v52z" />
    <glyph glyph-name="guilsinglright" unicode="&#x203a;" horiz-adv-x="343" 
d="M68 395h124l99 -123v-52l-99 -122h-124l121 144v8z" />
    <glyph glyph-name="guillemotleft" unicode="&#xab;" horiz-adv-x="606" 
d="M151 395h124l-121 -145v-8l121 -144h-124l-99 122v52zM297 242v8l117 145h124l-121 -145v-8l121 -144h-124z" />
    <glyph glyph-name="guillemotright" unicode="&#xbb;" horiz-adv-x="606" 
d="M331 395h124l99 -123v-52l-99 -122h-124l121 144v8zM309 250v-8l-117 -144h-124l121 144v8l-121 145h124z" />
    <glyph glyph-name="hyphen" unicode="-" horiz-adv-x="391" 
d="M67 204v102h257v-102h-257z" />
    <glyph glyph-name="endash" unicode="&#x2013;" horiz-adv-x="630" 
d="M68 214v92h494v-92h-494z" />
    <glyph glyph-name="emdash" unicode="&#x2014;" horiz-adv-x="1110" 
d="M68 214v92h974v-92h-974z" />
    <glyph glyph-name="underscore" unicode="_" horiz-adv-x="600" 
d="M-6 -172v72h612v-72h-612z" />
    <glyph glyph-name="ellipsis" unicode="&#x2026;" horiz-adv-x="1000" 
d="M99 57c0 40 34 73 79 73s80 -33 80 -73s-35 -72 -80 -72s-79 32 -79 72zM420 57c0 40 34 73 79 73s80 -33 80 -73s-35 -72 -80 -72s-79 32 -79 72zM741 57c0 40 34 73 79 73s80 -33 80 -73s-35 -72 -80 -72s-79 32 -79 72z" />
    <glyph glyph-name="parenleft" unicode="(" horiz-adv-x="396" 
d="M313 696l56 -68c-127 -69 -212 -207 -212 -364c0 -158 85 -294 212 -363l-56 -68c-169 86 -268 244 -268 431s99 346 268 432z" />
    <glyph glyph-name="parenright" unicode=")" horiz-adv-x="396" 
d="M27 628l56 68c169 -86 268 -245 268 -432s-99 -345 -268 -431l-56 68c127 69 212 205 212 363c0 157 -85 295 -212 364z" />
    <glyph glyph-name="bracketleft" unicode="[" horiz-adv-x="368" 
d="M327 -64v-90h-238v843h238v-90h-136v-663h136z" />
    <glyph glyph-name="bracketright" unicode="]" horiz-adv-x="368" 
d="M41 689h238v-843h-238v90h136v663h-136v90z" />
    <glyph glyph-name="braceleft" unicode="{" horiz-adv-x="388" 
d="M347 -64v-90c-167 0 -213 26 -213 162v127c0 79 -52 97 -108 97v88c56 0 109 39 109 102v103c2 137 48 165 212 165v-90c-85 0 -108 -11 -110 -75v-103c0 -84 -53 -138 -109 -142v-8c57 -1 108 -29 108 -137v-127c0 -61 25 -72 111 -72z" />
    <glyph glyph-name="braceright" unicode="}" horiz-adv-x="388" 
d="M41 -154v90c80 0 111 11 111 72v127c0 108 51 136 108 137v8c-56 4 -109 58 -109 142v103c-2 64 -30 75 -110 75v90c164 0 210 -28 212 -165v-103c0 -63 53 -102 109 -102v-88c-56 0 -108 -18 -108 -97v-127c0 -136 -46 -162 -213 -162z" />
    <glyph glyph-name="backslash" unicode="\" horiz-adv-x="538" 
d="M400 -119l-343 772h102l343 -772h-102z" />
    <glyph glyph-name="slash" unicode="/" horiz-adv-x="535" 
d="M489 653l-343 -772h-102l343 772h102z" />
    <glyph glyph-name="asterisk" unicode="*" horiz-adv-x="579" 
d="M181 248l-62 47l95 143l-162 60l25 75l165 -46l8 173h80l9 -172l163 45l25 -74l-162 -61l95 -143l-62 -47l-109 134z" />
    <glyph glyph-name="bullet" unicode="&#x2022;" horiz-adv-x="436" 
d="M218 140c-90 0 -163 69 -163 155s73 155 163 155c89 0 163 -69 163 -155s-74 -155 -163 -155z" />
    <glyph glyph-name="at" unicode="@" horiz-adv-x="984" 
d="M637 472h93l-85 -260c-3 -8 -4 -14 -4 -21c0 -32 19 -49 49 -49c63 0 155 86 155 212c0 141 -122 248 -306 248c-210 0 -395 -139 -395 -353c0 -212 182 -314 354 -314c90 0 198 28 248 54l26 -68c-51 -29 -169 -66 -279 -66c-204 0 -441 127 -441 393
c0 263 230 434 487 434c234 0 388 -142 388 -323s-147 -297 -260 -297c-59 0 -105 30 -105 78v8c-45 -54 -105 -85 -160 -85c-71 0 -140 50 -140 162c0 154 132 268 234 268c62 0 107 -43 117 -91zM429 153c34 0 82 20 124 64l31 96c-9 48 -45 90 -88 90
c-52 0 -132 -59 -132 -164c0 -58 25 -86 65 -86z" />
    <glyph glyph-name="copyright" unicode="&#xa9;" horiz-adv-x="993" 
d="M694 414l-38 -69c-46 42 -102 61 -160 61c-84 0 -140 -62 -140 -137s64 -123 143 -123s120 26 162 56l38 -69c-49 -38 -100 -68 -200 -68c-130 0 -236 81 -236 204c0 121 92 218 233 218c73 0 147 -32 198 -73zM498 682c243 0 443 -184 443 -414s-200 -413 -443 -413
c-245 0 -446 183 -446 413s201 414 446 414zM498 611c-198 0 -363 -156 -363 -343c0 -189 165 -342 363 -342c199 0 360 153 360 342c0 187 -161 343 -360 343z" />
    <glyph glyph-name="soundrecordingcopyright" unicode="&#x2117;" horiz-adv-x="993" 
d="M496 -145c-245 0 -444 184 -444 414s200 413 444 413s445 -183 445 -413s-201 -414 -445 -414zM495 -74c198 0 363 155 363 344c0 188 -165 341 -363 341c-199 0 -360 -154 -360 -341c0 -188 161 -344 360 -344zM573 197h-146v-113h-93v387h214c72 0 181 -22 181 -134
c0 -97 -81 -140 -156 -140zM427 390v-112h146c27 0 63 13 63 58c0 41 -36 54 -63 54h-146z" />
    <glyph glyph-name="trademark" unicode="&#x2122;" horiz-adv-x="864" 
d="M781 326h-74v196h-3l-95 -161h-9l-95 161h-3v-196h-70v327h74l101 -175h1l102 175h71v-327zM53 593v60h294v-60h-110v-267h-74v267h-110z" />
    <glyph glyph-name="servicemark" unicode="&#x2120;" horiz-adv-x="909" 
d="M833 326h-74v196h-3l-95 -161h-9l-95 161h-3v-196h-70v327h74l101 -175h1l102 175h71v-327zM366 618l-42 -48c-16 15 -58 33 -118 33c-35 0 -57 -11 -57 -36c0 -27 40 -27 85 -31c60 -5 153 -11 153 -108c0 -83 -64 -113 -142 -113c-90 0 -150 37 -188 71l42 47
c25 -22 74 -56 148 -56c38 0 66 14 66 41c0 30 -20 40 -79 45c-74 6 -159 13 -159 97c0 82 72 105 134 105c71 0 130 -27 157 -47z" />
    <glyph glyph-name="registered" unicode="&#xae;" horiz-adv-x="626" 
d="M311 204c-143 0 -254 103 -254 235c0 126 111 234 254 234c144 0 258 -108 258 -234c0 -132 -114 -235 -258 -235zM311 245c120 0 214 86 214 194c0 105 -94 195 -214 195c-118 0 -210 -90 -210 -195c0 -108 92 -194 210 -194zM255 328h-54v235h152c52 0 91 -30 91 -73
c0 -29 -22 -54 -53 -67l59 -95h-62l-53 89h-80v-89zM353 519h-98v-57h97c19 0 38 14 38 28c0 18 -17 29 -37 29z" />
    <glyph glyph-name="paragraph" unicode="&#xb6;" horiz-adv-x="861" 
d="M568 -206h-92v464h-202c-105 0 -227 56 -227 202c0 155 105 193 220 193h497v-859h-92v769h-104v-769zM149 460c0 -82 69 -112 125 -112h202v215h-209c-64 0 -118 -20 -118 -103z" />
    <glyph glyph-name="dagger" unicode="&#x2020;" horiz-adv-x="501" 
d="M204 700h92v-164h154v-82h-154v-374h-92v374h-153v82h153v164z" />
    <glyph glyph-name="daggerdbl" unicode="&#x2021;" horiz-adv-x="517" 
d="M304 250v-170h-92v170h-153v82h153v122h-153v82h153v164h92v-164h154v-82h-154v-122h154v-82h-154z" />
    <glyph glyph-name="litre" unicode="&#x2113;" horiz-adv-x="550" 
d="M75 110l-26 75l110 59v191c0 166 80 202 159 202c105 0 168 -67 168 -159c0 -100 -86 -193 -225 -269v-80c0 -47 34 -54 65 -54c46 0 81 15 110 29l16 -80c-55 -32 -89 -39 -129 -39c-78 0 -164 27 -164 144v26zM261 435v-135c85 50 123 115 123 169c0 49 -24 78 -64 78
c-30 0 -59 -15 -59 -112z" />
    <glyph glyph-name="estimated" unicode="&#x212e;" horiz-adv-x="804" 
d="M222 438v-87c0 -3 4 -6 6 -6h353c4 0 8 1 8 6v87c0 6 -2 13 -6 21c-37 59 -99 93 -176 93c-64 0 -147 -39 -178 -93c-5 -8 -7 -15 -7 -21zM722 151c-82 -117 -198 -169 -315 -169c-173 0 -349 130 -347 315c0 191 175 313 347 313c184 0 345 -122 345 -322h-524
c-2 0 -6 -4 -6 -8v-120c0 -11 0 -19 7 -28c52 -62 114 -92 178 -92c77 0 146 41 198 111h117z" />
    <glyph glyph-name="degree" unicode="&#xb0;" horiz-adv-x="488" 
d="M244 635c127 0 194 -77 194 -169c0 -89 -67 -167 -194 -167s-194 78 -194 167c0 92 67 169 194 169zM244 379c67 0 102 39 102 87c0 49 -35 89 -102 89s-102 -40 -102 -89c0 -48 35 -87 102 -87z" />
    <glyph glyph-name="dollar" unicode="$" horiz-adv-x="718" 
d="M321 679h75v-96c106 -12 191 -52 238 -84l-64 -74c-31 27 -89 55 -174 66v-141c109 -6 260 -30 260 -177c0 -136 -117 -190 -260 -192v-120h-75v124c-125 14 -213 66 -273 115l64 72c41 -33 108 -79 209 -94v176c-122 11 -240 35 -240 157c0 134 128 174 240 176v92z
M552 158c0 62 -59 81 -156 90v-175c87 1 156 26 156 85zM187 421c0 -49 75 -62 134 -67v141c-73 -1 -134 -18 -134 -74z" />
    <glyph glyph-name="cent" unicode="&#xa2;" horiz-adv-x="607" 
d="M351 553h75l-22 -96c51 -12 98 -33 139 -64l-68 -68c-27 19 -58 33 -91 42l-65 -292c65 0 116 27 157 61l69 -65c-20 -22 -98 -86 -227 -86c-6 0 -13 0 -19 1l-27 -125h-74l30 137c-101 30 -177 114 -177 229c0 144 117 240 261 240c6 0 13 0 20 -1zM164 227
c0 -65 35 -114 85 -137l63 286c-82 0 -148 -58 -148 -149z" />
    <glyph glyph-name="Euro" unicode="&#x20ac;" horiz-adv-x="784" 
d="M56 318v70h101c45 116 163 199 302 199c101 0 195 -34 260 -91l-68 -77c-48 43 -118 69 -192 69c-76 0 -143 -41 -180 -100h262v-70h-289c-2 -11 -2 -23 -2 -34s0 -21 2 -31h289v-70h-263c36 -62 103 -103 181 -103c76 0 151 30 200 77l68 -77c-70 -61 -164 -99 -268 -99
c-140 0 -259 85 -303 202h-100v70h84c-1 10 -2 20 -2 31s0 23 2 34h-84z" />
    <glyph glyph-name="sterling" unicode="&#xa3;" horiz-adv-x="721" 
d="M60 263v80h129v73c0 118 117 171 231 171c63 0 161 -30 238 -75l-55 -77c-61 31 -135 53 -183 53c-58 0 -120 -22 -120 -72v-73h245v-80h-245v-71c0 -64 -24 -92 -87 -103h445v-89h-598v89h39c67 0 90 18 90 103v71h-129z" />
    <glyph glyph-name="yen" unicode="&#xa5;" horiz-adv-x="788" 
d="M64 318v70h169l-147 180h142l171 -210l170 210h132l-146 -180h170v-70h-227l-48 -59v-6h275v-70h-275v-183h-112v183h-274v70h274v6l-48 59h-226z" />
    <glyph glyph-name="florin" unicode="&#x192;" horiz-adv-x="498" 
d="M53 343h115l26 117c22 96 109 128 175 128c40 0 89 -10 108 -19l-37 -86c-12 8 -49 15 -71 15c-38 0 -65 -14 -71 -37l-26 -118h122v-80h-140l-59 -263c-28 -124 -124 -168 -212 -168v80c44 10 94 21 109 88l58 263h-97v80z" />
    <glyph glyph-name="colonmonetary" unicode="&#x20a1;" horiz-adv-x="741" 
d="M513 679h65l-27 -123c49 -19 93 -47 129 -81l-70 -60c-24 20 -50 37 -80 50l-86 -386c71 15 135 58 179 103l69 -61c-63 -65 -159 -127 -269 -137l-27 -123h-64l27 123c-32 2 -62 8 -90 16l-30 -139h-65l36 163c-100 53 -159 149 -159 259c0 155 114 283 283 302l21 94
h65l-20 -92c31 -1 61 -5 90 -12zM290 93c26 -11 56 -18 89 -19l91 411c-29 7 -59 11 -91 11zM163 283c0 -62 25 -117 70 -155l79 358c-90 -27 -149 -108 -149 -203z" />
    <glyph glyph-name="franc" unicode="&#x20a3;" horiz-adv-x="703" 
d="M55 107v69h101v392h496v-99h-384v-105h232v-99h-232v-89h175v-69h-175v-107h-112v107h-101z" />
    <glyph glyph-name="lira" unicode="&#x20a4;" horiz-adv-x="724" 
d="M64 318v70h129v28c0 118 117 171 231 171c63 0 161 -30 238 -75l-55 -77c-61 31 -135 53 -183 53c-58 0 -120 -22 -120 -72v-28h245v-70h-245v-65h245v-70h-245c-2 -58 -27 -84 -87 -94h445v-89h-598v89h39c64 0 88 16 90 94h-129v70h129v65h-129z" />
    <glyph glyph-name="peso" unicode="&#x20b1;" horiz-adv-x="815" 
d="M36 324v69h101v175h319c74 0 132 -20 173 -63c28 -30 47 -67 53 -112h94v-69h-94c-7 -52 -30 -86 -61 -117c-41 -41 -84 -59 -165 -59h-207v-148h-112v324h-101zM456 469h-207v-76h323c-2 12 -8 26 -23 44c-20 23 -42 32 -93 32zM542 277c14 14 22 27 27 47h-320v-76h205
c51 0 68 10 88 29z" />
    <glyph glyph-name="peseta" unicode="&#x20a7;" horiz-adv-x="1533" 
d="M199 0h-111v568h337c69 0 132 -14 178 -61c7 -8 14 -16 20 -24h87v143h103v-143h127v-81h-127v-282c0 -32 22 -49 57 -49c20 0 58 4 70 8l10 -81c-17 -11 -67 -18 -100 -18c-64 0 -140 35 -140 140v282h-60c1 -5 1 -9 1 -13c0 -49 -19 -87 -49 -117
c-44 -44 -100 -61 -180 -61h-223v-211zM1448 445l-39 -79c-32 18 -109 49 -179 49c-52 0 -98 -17 -98 -56c0 -49 75 -54 118 -56c85 -4 230 -12 230 -152c0 -115 -99 -168 -226 -168c-113 0 -192 42 -240 74l39 78c45 -27 112 -66 200 -66c71 0 124 25 124 72
c0 55 -74 61 -127 64c-101 6 -221 15 -221 142c0 118 105 154 199 154c91 0 182 -34 220 -56zM425 469h-226v-160h223c46 0 74 8 96 29c14 14 22 32 22 51s-7 36 -19 49c-28 30 -68 31 -96 31z" />
    <glyph glyph-name="rupiah" unicode="&#xf6dd;" horiz-adv-x="1312" 
d="M768 484h95c5 -24 7 -44 7 -68c21 32 81 83 159 83c130 0 237 -102 237 -259c0 -154 -108 -255 -237 -255c-54 0 -106 26 -149 74v-266h-103v558c0 42 0 87 -9 133zM1019 75c74 0 133 65 133 165c0 102 -60 168 -133 168c-74 0 -123 -48 -139 -68v-198
c40 -41 89 -67 139 -67zM204 0h-111v568h334c89 0 144 -25 181 -63c30 -31 48 -71 48 -115c0 -78 -56 -138 -132 -163l142 -227h-128l-128 211h-206v-211zM427 469h-223v-160h239c56 0 102 37 102 80c0 18 -8 35 -20 48c-26 29 -60 32 -98 32z" />
    <glyph glyph-name="Rupee" unicode="&#x20b9;" horiz-adv-x="815" 
d="M107 324v69h435c-3 14 -9 28 -23 44c-20 23 -42 32 -93 32h-319v99h639v-69h-151c35 -28 52 -65 58 -106h93v-69h-94c-7 -50 -29 -86 -61 -117c-40 -32 -79 -49 -165 -49l-98 7l296 -165h-205l-312 180v68h317c46 0 67 8 88 29c14 14 23 27 28 47h-433z" />
    <glyph glyph-name="section" unicode="&#xa7;" horiz-adv-x="719" 
d="M621 97c-17 -16 -37 -29 -60 -40c5 -5 9 -13 12 -19c8 -15 12 -33 12 -54c0 -109 -121 -147 -220 -147c-73 0 -153 18 -209 49l48 76c41 -21 103 -36 161 -36c39 0 109 9 109 55c0 11 -3 19 -10 25c-22 20 -73 21 -124 26c-63 6 -172 22 -233 81c-26 25 -44 58 -44 103
c0 47 20 84 50 113c16 16 36 28 58 39c-5 6 -8 11 -11 17c-7 16 -12 35 -12 57c0 109 120 147 221 147c72 0 152 -18 208 -48l-48 -77c-41 21 -103 36 -160 36c-35 0 -110 -6 -110 -55c0 -10 3 -18 10 -24c22 -20 74 -22 125 -27c64 -6 172 -22 232 -80
c27 -26 44 -59 44 -104c0 -46 -19 -84 -49 -113zM393 297c-44 4 -109 8 -160 28l-20 -16c-24 -22 -38 -48 -38 -79c0 -24 10 -43 24 -56c33 -31 94 -41 141 -45c44 -4 109 -8 160 -28c8 5 15 10 21 16c24 22 38 48 38 79c0 24 -10 42 -25 56c-33 31 -94 41 -141 45z" />
    <glyph glyph-name="numbersign" unicode="#" horiz-adv-x="892" 
d="M592 617h83l-33 -177h198v-79h-212l-32 -173h186v-80h-201l-37 -204h-83l37 204h-169l-37 -204h-83l37 204h-195v80h210l32 173h-185v79h199l33 177h83l-33 -177h169zM376 361l-32 -173h169l32 173h-169z" />
    <glyph glyph-name="percent" unicode="%" horiz-adv-x="1050" 
d="M52 446c0 95 86 174 195 174c108 0 198 -79 198 -174c0 -96 -90 -175 -198 -175c-109 0 -195 79 -195 175zM750 605l-359 -605h-89l360 605h88zM148 446c0 -49 44 -90 99 -90c56 0 102 41 102 90s-46 89 -102 89c-55 0 -99 -40 -99 -89zM607 160c0 94 87 174 195 174
s198 -80 198 -174c0 -97 -90 -175 -198 -175s-195 78 -195 175zM703 160c0 -49 44 -90 99 -90c56 0 102 41 102 90s-46 89 -102 89c-55 0 -99 -40 -99 -89z" />
    <glyph glyph-name="perthousand" unicode="&#x2030;" horiz-adv-x="1492" 
d="M54 446c0 95 86 174 195 174c108 0 198 -79 198 -174c0 -96 -90 -175 -198 -175c-109 0 -195 79 -195 175zM752 605l-359 -605h-89l360 605h88zM150 446c0 -49 44 -90 99 -90c56 0 102 41 102 90s-46 89 -102 89c-55 0 -99 -40 -99 -89zM609 160c0 94 87 174 195 174
s198 -80 198 -174c0 -97 -90 -175 -198 -175s-195 78 -195 175zM705 160c0 -49 44 -90 99 -90c56 0 102 41 102 90s-46 89 -102 89c-55 0 -99 -40 -99 -89zM1050 160c0 94 87 174 195 174s198 -80 198 -174c0 -97 -90 -175 -198 -175s-195 78 -195 175zM1146 160
c0 -49 44 -90 99 -90c56 0 103 41 103 90s-47 89 -103 89c-55 0 -99 -40 -99 -89z" />
    <glyph glyph-name="currency" unicode="&#xa4;" horiz-adv-x="746" 
d="M98 258c0 53 16 103 44 145l-81 76l72 72l80 -75c45 32 100 51 159 51s115 -19 161 -51l81 75l72 -72l-82 -76c28 -42 45 -92 45 -145c0 -54 -17 -104 -45 -146l82 -75l-72 -72l-81 75c-46 -32 -102 -51 -161 -51s-114 19 -159 50l-80 -74l-72 72l81 75
c-28 42 -44 92 -44 146zM210 258c0 -92 73 -168 162 -168c91 0 165 76 165 168s-74 168 -165 168c-89 0 -162 -76 -162 -168z" />
    <glyph glyph-name="dollar.superior" horiz-adv-x="518" 
d="M229 738h64v-73c78 -10 141 -40 176 -64l-56 -64c-22 18 -61 38 -120 47v-91c80 -6 188 -27 188 -140c0 -107 -85 -148 -188 -149v-90h-64v93c-90 12 -154 52 -198 89l55 63c28 -23 74 -56 143 -69v118c-89 9 -174 29 -174 124c0 103 91 135 174 137v69zM389 340
c0 40 -28 55 -96 63v-118c55 0 96 16 96 55zM147 541c0 -31 45 -41 82 -45v92c-48 -1 -82 -12 -82 -47z" />
    <glyph glyph-name="cent.superior" horiz-adv-x="440" 
d="M255 647h65l-16 -73c37 -9 72 -25 102 -48l-60 -60c-17 13 -37 22 -58 29l-44 -208c37 2 71 18 102 44l60 -56c-16 -18 -75 -67 -172 -67h-7l-20 -94h-65l22 105c-75 24 -130 89 -130 178c0 112 87 186 195 186h12zM132 397c0 -45 20 -78 50 -96l43 203
c-52 -2 -93 -44 -93 -107z" />
    <glyph glyph-name="Euro.superior" horiz-adv-x="561" 
d="M38 459v60h75c33 87 119 150 218 150c74 0 142 -26 189 -69l-59 -68c-32 31 -80 50 -130 50c-47 0 -87 -25 -111 -63h171v-60h-194c-1 -7 -1 -15 -1 -22c0 -8 0 -15 1 -22h194v-60h-172c24 -39 65 -64 112 -64c52 0 103 22 137 57l59 -68c-51 -47 -120 -76 -196 -76
c-99 0 -185 63 -218 151h-75v60h61c-1 7 -1 14 -1 22c0 7 0 15 1 22h-61z" />
    <glyph glyph-name="sterling.superior" horiz-adv-x="515" 
d="M41 416v70h87v51c0 91 88 132 172 132c47 0 119 -23 177 -58l-49 -68c-43 23 -95 39 -128 39c-36 0 -74 -14 -74 -45v-51h168v-70h-168v-45c0 -45 -19 -65 -67 -73h317v-78h-435v78h28c44 0 59 13 59 73v45h-87z" />
    <glyph glyph-name="yen.superior" horiz-adv-x="574" 
d="M40 459v60h117l-103 134h124l113 -151l113 151h114l-103 -134h119v-60h-165l-33 -44h198v-60h-198v-135h-98v135h-198v60h198l-34 44h-164z" />
    <glyph glyph-name="numbersign.superior" horiz-adv-x="642" 
d="M422 690h71l-23 -131h138v-70h-150l-21 -120h130v-70h-143l-26 -152h-72l27 152h-111l-26 -152h-72l27 152h-137v70h149l21 120h-128v70h141l23 131h71l-23 -131h111zM276 489l-21 -120h110l21 120h-110z" />
    <glyph glyph-name="percent.superior" horiz-adv-x="763" 
d="M34 561c0 72 63 133 142 133c78 0 144 -61 144 -133c0 -74 -66 -134 -144 -134c-79 0 -142 60 -142 134zM551 681l-261 -461h-77l262 461h76zM117 561c0 -32 27 -59 59 -59c33 0 61 27 61 59s-28 58 -61 58c-32 0 -59 -26 -59 -58zM444 341c0 72 63 133 142 133
s144 -61 144 -133c0 -73 -65 -133 -144 -133s-142 60 -142 133zM527 341c0 -32 27 -59 59 -59c34 0 61 27 61 59s-27 58 -61 58c-32 0 -59 -26 -59 -58z" />
    <glyph glyph-name="period.superior" horiz-adv-x="232" 
d="M50 267c0 34 28 61 66 61c37 0 67 -27 67 -61c0 -33 -30 -60 -67 -60c-38 0 -66 27 -66 60z" />
    <glyph glyph-name="comma.superior" horiz-adv-x="247" 
d="M53 79l-27 57c24 5 60 22 82 43c10 10 17 21 20 32c-4 -1 -8 -1 -12 -1c-38 0 -67 26 -67 59c0 32 29 59 67 59c42 0 84 -35 84 -85c0 -98 -86 -144 -147 -164z" />
    <glyph glyph-name="hyphen.superior" horiz-adv-x="288" 
d="M53 349v89h182v-89h-182z" />
    <glyph glyph-name="parenleft.superior" unicode="&#x207d;" horiz-adv-x="295" 
d="M279 161l-49 -59c-122 63 -195 169 -195 304c0 136 73 242 195 305l49 -58c-86 -49 -147 -137 -147 -247s61 -197 147 -245z" />
    <glyph glyph-name="parenright.superior" unicode="&#x207e;" horiz-adv-x="295" 
d="M16 653l49 58c121 -63 195 -169 195 -305c0 -135 -74 -241 -195 -304l-49 59c85 48 146 135 146 245s-61 198 -146 247z" />
    <glyph glyph-name="plus" unicode="+" horiz-adv-x="757" 
d="M90 213v92h238v199h101v-199h237v-92h-237v-199h-101v199h-238z" />
    <glyph glyph-name="minus" unicode="&#x2212;" horiz-adv-x="757" 
d="M90 213v92h576v-92h-576z" />
    <glyph glyph-name="multiply" unicode="&#xd7;" horiz-adv-x="757" 
d="M97 435l71 67l211 -181l211 181l68 -66l-207 -177l208 -177l-70 -66l-212 180l-211 -180l-68 65l207 177z" />
    <glyph glyph-name="divide" unicode="&#xf7;" horiz-adv-x="757" 
d="M90 213v92h576v-92h-576zM305 63c0 37 32 68 74 68s74 -31 74 -68c0 -38 -32 -67 -74 -67s-74 29 -74 67zM305 454c0 38 32 68 74 68s74 -30 74 -68c0 -37 -32 -67 -74 -67s-74 30 -74 67z" />
    <glyph glyph-name="equal" unicode="=" horiz-adv-x="757" 
d="M90 335v93h576v-93h-576zM90 91v93h576v-93h-576z" />
    <glyph glyph-name="approxequal" unicode="&#x2248;" horiz-adv-x="757" 
d="M90 79v93c50 35 97 56 156 56c57 0 95 -18 129 -37c33 -19 73 -39 125 -39c53 0 118 25 166 59v-95c-49 -35 -106 -57 -166 -57c-65 0 -106 24 -128 37c-36 20 -73 39 -127 39s-107 -21 -155 -56zM90 324v93c50 35 97 55 156 55c57 0 95 -18 129 -37
c33 -19 73 -39 125 -39c53 0 118 25 166 60v-95c-49 -36 -106 -58 -166 -58c-65 0 -106 24 -128 37c-36 20 -73 39 -127 39s-107 -21 -155 -55z" />
    <glyph glyph-name="notequal" unicode="&#x2260;" horiz-adv-x="757" 
d="M90 335v93h334l64 101h101l-64 -101h141v-93h-199l-95 -151h294v-93h-353l-63 -101h-102l63 101h-121v93h180l95 151h-275z" />
    <glyph glyph-name="plusminus" unicode="&#xb1;" horiz-adv-x="757" 
d="M90 316v93h238v164h101v-164h237v-93h-237v-164h-101v164h-238zM90 0v93h576v-93h-576z" />
    <glyph glyph-name="less" unicode="&#x3c;" horiz-adv-x="757" 
d="M666 495v-105l-446 -125v-12l446 -125v-104l-576 185v100z" />
    <glyph glyph-name="greater" unicode="&#x3e;" horiz-adv-x="757" 
d="M90 390v105l576 -186v-100l-576 -185v104l446 125v12z" />
    <glyph glyph-name="lessequal" unicode="&#x2264;" horiz-adv-x="757" 
d="M90 0v93h576v-93h-576zM666 586v-104l-446 -117v-12l446 -116v-104l-576 175v102z" />
    <glyph glyph-name="greaterequal" unicode="&#x2265;" horiz-adv-x="757" 
d="M666 93v-93h-576v93h576zM90 482v104l576 -176v-102l-576 -175v104l446 116v12z" />
    <glyph glyph-name="logicalnot" unicode="&#xac;" horiz-adv-x="757" 
d="M666 113h-102v203h-474v93h576v-296z" />
    <glyph glyph-name="periodcentered" unicode="&#xb7;" horiz-adv-x="757" 
d="M289 259c0 44 38 81 89 81c50 0 89 -37 89 -81c0 -45 -39 -80 -89 -80c-51 0 -89 35 -89 80z" />
    <glyph glyph-name="asciitilde" unicode="~" horiz-adv-x="757" 
d="M126 190l-76 49c70 79 129 125 199 125c74 0 125 -39 158 -69c20 -17 51 -45 92 -45c37 0 79 26 129 78l79 -49c-79 -90 -149 -129 -212 -129c-83 0 -134 50 -162 74c-27 22 -56 40 -88 40c-35 0 -74 -28 -119 -74z" />
    <glyph glyph-name="asciicircum" unicode="^" horiz-adv-x="757" 
d="M221 213h-116l220 400h110l217 -400h-115l-153 292h-8z" />
    <glyph glyph-name="brokenbar" unicode="&#xa6;" horiz-adv-x="350" 
d="M129 385v412h95v-412h-95zM129 -228v420h95v-420h-95z" />
    <glyph glyph-name="bar" unicode="|" horiz-adv-x="350" 
d="M129 -307v1212h95v-1212h-95z" />
    <glyph glyph-name="mu" unicode="&#xb5;" horiz-adv-x="605" 
d="M181 -230h-104v703h104v-326c0 -42 42 -77 99 -77c60 0 102 39 132 77v326h103v-340c0 -42 0 -87 9 -133h-95c-5 21 -7 45 -7 66c-36 -44 -79 -86 -159 -86c-30 0 -58 6 -82 24v-234z" />
    <glyph glyph-name="mu" unicode="&#x3bc;" horiz-adv-x="605" 
d="M181 -230h-104v703h104v-326c0 -42 42 -77 99 -77c60 0 102 39 132 77v326h103v-340c0 -42 0 -87 9 -133h-95c-5 21 -7 45 -7 66c-36 -44 -79 -86 -159 -86c-30 0 -58 6 -82 24v-234z" />
    <glyph glyph-name="pi" unicode="&#x3c0;" horiz-adv-x="674" 
d="M36 392v81h600v-81h-106l-32 -311c-3 -26 -3 -53 -1 -81h-102c-2 28 -2 53 1 81l32 311h-174l-41 -392h-102l41 392h-116z" />
    <glyph glyph-name="Delta" unicode="&#x394;" horiz-adv-x="726" 
d="M51 90l261 563h102l261 -563v-90h-624v90zM357 519l-191 -429h388l-191 429h-6z" />
    <glyph glyph-name="Delta" unicode="&#x2206;" horiz-adv-x="726" 
d="M51 90l261 563h102l261 -563v-90h-624v90zM357 519l-191 -429h388l-191 429h-6z" />
    <glyph glyph-name="Omega" unicode="&#x3a9;" horiz-adv-x="874" 
d="M75 0v90h166c-113 40 -182 140 -182 258c0 179 165 325 377 325s380 -146 380 -325c0 -115 -76 -218 -185 -258h165v-90h-287v90c112 29 189 133 189 258c0 124 -115 225 -262 225c-146 0 -259 -101 -259 -225s75 -227 185 -258v-90h-287z" />
    <glyph glyph-name="Omega" unicode="&#x2126;" horiz-adv-x="874" 
d="M75 0v90h166c-113 40 -182 140 -182 258c0 179 165 325 377 325s380 -146 380 -325c0 -115 -76 -218 -185 -258h165v-90h-287v90c112 29 189 133 189 258c0 124 -115 225 -262 225c-146 0 -259 -101 -259 -225s75 -227 185 -258v-90h-287z" />
    <glyph glyph-name="product" unicode="&#x220f;" horiz-adv-x="810" 
d="M51 553v100h709v-100h-101v-660h-112v660h-285v-660h-112v660h-99z" />
    <glyph glyph-name="summation" unicode="&#x2211;" horiz-adv-x="722" 
d="M666 653v-100h-427l300 -246v-66l-300 -248h427v-100h-617v70l373 308v6l-373 306v70h617z" />
    <glyph glyph-name="integral" unicode="&#x222b;" horiz-adv-x="429" 
d="M382 723v-91h-58c-37 0 -56 -31 -56 -64v-627c0 -67 -53 -128 -167 -128h-49v91h58c37 0 56 30 56 64v627c0 66 39 128 122 128h94z" />
    <glyph glyph-name="partialdiff" unicode="&#x2202;" horiz-adv-x="651" 
d="M296 459c77 0 144 -37 181 -78v14c0 51 -53 168 -257 168v91c309 0 368 -183 368 -339c0 -235 -134 -334 -277 -334c-126 0 -259 77 -259 238s132 240 244 240zM306 63c86 0 168 61 179 199c-37 61 -107 115 -181 115s-150 -53 -150 -158s75 -156 152 -156z" />
    <glyph glyph-name="infinity" unicode="&#x221e;" horiz-adv-x="1047" 
d="M270 455h12c48 0 107 -17 175 -74l66 -57l67 57c69 57 125 74 173 74h12c121 0 210 -90 210 -187v-18c0 -96 -89 -185 -210 -185h-12c-42 0 -103 16 -173 73l-67 54l-67 -55c-68 -55 -124 -72 -174 -72h-12c-120 0 -208 89 -208 185v18c0 97 88 187 208 187zM660 321
l-75 -61l75 -61c40 -33 76 -46 103 -46h12c65 0 113 47 113 97v18c0 52 -48 98 -113 98h-12c-25 0 -65 -14 -103 -45zM158 268v-18c0 -50 47 -97 112 -97h12c27 0 60 8 104 46l72 61l-72 61c-41 34 -78 45 -104 45h-12c-65 0 -112 -46 -112 -98z" />
    <glyph glyph-name="lozenge" unicode="&#x25ca;" horiz-adv-x="669" 
d="M303 653h63l255 -293v-65l-255 -295h-63l-255 295v65zM334 539l-183 -211v-2l183 -212h1l183 211v3l-183 211h-1z" />
    <glyph glyph-name="radical" unicode="&#x221a;" horiz-adv-x="674" 
d="M27 484h181l124 -330l219 600h102l-288 -754h-69l-160 402h-109v82z" />
    <glyph glyph-name="zero.tos" horiz-adv-x="688" 
d="M45 284c0 169 135 303 298 303s300 -134 300 -303c0 -170 -137 -303 -300 -303s-298 133 -298 303zM156 284c0 -112 83 -205 187 -205c103 0 189 93 189 205s-86 205 -189 205c-104 0 -187 -93 -187 -205z" />
    <glyph glyph-name="one.tos" horiz-adv-x="688" 
d="M121 0v88h217v379l-212 -62l-25 90l237 73h111v-480h165v-88h-493z" />
    <glyph glyph-name="two.tos" horiz-adv-x="688" 
d="M142 405l-65 78c74 53 151 104 283 104c129 0 258 -48 258 -161c0 -138 -172 -172 -265 -197c-92 -24 -170 -56 -170 -135v-6h422v-88h-533v84c0 142 136 209 278 243c38 7 157 33 157 96c0 48 -74 66 -144 66c-100 0 -161 -38 -221 -84z" />
    <glyph glyph-name="three.tos" horiz-adv-x="688" 
d="M307 254v89h90c44 0 82 26 82 66c0 59 -68 80 -123 80c-79 0 -153 -45 -204 -92l-68 68c66 61 159 122 274 122c98 0 233 -42 233 -159c0 -59 -40 -101 -68 -113c42 -10 112 -46 112 -136c0 -128 -133 -199 -298 -199c-122 0 -221 37 -304 120l68 78
c56 -57 128 -99 236 -99c103 0 187 39 187 107c0 57 -70 68 -115 68h-102z" />
    <glyph glyph-name="four.tos" horiz-adv-x="688" 
d="M647 213v-88h-106v-125h-112v125h-402v77l418 366h96v-355h106zM195 216v-3h234v211h-8z" />
    <glyph glyph-name="five.tos" horiz-adv-x="688" 
d="M567 568v-99h-367v-146c54 27 101 52 186 52c126 0 253 -61 253 -186c0 -154 -156 -209 -303 -209c-149 0 -243 56 -293 90l58 78c39 -26 116 -69 236 -69c92 0 191 28 191 109c0 61 -71 92 -145 92c-95 0 -158 -26 -215 -54l-68 49v293h467z" />
    <glyph glyph-name="six.tos" horiz-adv-x="688" 
d="M608 529l-58 -78c-45 24 -107 38 -170 38c-112 0 -214 -71 -224 -193c56 38 141 78 243 78c162 0 238 -94 238 -181c0 -121 -107 -212 -262 -212c-163 0 -321 100 -321 294c0 196 154 312 329 312c126 0 199 -44 225 -58zM389 284c-88 0 -171 -39 -225 -71
c29 -88 117 -134 213 -134c88 0 149 56 149 116c0 40 -38 89 -137 89z" />
    <glyph glyph-name="seven.tos" horiz-adv-x="688" 
d="M55 469v99h577v-100l-352 -468h-146l370 469h-449z" />
    <glyph glyph-name="eight.tos" horiz-adv-x="688" 
d="M344 -21c-149 0 -289 67 -289 184c0 87 67 136 136 148c-66 12 -104 53 -104 119c0 109 144 159 257 159c114 0 257 -50 257 -159c0 -66 -35 -107 -105 -119c70 -12 137 -61 137 -148c0 -117 -141 -184 -289 -184zM344 77c85 0 168 34 168 96c0 63 -92 93 -168 93
c-75 0 -168 -30 -168 -93c0 -62 84 -96 168 -96zM344 348c88 0 135 25 135 72c0 54 -74 81 -135 81c-60 0 -135 -27 -135 -81c0 -47 47 -72 135 -72z" />
    <glyph glyph-name="nine.tos" horiz-adv-x="688" 
d="M78 39l57 78c45 -24 107 -38 170 -38c113 0 216 71 226 193c-57 -38 -141 -78 -244 -78c-163 0 -240 94 -240 181c0 121 109 212 264 212c164 0 322 -100 322 -294c0 -196 -155 -312 -330 -312c-126 0 -201 44 -225 58zM297 284c87 0 171 38 225 70
c-28 88 -117 135 -213 135c-88 0 -151 -56 -151 -116c0 -40 38 -89 139 -89z" />
    <glyph glyph-name="dollar.tos" horiz-adv-x="688" 
d="M306 679h75v-96c102 -13 183 -52 229 -84l-64 -74c-29 27 -85 55 -165 65v-140c104 -6 249 -30 249 -177c0 -136 -112 -190 -249 -192v-120h-75v124c-120 15 -204 66 -262 115l64 72c39 -33 102 -78 198 -94v176c-117 11 -230 36 -230 157c0 133 122 174 230 176v92z
M526 158c0 62 -53 81 -145 90v-175c81 1 145 26 145 85zM182 421c0 -48 69 -62 124 -66v140c-69 -1 -124 -19 -124 -74z" />
    <glyph glyph-name="cent.tos" horiz-adv-x="688" 
d="M398 553h76l-24 -96c56 -11 109 -32 155 -64l-68 -68c-32 20 -70 35 -109 43l-74 -293h4c79 0 139 27 182 61l69 -65c-22 -22 -109 -86 -251 -86c-9 0 -18 0 -26 1l-31 -125h-75l34 137c-114 30 -199 113 -199 229c0 144 130 240 290 240c8 0 17 0 25 -1zM174 227
c0 -68 45 -118 108 -140l72 289h-3c-97 0 -177 -58 -177 -149z" />
    <glyph glyph-name="Euro.tos" horiz-adv-x="688" 
d="M43 318v70h90c41 116 146 199 270 199c91 0 175 -34 233 -91l-68 -77c-41 43 -101 69 -165 69s-120 -41 -150 -100h224v-70h-247c-1 -11 -2 -23 -2 -34s0 -21 2 -31h247v-70h-226c31 -62 87 -103 152 -103c66 0 131 30 172 77l68 -77c-62 -61 -147 -99 -240 -99
c-125 0 -231 85 -271 202h-89v70h74c-1 10 -1 20 -1 31s0 23 1 34h-74z" />
    <glyph glyph-name="sterling.tos" horiz-adv-x="688" 
d="M54 263v80h122v73c0 118 113 171 223 171c61 0 155 -30 230 -75l-55 -77c-59 31 -129 53 -175 53c-54 0 -112 -22 -112 -72v-73h233v-80h-233v-71c0 -64 -23 -92 -84 -103h426v-89h-575v89h38c63 0 84 18 84 103v71h-122z" />
    <glyph glyph-name="yen.tos" horiz-adv-x="688" 
d="M49 318v70h146l-128 180h142l139 -210l139 210h132l-128 -180h148v-70h-198l-42 -59v-6h240v-70h-240v-183h-112v183h-238v70h238v6l-42 59h-196z" />
    <glyph glyph-name="florin.tos" horiz-adv-x="688" 
d="M177 343h115l26 117c22 96 109 128 175 128c40 0 89 -10 108 -19l-37 -86c-12 8 -49 15 -71 15c-38 0 -65 -14 -71 -37l-26 -118h122v-80h-140l-59 -263c-28 -124 -124 -168 -212 -168v80c44 10 94 21 109 88l58 263h-97v80z" />
    <glyph glyph-name="colonmonetary.tos" horiz-adv-x="688" 
d="M477 679h65l-26 -123c46 -20 86 -47 120 -81l-70 -60c-21 19 -44 36 -69 48l-80 -383c64 16 122 57 161 102l69 -61c-58 -65 -147 -127 -250 -137l-25 -123h-63l25 123c-29 2 -56 8 -81 16l-28 -139h-65l34 164c-92 53 -146 148 -146 258c0 155 103 282 260 302l20 94h65
l-19 -92c28 -1 55 -5 81 -11zM273 94c23 -11 50 -18 79 -20l85 411c-26 7 -53 10 -82 11zM160 283c0 -58 19 -111 56 -149l72 351c-78 -29 -128 -109 -128 -202z" />
    <glyph glyph-name="franc.tos" horiz-adv-x="688" 
d="M54 107v69h99v392h486v-99h-374v-105h225v-99h-225v-89h171v-69h-171v-107h-112v107h-99z" />
    <glyph glyph-name="lira.tos" horiz-adv-x="688" 
d="M60 318v70h121v28c0 118 113 171 222 171c61 0 155 -30 229 -75l-55 -77c-58 31 -128 53 -174 53c-53 0 -111 -22 -111 -72v-28h232v-70h-232v-65h232v-70h-232c-2 -58 -26 -84 -84 -94h424v-89h-572v89h37c60 0 82 16 84 94h-121v70h121v65h-121z" />
    <glyph glyph-name="peso.tos" horiz-adv-x="688" 
d="M28 324v69h87v175h247c74 0 132 -20 173 -63c28 -30 47 -67 53 -112h81v-69h-81c-7 -52 -30 -86 -61 -117c-41 -41 -84 -59 -165 -59h-135v-148h-112v324h-87zM362 469h-135v-76h251c-2 12 -8 26 -23 44c-20 23 -42 32 -93 32zM448 277c14 14 22 27 27 47h-248v-76h133
c51 0 68 10 88 29z" />
    <glyph glyph-name="Rupee.tos" horiz-adv-x="688" 
d="M28 324v69h435c-3 14 -9 28 -23 44c-20 23 -42 32 -93 32h-319v99h639v-69h-151c35 -28 52 -65 58 -106h93v-69h-94c-7 -50 -29 -86 -61 -117c-40 -32 -79 -49 -165 -49l-98 7l296 -165h-205l-312 180v68h317c46 0 67 8 88 29c14 14 23 27 28 47h-433z" />
    <glyph glyph-name="section.tos" horiz-adv-x="688" 
d="M586 97c-16 -16 -34 -29 -55 -40c5 -5 8 -13 10 -19c8 -15 11 -33 11 -54c0 -109 -116 -147 -211 -147c-69 0 -146 18 -199 49l47 76c39 -21 97 -36 152 -36c35 0 100 9 100 55c0 11 -2 19 -9 25c-20 20 -68 21 -115 26c-58 6 -164 22 -222 81c-25 25 -42 58 -42 103
c0 47 19 84 48 113c14 16 32 28 52 39c-4 6 -7 11 -9 17c-6 16 -11 35 -11 57c0 109 115 147 212 147c69 0 145 -18 199 -48l-48 -77c-39 21 -97 36 -151 36c-31 0 -101 -6 -101 -55c0 -10 3 -18 9 -24c20 -20 69 -22 116 -27c59 -6 164 -22 222 -80c25 -26 42 -59 42 -104
c0 -46 -19 -84 -47 -113zM368 297c-42 4 -104 8 -154 28l-13 -16c-23 -22 -36 -48 -36 -79c0 -24 9 -43 22 -56c30 -31 88 -41 130 -45s104 -8 154 -28c6 5 10 10 15 16c22 22 36 48 36 79c0 24 -10 42 -24 56c-30 31 -88 41 -130 45z" />
    <glyph glyph-name="numbersign.tos" horiz-adv-x="688" 
d="M450 617h82l-26 -177h150v-79h-162l-25 -173h141v-80h-152l-30 -204h-82l30 204h-116l-30 -204h-82l30 204h-148v80h159l25 173h-139v79h151l26 177h82l-26 -177h116zM296 361l-25 -173h116l25 173h-116z" />
    <glyph glyph-name="percent.tos" horiz-adv-x="688" 
d="M19 446c0 95 59 174 133 174s135 -79 135 -174c0 -96 -61 -175 -135 -175s-133 79 -133 175zM512 605l-245 -605h-89l247 605h87zM104 446c0 -49 21 -90 48 -90s50 41 50 90s-23 89 -50 89s-48 -40 -48 -89zM403 160c0 94 59 174 133 174c73 0 135 -80 135 -174
c0 -97 -62 -175 -135 -175c-74 0 -133 78 -133 175zM488 160c0 -49 21 -90 48 -90c28 0 49 41 49 90s-21 89 -49 89c-27 0 -48 -40 -48 -89z" />
    <glyph glyph-name="zero.pl" horiz-adv-x="818" 
d="M56 307c0 181 160 326 352 326c193 0 355 -145 355 -326c0 -183 -162 -327 -355 -327c-192 0 -352 144 -352 327zM168 307c0 -125 107 -227 240 -227s243 102 243 227c0 124 -110 226 -243 226s-240 -102 -240 -226z" />
    <glyph glyph-name="one.pl" horiz-adv-x="433" 
d="M43 443l-24 90l191 80h112v-613h-112v512z" />
    <glyph glyph-name="one.pl.alt" horiz-adv-x="334" 
d="M111 0v613h112v-613h-112z" />
    <glyph glyph-name="two.pl" horiz-adv-x="677" 
d="M136 444l-66 78c75 56 152 111 284 111c129 0 260 -52 260 -173c0 -146 -172 -182 -266 -210c-93 -26 -171 -63 -171 -154v-6h424v-90h-536v86c0 154 137 227 279 263c39 10 158 36 158 108c0 56 -74 76 -145 76c-100 0 -162 -40 -221 -89z" />
    <glyph glyph-name="three.pl" horiz-adv-x="760" 
d="M341 278v90h123c38 0 79 28 79 75c0 67 -83 90 -148 90c-92 0 -176 -47 -234 -98l-68 68c73 65 176 130 304 130c108 0 258 -46 258 -171c0 -65 -41 -110 -71 -123c45 -10 121 -49 121 -147c0 -137 -147 -212 -332 -212c-136 0 -245 39 -338 127l68 78
c65 -61 147 -105 270 -105c122 0 220 42 220 119c0 66 -79 79 -125 79h-127z" />
    <glyph glyph-name="four.pl" horiz-adv-x="795" 
d="M750 227v-90h-123v-137h-112v137h-481v78l494 398h99v-386h123zM201 231v-4h314v242h-11z" />
    <glyph glyph-name="five.pl" horiz-adv-x="739" 
d="M616 613v-100h-406v-155c58 36 111 57 205 57c137 0 276 -65 276 -201c0 -172 -168 -234 -327 -234c-166 0 -271 72 -326 116l68 78c42 -36 127 -94 259 -94c104 0 214 34 214 133c0 72 -82 107 -167 107c-104 0 -173 -33 -234 -69l-70 50v312h508z" />
    <glyph glyph-name="six.pl" horiz-adv-x="760" 
d="M679 558l-68 -78c-50 34 -119 53 -191 53c-131 0 -251 -79 -260 -218c63 42 159 88 278 88c182 0 267 -102 267 -196c0 -128 -121 -227 -293 -227c-181 0 -354 108 -354 317c0 211 171 336 364 336c144 0 227 -56 257 -75zM428 313c-103 0 -198 -45 -259 -80
c31 -101 133 -153 245 -153c105 0 179 62 179 129c0 47 -46 104 -165 104z" />
    <glyph glyph-name="seven.pl" horiz-adv-x="670" 
d="M41 513v100h584v-100l-356 -513h-147l374 513h-455z" />
    <glyph glyph-name="eight.pl" horiz-adv-x="760" 
d="M380 -22c-165 0 -324 72 -324 198c0 94 81 147 164 161c-80 13 -125 57 -125 128c0 116 159 170 285 170s285 -54 285 -170c0 -71 -43 -115 -126 -128c84 -14 165 -67 165 -161c0 -126 -160 -198 -324 -198zM380 78c100 0 202 37 202 108c0 72 -111 106 -202 106
s-202 -34 -202 -106c0 -71 102 -108 202 -108zM380 374c105 0 163 28 163 81c0 61 -90 90 -163 90s-163 -29 -163 -90c0 -53 58 -81 163 -81z" />
    <glyph glyph-name="nine.pl" horiz-adv-x="758" 
d="M79 55l68 78c50 -34 119 -53 191 -53c131 0 250 78 259 217c-63 -41 -159 -87 -277 -87c-182 0 -267 102 -267 196c0 128 121 227 293 227c181 0 354 -108 354 -317c0 -211 -171 -336 -364 -336c-144 0 -227 56 -257 75zM330 300c103 0 198 44 258 79
c-30 101 -132 154 -244 154c-105 0 -179 -62 -179 -129c0 -47 46 -104 165 -104z" />
    <glyph glyph-name="dollar.pl" horiz-adv-x="692" 
d="M310 733h75v-104c110 -13 197 -56 245 -91l-64 -74c-33 28 -93 60 -181 71v-160c112 -7 269 -32 269 -189c0 -145 -122 -204 -269 -206v-130h-75v134c-130 15 -220 71 -282 124l64 73c43 -38 113 -88 218 -103v200c-126 12 -248 37 -248 167c0 143 132 186 248 188v100z
M549 171c0 71 -64 92 -164 101v-199c91 1 164 30 164 98zM168 455c0 -57 80 -71 142 -75v160c-77 -1 -142 -21 -142 -85z" />
    <glyph glyph-name="cent.pl" horiz-adv-x="601" 
d="M348 593h75l-22 -105c52 -12 101 -34 143 -68l-69 -69c-27 22 -60 37 -94 46l-68 -322c68 0 122 31 164 67l69 -65c-21 -24 -101 -93 -233 -93c-7 0 -13 0 -20 1l-28 -135h-75l31 148c-104 33 -182 122 -182 245c0 154 120 256 268 256c7 0 14 0 21 -1zM152 243
c0 -73 37 -127 89 -152l68 317h-2c-86 0 -155 -65 -155 -165z" />
    <glyph glyph-name="Euro.pl" horiz-adv-x="796" 
d="M53 346v70h104c45 126 167 217 311 217c105 0 201 -37 268 -98l-68 -78c-50 47 -123 76 -200 76c-82 0 -153 -48 -191 -117h276v-70h-300c-2 -13 -3 -26 -3 -39s1 -24 3 -36h300v-70h-278c37 -72 109 -121 193 -121c80 0 157 33 209 85l68 -78
c-72 -66 -169 -107 -277 -107c-145 0 -268 93 -312 221h-103v70h87c-2 12 -2 24 -2 36c0 13 1 26 2 39h-87z" />
    <glyph glyph-name="sterling.pl" horiz-adv-x="745" 
d="M65 287v81h134v81c0 127 121 184 238 184c65 0 165 -32 245 -80l-56 -78c-63 34 -140 58 -189 58c-61 0 -126 -26 -126 -84v-81h254v-81h-254v-83c0 -71 -25 -102 -89 -114h459v-90h-616v90h40c70 0 94 20 94 114v83h-134z" />
    <glyph glyph-name="yen.pl" horiz-adv-x="815" 
d="M68 346v70h177l-154 197h142l179 -232l178 232h132l-154 -197h179v-70h-234l-50 -65v-10h284v-70h-284v-201h-112v201h-283v70h283v10l-51 65h-232z" />
    <glyph glyph-name="florin.pl" horiz-adv-x="434" 
d="M47 287v81h118l27 126c23 105 112 140 180 140c42 0 92 -12 111 -23l-37 -86c-12 9 -51 18 -74 18c-40 0 -69 -17 -77 -49l-27 -126h128v-81h-145l-61 -287c-29 -133 -127 -180 -217 -180v81c46 10 98 24 114 99l61 287h-101z" />
    <glyph glyph-name="colonmonetary.pl" horiz-adv-x="730" 
d="M515 733h65l-28 -132c51 -21 97 -50 134 -87l-71 -61c-25 22 -52 41 -83 55l-91 -429c75 15 142 61 188 111l69 -62c-65 -70 -164 -136 -277 -146l-28 -132h-65l28 133c-33 2 -64 9 -93 18l-32 -151h-65l37 176c-103 57 -165 161 -165 280c0 167 118 305 293 325l22 102
h65l-21 -100c33 -1 64 -5 94 -12zM283 95c27 -12 58 -19 92 -21l97 455c-30 8 -62 12 -95 12zM150 306c0 -70 27 -132 76 -174l84 399c-96 -29 -160 -119 -160 -225z" />
    <glyph glyph-name="franc.pl" horiz-adv-x="689" 
d="M43 121v70h104v422h510v-100h-398v-122h241v-100h-241v-100h181v-70h-181v-121h-112v121h-104z" />
    <glyph glyph-name="lira.pl" horiz-adv-x="751" 
d="M72 346v70h134v33c0 127 121 184 238 184c65 0 165 -32 245 -80l-56 -78c-63 34 -140 58 -189 58c-61 0 -126 -26 -126 -84v-33h254v-70h-254v-75h254v-70h-254c-1 -69 -26 -99 -89 -111h459v-90h-616v90h40c69 0 93 19 94 111h-134v70h134v75h-134z" />
    <glyph glyph-name="peso.pl" horiz-adv-x="849" 
d="M44 356v70h104v187h329c69 0 132 -14 179 -65c29 -32 47 -73 53 -122h97v-70h-96c-6 -56 -30 -96 -63 -129c-40 -40 -83 -59 -170 -59h-217v-168h-112v356h-104zM477 513h-217v-87h336c-4 21 -11 38 -23 52c-20 23 -52 35 -96 35zM569 302c13 13 22 31 27 54h-336v-87
h216c39 0 71 10 93 33z" />
    <glyph glyph-name="peseta.pl" horiz-adv-x="1585" 
d="M995 79l10 -81c-17 -11 -68 -18 -98 -18c-67 0 -142 35 -142 140v282h-82c-5 -44 -25 -83 -56 -112c-41 -39 -98 -59 -178 -59h-237v-231h-112v613h349c77 0 135 -16 182 -64c19 -20 33 -42 42 -66h92v143h103v-143h127v-81h-127v-282c0 -32 21 -49 58 -49
c18 0 57 4 69 8zM1503 445l-39 -79c-32 18 -109 49 -179 49c-52 0 -98 -17 -98 -56c0 -49 75 -54 118 -56c85 -4 230 -12 230 -152c0 -115 -99 -168 -226 -168c-113 0 -192 42 -240 74l39 78c45 -27 112 -66 200 -66c71 0 124 25 124 72c0 55 -74 61 -127 64
c-101 6 -221 15 -221 142c0 118 105 154 199 154c91 0 182 -34 220 -56zM449 513h-237v-181h236c44 0 76 10 97 30c17 16 27 37 27 60s-9 43 -25 59c-24 24 -58 32 -98 32z" />
    <glyph glyph-name="rupiah.pl" horiz-adv-x="1339" 
d="M213 0h-112v613h348c86 0 146 -22 186 -64c31 -32 49 -75 49 -120c0 -80 -56 -146 -136 -175l148 -254h-129l-134 242h-220v-242zM449 513h-236v-171h256c55 0 103 40 103 87c0 19 -8 38 -22 52c-25 26 -60 32 -101 32zM793 484h95c5 -24 7 -44 7 -68c22 32 77 83 164 83
c123 0 232 -102 232 -257c0 -156 -110 -257 -232 -257c-55 0 -105 20 -154 74v-266h-103v558c0 42 0 87 -9 133zM1043 75c76 0 134 65 134 166s-58 167 -137 167c-66 0 -119 -47 -135 -68v-198c40 -41 90 -67 138 -67z" />
    <glyph glyph-name="Rupee.pl" horiz-adv-x="849" 
d="M117 356v70h449c-4 21 -11 38 -23 52c-20 23 -52 35 -96 35h-329v100h658v-70h-157c36 -30 55 -70 61 -117h96v-70h-96c-6 -56 -30 -96 -63 -129c-40 -33 -83 -49 -170 -49l-114 8l332 -186h-205l-342 197v72h328c39 0 71 10 93 33c13 13 22 31 27 54h-449z" />
    <glyph glyph-name="section.pl" horiz-adv-x="689" 
d="M656 226c0 -50 -20 -91 -51 -122c-18 -18 -39 -32 -63 -44c5 -6 9 -14 13 -21c8 -16 13 -35 13 -58c0 -116 -125 -156 -227 -156c-75 0 -157 20 -215 54l48 77c43 -24 107 -41 167 -41c42 0 115 11 115 63c0 12 -3 21 -10 28c-23 22 -77 24 -131 30
c-66 7 -177 24 -239 87c-28 27 -46 63 -46 111c0 50 20 90 51 121c17 18 39 32 62 44c-5 6 -9 12 -12 19c-8 17 -13 37 -13 61c0 116 124 156 227 156c75 0 157 -20 215 -54l-48 -77c-43 24 -107 41 -167 41c-37 0 -115 -8 -115 -63c0 -12 3 -21 10 -28
c23 -22 77 -24 131 -30c67 -7 178 -25 239 -87c28 -27 46 -63 46 -111zM370 326c-46 5 -112 9 -164 30c-9 -6 -17 -13 -25 -21c-24 -24 -39 -53 -39 -87c-1 -27 10 -48 26 -63c34 -35 98 -46 148 -51c46 -5 112 -9 164 -30c9 6 17 13 25 21c24 24 39 53 39 87
c1 27 -10 48 -26 63c-34 35 -98 46 -148 51z" />
    <glyph glyph-name="numbersign.pl" horiz-adv-x="889" 
d="M596 666h83l-34 -193h205v-80h-219l-34 -194h194v-80h-208l-39 -223h-83l39 223h-177l-39 -223h-83l39 223h-203v80h217l34 194h-192v80h206l34 193h83l-34 -193h177zM371 393l-34 -194h177l34 194h-177z" />
    <glyph glyph-name="percent.pl" horiz-adv-x="1055" 
d="M669 653h88l-370 -653h-89zM39 481c0 102 89 188 201 188c111 0 204 -86 204 -188c0 -104 -93 -189 -204 -189c-112 0 -201 85 -201 189zM135 481c0 -56 47 -103 105 -103c59 0 108 47 108 103s-49 102 -108 102c-58 0 -105 -46 -105 -102zM611 173c0 102 89 188 201 188
c111 0 204 -86 204 -188c0 -104 -93 -189 -204 -189c-112 0 -201 85 -201 189zM707 173c0 -56 47 -103 105 -103c59 0 108 47 108 103s-49 102 -108 102c-58 0 -105 -46 -105 -102z" />
    <glyph glyph-name="perthousand.pl" horiz-adv-x="1503" 
d="M669 653h88l-370 -653h-89zM39 481c0 102 89 188 201 188c111 0 204 -86 204 -188c0 -104 -93 -189 -204 -189c-112 0 -201 85 -201 189zM135 481c0 -56 47 -103 105 -103c59 0 108 47 108 103s-49 102 -108 102c-58 0 -105 -46 -105 -102zM611 173c0 102 89 188 201 188
c111 0 204 -86 204 -188c0 -104 -93 -189 -204 -189c-112 0 -201 85 -201 189zM707 173c0 -56 47 -103 105 -103c59 0 108 47 108 103s-49 102 -108 102c-58 0 -105 -46 -105 -102zM1066 173c0 102 89 188 201 188c111 0 204 -86 204 -188c0 -104 -93 -189 -204 -189
c-112 0 -201 85 -201 189zM1162 173c0 -56 47 -103 105 -103c59 0 108 47 108 103s-49 102 -108 102c-58 0 -105 -46 -105 -102z" />
    <glyph glyph-name="zero.tl" horiz-adv-x="770" 
d="M50 307c0 181 152 326 334 326s336 -145 336 -326c0 -183 -154 -327 -336 -327s-334 144 -334 327zM162 307c0 -125 99 -227 222 -227c122 0 224 102 224 227c0 124 -102 226 -224 226c-123 0 -222 -102 -222 -226z" />
    <glyph glyph-name="one.tl" horiz-adv-x="770" 
d="M134 0v90h243v422l-243 -69l-25 90l268 80h112v-523h206v-90h-561z" />
    <glyph glyph-name="two.tl" horiz-adv-x="770" 
d="M153 444l-66 78c83 56 169 111 315 111c144 0 290 -52 290 -173c0 -146 -190 -182 -297 -210c-111 -26 -205 -63 -205 -154v-6h489v-90h-601v86c0 154 154 227 312 263c52 10 190 36 190 108c0 56 -89 76 -175 76c-114 0 -185 -40 -252 -89z" />
    <glyph glyph-name="three.tl" horiz-adv-x="770" 
d="M345 278v90h125c38 0 80 28 80 75c0 67 -84 90 -150 90c-94 0 -179 -47 -237 -98l-68 68c73 65 177 130 307 130c109 0 260 -46 260 -171c0 -65 -41 -110 -72 -123c46 -10 123 -49 123 -147c0 -137 -148 -212 -336 -212c-137 0 -247 39 -341 127l68 78
c66 -61 149 -105 273 -105c125 0 224 42 224 119c0 66 -81 79 -127 79h-129z" />
    <glyph glyph-name="four.tl" horiz-adv-x="770" 
d="M727 227v-90h-119v-137h-112v137h-465v78l479 398h98v-386h119zM198 231v-4h298v242h-11c-93 -78 -193 -160 -287 -238z" />
    <glyph glyph-name="five.tl" horiz-adv-x="770" 
d="M640 613v-100h-424v-155c61 36 116 57 214 57c142 0 286 -65 286 -201c0 -172 -173 -234 -337 -234c-171 0 -280 72 -336 116l68 78c43 -36 132 -94 269 -94c109 0 224 34 224 133c0 72 -87 107 -177 107c-108 0 -179 -33 -243 -69l-70 50v312h526z" />
    <glyph glyph-name="six.tl" horiz-adv-x="770" 
d="M687 558l-68 -78c-51 34 -121 53 -194 53c-132 0 -254 -79 -263 -218c64 41 161 88 281 88c184 0 270 -102 270 -196c0 -128 -122 -227 -296 -227c-183 0 -357 108 -357 317c0 211 173 336 367 336c146 0 229 -56 260 -75zM433 313c-104 0 -201 -45 -262 -80
c31 -101 134 -153 248 -153c107 0 182 62 182 129c0 47 -47 104 -168 104z" />
    <glyph glyph-name="seven.tl" horiz-adv-x="770" 
d="M53 513v100h658v-100l-410 -513h-147l428 513h-529z" />
    <glyph glyph-name="eight.tl" horiz-adv-x="770" 
d="M385 -22c-167 0 -328 72 -328 198c0 94 83 147 167 161c-81 13 -127 57 -127 128c0 116 161 170 288 170s288 -54 288 -170c0 -71 -44 -115 -128 -128c85 -14 168 -67 168 -161c0 -126 -162 -198 -328 -198zM385 78c102 0 206 37 206 108c0 72 -113 106 -206 106
s-206 -34 -206 -106c0 -71 104 -108 206 -108zM385 374c107 0 166 28 166 81c0 61 -92 90 -166 90s-166 -29 -166 -90c0 -53 59 -81 166 -81z" />
    <glyph glyph-name="nine.tl" horiz-adv-x="770" 
d="M81 55l68 78c51 -34 121 -53 194 -53c133 0 255 79 264 218c-64 -42 -162 -88 -282 -88c-185 0 -271 102 -271 196c0 128 123 227 297 227c184 0 359 -108 359 -317c0 -211 -174 -336 -369 -336c-146 0 -230 56 -260 75zM335 300c105 0 202 45 263 80
c-31 100 -135 153 -249 153c-107 0 -183 -62 -183 -129c0 -47 47 -104 169 -104z" />
    <glyph glyph-name="dollar.tl" horiz-adv-x="770" 
d="M344 733h75v-104c119 -13 213 -56 265 -91l-64 -74c-37 29 -104 61 -201 72v-160c122 -7 294 -32 294 -190c0 -146 -134 -204 -294 -206v-130h-75v133c-143 14 -240 72 -307 125l64 73c49 -38 126 -89 243 -104v201c-136 11 -270 36 -270 167c0 143 145 186 270 188v100z
M608 171c0 72 -79 92 -189 101v-199c104 1 189 30 189 98zM180 455c0 -59 93 -71 164 -76v161c-86 -1 -164 -21 -164 -85z" />
    <glyph glyph-name="cent.tl" horiz-adv-x="770" 
d="M451 593h76l-27 -103c65 -12 126 -35 179 -70l-69 -69c-39 24 -86 40 -134 49l-86 -325h12c96 0 167 31 212 67l70 -65c-25 -24 -122 -93 -282 -93c-12 0 -24 0 -36 1l-35 -135h-76l39 147c-130 32 -227 121 -227 246c0 154 147 256 328 256c10 0 20 0 31 -1zM180 243
c0 -77 57 -134 137 -157l85 322h-7c-119 0 -215 -65 -215 -165z" />
    <glyph glyph-name="Euro.tl" horiz-adv-x="770" 
d="M51 346v70h100c44 126 162 217 301 217c102 0 194 -37 259 -98l-68 -78c-48 47 -117 76 -191 76c-78 0 -146 -48 -181 -117h263v-70h-286c-2 -13 -3 -26 -3 -39s1 -24 2 -36h287v-70h-265c35 -72 104 -121 183 -121c77 0 150 33 200 85l68 -78
c-70 -66 -163 -107 -268 -107c-140 0 -259 93 -302 221h-99v70h84c-2 12 -2 24 -2 36c0 13 1 26 2 39h-84z" />
    <glyph glyph-name="sterling.tl" horiz-adv-x="770" 
d="M67 287v81h140v81c0 127 125 184 245 184c67 0 170 -32 252 -80l-56 -78c-65 34 -145 58 -196 58c-64 0 -133 -26 -133 -84v-81h264v-81h-264v-83c0 -71 -26 -102 -91 -114h475v-90h-636v90h42c73 0 98 20 98 114v83h-140z" />
    <glyph glyph-name="yen.tl" horiz-adv-x="770" 
d="M62 346v70h166l-145 197h142l165 -232l163 232h132l-146 -197h169v-70h-220l-48 -65v-10h268v-70h-268v-201h-112v201h-266v70h266v10l-48 65h-218z" />
    <glyph glyph-name="florin.tl" horiz-adv-x="770" 
d="M214 287v81h118l27 126c23 105 112 140 180 140c42 0 92 -12 111 -23l-37 -86c-12 9 -51 18 -74 18c-40 0 -69 -17 -77 -49l-27 -126h128v-81h-145l-61 -287c-29 -133 -127 -180 -217 -180v81c46 10 98 24 114 99l61 287h-101z" />
    <glyph glyph-name="colonmonetary.tl" horiz-adv-x="770" 
d="M543 733h65l-29 -132c54 -20 101 -50 140 -87l-71 -61c-27 23 -57 42 -90 56l-95 -430c79 14 150 60 200 111l69 -62c-69 -70 -172 -136 -290 -146l-29 -132h-66l29 133c-35 2 -68 9 -99 18l-33 -151h-65l39 176c-109 56 -175 160 -175 280c0 167 125 305 308 325l23 102
h66l-22 -100c34 -1 68 -5 100 -13zM298 95c29 -12 63 -20 99 -21l101 455c-32 8 -65 12 -100 12h-1zM155 306c0 -71 31 -135 85 -178l89 404c-104 -28 -174 -119 -174 -226z" />
    <glyph glyph-name="franc.tl" horiz-adv-x="770" 
d="M50 121v70h116v422h562v-100h-450v-122h274v-100h-274v-100h201v-70h-201v-121h-112v121h-116z" />
    <glyph glyph-name="lira.tl" horiz-adv-x="770" 
d="M74 346v70h138v33c0 127 124 184 243 184c66 0 168 -32 250 -80l-56 -78c-65 34 -144 58 -194 58c-63 0 -131 -26 -131 -84v-33h261v-70h-261v-75h261v-70h-261c-1 -69 -26 -99 -90 -111h470v-90h-630v90h41c71 0 96 19 97 111h-138v70h138v75h-138z" />
    <glyph glyph-name="peso.tl" horiz-adv-x="770" 
d="M32 356v70h97v187h291c69 0 132 -14 179 -65c29 -32 47 -73 53 -122h91v-70h-90c-6 -56 -30 -96 -63 -129c-40 -40 -83 -59 -170 -59h-179v-168h-112v356h-97zM420 513h-179v-87h298c-4 21 -11 38 -23 52c-20 23 -52 35 -96 35zM512 302c13 13 22 31 27 54h-298v-87h178
c39 0 71 10 93 33z" />
    <glyph glyph-name="Rupee.tl" horiz-adv-x="770" 
d="M65 356v70h449c-4 21 -11 38 -23 52c-20 23 -52 35 -96 35h-329v100h658v-70h-157c36 -30 55 -70 61 -117h96v-70h-96c-6 -56 -30 -96 -63 -129c-40 -33 -83 -49 -170 -49l-114 8l332 -186h-205l-342 197v72h328c39 0 71 10 93 33c13 13 22 31 27 54h-449z" />
    <glyph glyph-name="section.tl" horiz-adv-x="770" 
d="M663 104c-20 -18 -45 -32 -72 -44c6 -6 12 -14 16 -21c9 -16 15 -35 15 -58c0 -116 -133 -156 -241 -156c-80 0 -167 20 -229 54l48 77c47 -24 116 -41 181 -41c48 0 129 11 129 63c0 12 -4 21 -11 28c-26 22 -85 24 -146 30c-73 7 -189 24 -254 87
c-31 27 -50 63 -50 111c0 50 21 90 54 121c19 18 45 32 71 44c-6 6 -11 12 -15 19c-9 17 -14 37 -14 61c0 116 131 156 240 156c81 0 168 -20 230 -54l-48 -77c-47 24 -117 41 -182 41c-43 0 -128 -8 -128 -63c0 -12 3 -21 11 -28c26 -22 85 -24 145 -30
c75 -7 191 -25 255 -87c30 -27 49 -63 49 -111c0 -50 -21 -91 -54 -122zM412 326c-50 5 -120 9 -174 30c-13 -6 -25 -13 -35 -21c-26 -24 -42 -53 -42 -87c-1 -27 11 -48 29 -63c38 -35 107 -46 164 -51c51 -5 120 -9 174 -30c12 6 24 13 35 21c26 24 42 53 42 87
c1 27 -11 48 -29 63c-37 35 -107 46 -164 51z" />
    <glyph glyph-name="numbersign.tl" horiz-adv-x="770" 
d="M512 666h83l-30 -193h176v-80h-188l-30 -194h166v-80h-179l-34 -223h-82l34 223h-145l-34 -223h-83l34 223h-174v80h187l30 194h-165v80h177l30 193h82l-30 -193h145zM325 393l-30 -194h145l30 194h-145z" />
    <glyph glyph-name="percent.tl" horiz-adv-x="770" 
d="M11 481c0 102 68 188 153 188s155 -86 155 -188c0 -104 -70 -189 -155 -189s-153 85 -153 189zM570 653l-282 -653h-88l283 653h87zM97 481c0 -56 31 -103 67 -103c38 0 70 47 70 103s-32 102 -70 102c-36 0 -67 -46 -67 -102zM450 173c0 102 68 188 153 188
s155 -86 155 -188c0 -104 -70 -189 -155 -189s-153 85 -153 189zM536 173c0 -56 31 -103 67 -103c38 0 70 47 70 103s-32 102 -70 102c-36 0 -67 -46 -67 -102z" />
    <glyph glyph-name="zero.superior" unicode="&#x2070;" horiz-adv-x="579" 
d="M38 437c0 129 114 232 250 232c138 0 253 -103 253 -232c0 -131 -115 -233 -253 -233c-136 0 -250 102 -250 233zM135 437c0 -80 68 -146 153 -146s156 66 156 146c0 79 -71 145 -156 145s-153 -66 -153 -145z" />
    <glyph glyph-name="one.superior" unicode="&#xb9;" horiz-adv-x="323" 
d="M31 520l-21 78l129 55h98v-433h-98v345z" />
    <glyph glyph-name="two.superior" unicode="&#xb2;" horiz-adv-x="477" 
d="M102 519l-58 68c55 41 110 82 206 82c92 0 186 -37 186 -125c0 -108 -126 -135 -190 -154c-57 -17 -103 -38 -103 -91v-1h282v-78h-379v70c0 108 96 161 197 186c17 4 95 23 95 66c0 31 -44 40 -85 40c-68 0 -111 -28 -151 -63z" />
    <glyph glyph-name="three.superior" unicode="&#xb3;" horiz-adv-x="534" 
d="M236 408v78h87c27 0 43 18 43 43c0 40 -49 53 -88 53c-62 0 -119 -32 -158 -68l-59 59c52 48 126 96 219 96c76 0 184 -33 184 -123c0 -44 -24 -76 -41 -85c28 -7 74 -35 74 -103c0 -100 -104 -154 -234 -154c-97 0 -175 28 -241 93l59 68c44 -43 99 -74 181 -74
c76 0 138 25 138 73c0 38 -43 44 -76 44h-88z" />
    <glyph glyph-name="four.superior" unicode="&#x2074;" horiz-adv-x="572" 
d="M538 390v-79h-85v-91h-98v91h-329v66l344 276h83v-263h85zM172 392v-2h183v137h-8c-57 -45 -118 -90 -175 -135z" />
    <glyph glyph-name="five.superior" unicode="&#x2075;" horiz-adv-x="522" 
d="M433 653v-87h-272v-91c40 26 75 40 138 40c95 0 192 -49 192 -143c0 -124 -120 -168 -234 -168c-116 0 -190 35 -228 56l49 78c29 -18 88 -47 180 -47c66 0 136 19 136 81c0 38 -48 60 -97 60c-74 0 -122 -24 -164 -50l-61 42v229h361z" />
    <glyph glyph-name="six.superior" unicode="&#x2076;" horiz-adv-x="539" 
d="M490 618l-59 -68c-34 21 -83 32 -132 32c-85 0 -161 -48 -170 -133c45 28 108 57 186 57c128 0 188 -70 188 -138c0 -94 -85 -164 -208 -164c-130 0 -256 77 -256 226c0 150 122 239 262 239c107 0 169 -40 189 -51zM307 428c-65 0 -126 -27 -169 -50
c25 -58 89 -87 159 -87c65 0 109 38 109 79c0 26 -27 58 -99 58z" />
    <glyph glyph-name="seven.superior" unicode="&#x2077;" horiz-adv-x="482" 
d="M31 566v87h419v-87l-245 -346h-128l261 346h-307z" />
    <glyph glyph-name="eight.superior" unicode="&#x2078;" horiz-adv-x="541" 
d="M271 203c-122 0 -233 51 -233 141c0 66 51 103 103 112c-51 9 -79 40 -79 91c0 84 117 123 209 123c91 0 208 -39 208 -123c0 -51 -26 -82 -80 -91c53 -9 104 -46 104 -112c0 -90 -112 -141 -232 -141zM271 290c64 0 126 21 126 63c0 43 -70 64 -126 64
c-57 0 -127 -21 -127 -64c0 -42 62 -63 127 -63zM271 488c66 0 102 17 102 50c0 36 -57 54 -102 54c-46 0 -103 -18 -103 -54c0 -33 36 -50 103 -50z" />
    <glyph glyph-name="nine.superior" unicode="&#x2079;" horiz-adv-x="539" 
d="M49 255l59 68c35 -21 83 -32 132 -32c84 0 162 48 171 133c-45 -28 -109 -57 -187 -57c-128 0 -188 70 -188 138c0 94 85 164 208 164c130 0 256 -77 256 -226c0 -150 -122 -239 -262 -239c-106 0 -168 40 -189 51zM233 445c64 0 125 26 168 50c-25 57 -89 87 -159 87
c-64 0 -109 -38 -109 -79c0 -26 27 -58 100 -58z" />
    <glyph glyph-name="zero.inferior" unicode="&#x2080;" horiz-adv-x="577" 
d="M37 49c0 129 114 232 250 232c138 0 253 -103 253 -232c0 -131 -115 -233 -253 -233c-136 0 -250 102 -250 233zM134 49c0 -80 68 -146 153 -146s156 66 156 146c0 79 -71 145 -156 145s-153 -66 -153 -145z" />
    <glyph glyph-name="one.inferior" unicode="&#x2081;" horiz-adv-x="320" 
d="M29 132l-21 78l129 55h98v-433h-98v345z" />
    <glyph glyph-name="two.inferior" unicode="&#x2082;" horiz-adv-x="476" 
d="M101 131l-58 68c55 41 110 82 206 82c92 0 186 -37 186 -125c0 -108 -126 -135 -190 -154c-57 -17 -103 -38 -103 -91v-1h282v-78h-379v70c0 108 96 161 197 186c17 4 95 23 95 66c0 31 -44 40 -85 40c-68 0 -111 -28 -151 -63z" />
    <glyph glyph-name="three.inferior" unicode="&#x2083;" horiz-adv-x="534" 
d="M235 20v78h87c27 0 43 18 43 43c0 40 -49 53 -88 53c-62 0 -119 -32 -158 -68l-59 59c52 48 126 96 219 96c76 0 184 -33 184 -123c0 -44 -24 -76 -41 -85c28 -7 74 -35 74 -103c0 -100 -104 -154 -234 -154c-97 0 -175 28 -241 93l59 68c44 -43 99 -74 181 -74
c76 0 138 25 138 73c0 38 -43 44 -76 44h-88z" />
    <glyph glyph-name="four.inferior" unicode="&#x2084;" horiz-adv-x="569" 
d="M538 2v-79h-85v-91h-98v91h-329v66l344 276h83v-263h85zM172 4v-2h183v137h-8c-57 -45 -118 -90 -175 -135z" />
    <glyph glyph-name="five.inferior" unicode="&#x2085;" horiz-adv-x="522" 
d="M433 265v-87h-272v-91c40 26 75 40 138 40c95 0 192 -49 192 -143c0 -124 -120 -168 -234 -168c-116 0 -190 35 -228 56l49 78c29 -18 88 -47 180 -47c66 0 136 19 136 81c0 38 -48 60 -97 60c-74 0 -122 -24 -164 -50l-61 42v229h361z" />
    <glyph glyph-name="six.inferior" unicode="&#x2086;" horiz-adv-x="538" 
d="M489 230l-59 -68c-34 21 -83 32 -132 32c-85 0 -161 -48 -170 -133c45 28 108 57 186 57c128 0 188 -70 188 -138c0 -94 -85 -164 -208 -164c-130 0 -256 77 -256 226c0 150 122 239 262 239c107 0 169 -40 189 -51zM306 40c-65 0 -126 -27 -169 -50
c25 -57 89 -87 159 -87c65 0 109 38 109 79c0 26 -27 58 -99 58z" />
    <glyph glyph-name="seven.inferior" unicode="&#x2087;" horiz-adv-x="477" 
d="M31 178v87h419v-87l-245 -346h-128l261 346h-307z" />
    <glyph glyph-name="eight.inferior" unicode="&#x2088;" horiz-adv-x="541" 
d="M271 -185c-122 0 -233 51 -233 141c0 66 51 103 103 112c-51 9 -79 40 -79 91c0 84 117 123 209 123c91 0 208 -39 208 -123c0 -51 -26 -82 -80 -91c53 -9 104 -46 104 -112c0 -90 -112 -141 -232 -141zM271 -98c64 0 126 21 126 63c0 43 -70 64 -126 64
c-57 0 -127 -21 -127 -64c0 -42 62 -63 127 -63zM271 100c66 0 102 17 102 50c0 36 -57 54 -102 54c-46 0 -103 -18 -103 -54c0 -33 36 -50 103 -50z" />
    <glyph glyph-name="nine.inferior" unicode="&#x2089;" horiz-adv-x="538" 
d="M49 -133l59 68c35 -21 83 -32 132 -32c84 0 162 48 171 133c-45 -28 -109 -57 -187 -57c-128 0 -188 70 -188 138c0 94 85 164 208 164c130 0 256 -77 256 -226c0 -150 -122 -239 -262 -239c-106 0 -168 40 -189 51zM233 57c64 0 125 26 168 50c-25 57 -89 87 -159 87
c-64 0 -109 -38 -109 -79c0 -26 27 -58 100 -58z" />
    <glyph glyph-name="zero.numerator" horiz-adv-x="577" 
d="M37 437c0 129 114 232 250 232c138 0 253 -103 253 -232c0 -131 -115 -233 -253 -233c-136 0 -250 102 -250 233zM134 437c0 -80 68 -146 153 -146s156 66 156 146c0 79 -71 145 -156 145s-153 -66 -153 -145z" />
    <glyph glyph-name="one.numerator" horiz-adv-x="320" 
d="M29 520l-21 78l129 55h98v-433h-98v345z" />
    <glyph glyph-name="two.numerator" horiz-adv-x="476" 
d="M101 519l-58 68c55 41 110 82 206 82c92 0 186 -37 186 -125c0 -108 -126 -135 -190 -154c-57 -17 -103 -38 -103 -91v-1h282v-78h-379v70c0 108 96 161 197 186c17 4 95 23 95 66c0 31 -44 40 -85 40c-68 0 -111 -28 -151 -63z" />
    <glyph glyph-name="three.numerator" horiz-adv-x="535" 
d="M236 408v78h87c27 0 43 18 43 43c0 40 -49 53 -88 53c-62 0 -119 -32 -158 -68l-59 59c52 48 126 96 219 96c76 0 184 -33 184 -123c0 -44 -24 -76 -41 -85c28 -7 74 -35 74 -103c0 -100 -104 -154 -234 -154c-97 0 -175 28 -241 93l59 68c44 -43 99 -74 181 -74
c76 0 138 25 138 73c0 38 -43 44 -76 44h-88z" />
    <glyph glyph-name="four.numerator" horiz-adv-x="569" 
d="M538 390v-79h-85v-91h-98v91h-329v66l344 276h83v-263h85zM172 392v-2h183v137h-8c-57 -45 -118 -90 -175 -135z" />
    <glyph glyph-name="five.numerator" horiz-adv-x="522" 
d="M433 653v-87h-272v-91c40 26 75 40 138 40c95 0 192 -49 192 -143c0 -124 -120 -168 -234 -168c-116 0 -190 35 -228 56l49 78c29 -18 88 -47 180 -47c66 0 136 19 136 81c0 38 -48 60 -97 60c-74 0 -122 -24 -164 -50l-61 42v229h361z" />
    <glyph glyph-name="six.numerator" horiz-adv-x="537" 
d="M489 618l-59 -68c-34 21 -83 32 -132 32c-85 0 -161 -48 -170 -133c45 28 108 57 186 57c128 0 188 -70 188 -138c0 -94 -85 -164 -208 -164c-130 0 -256 77 -256 226c0 150 122 239 262 239c107 0 169 -40 189 -51zM306 428c-65 0 -126 -27 -169 -50
c25 -58 89 -87 159 -87c65 0 109 38 109 79c0 26 -27 58 -99 58z" />
    <glyph glyph-name="seven.numerator" horiz-adv-x="477" 
d="M31 566v87h419v-87l-245 -346h-128l261 346h-307z" />
    <glyph glyph-name="eight.numerator" horiz-adv-x="541" 
d="M271 203c-122 0 -233 51 -233 141c0 66 51 103 103 112c-51 9 -79 40 -79 91c0 84 117 123 209 123c91 0 208 -39 208 -123c0 -51 -26 -82 -80 -91c53 -9 104 -46 104 -112c0 -90 -112 -141 -232 -141zM271 290c64 0 126 21 126 63c0 43 -70 64 -126 64
c-57 0 -127 -21 -127 -64c0 -42 62 -63 127 -63zM271 488c66 0 102 17 102 50c0 36 -57 54 -102 54c-46 0 -103 -18 -103 -54c0 -33 36 -50 103 -50z" />
    <glyph glyph-name="nine.numerator" horiz-adv-x="538" 
d="M49 255l59 68c35 -21 83 -32 132 -32c84 0 162 48 171 133c-45 -28 -109 -57 -187 -57c-128 0 -188 70 -188 138c0 94 85 164 208 164c130 0 256 -77 256 -226c0 -150 -122 -239 -262 -239c-106 0 -168 40 -189 51zM233 445c64 0 125 26 168 50c-25 57 -89 87 -159 87
c-64 0 -109 -38 -109 -79c0 -26 27 -58 100 -58z" />
    <glyph glyph-name="zero.denominator" horiz-adv-x="577" 
d="M37 217c0 129 114 232 250 232c138 0 253 -103 253 -232c0 -131 -115 -233 -253 -233c-136 0 -250 102 -250 233zM134 217c0 -80 68 -146 153 -146s156 66 156 146c0 79 -71 145 -156 145s-153 -66 -153 -145z" />
    <glyph glyph-name="one.denominator" horiz-adv-x="320" 
d="M29 300l-21 78l129 55h98v-433h-98v345z" />
    <glyph glyph-name="two.denominator" horiz-adv-x="476" 
d="M101 299l-58 68c55 41 110 82 206 82c92 0 186 -37 186 -125c0 -108 -126 -135 -190 -154c-57 -17 -103 -38 -103 -91v-1h282v-78h-379v70c0 108 96 161 197 186c17 4 95 23 95 66c0 31 -44 40 -85 40c-68 0 -111 -28 -151 -63z" />
    <glyph glyph-name="three.denominator" horiz-adv-x="534" 
d="M235 188v78h87c27 0 43 18 43 43c0 40 -49 53 -88 53c-62 0 -119 -32 -158 -68l-59 59c52 48 126 96 219 96c76 0 184 -33 184 -123c0 -44 -24 -76 -41 -85c28 -7 74 -35 74 -103c0 -100 -104 -154 -234 -154c-97 0 -175 28 -241 93l59 68c44 -43 99 -74 181 -74
c76 0 138 25 138 73c0 38 -43 44 -76 44h-88z" />
    <glyph glyph-name="four.denominator" horiz-adv-x="569" 
d="M538 170v-79h-85v-91h-98v91h-329v66l344 276h83v-263h85zM172 172v-2h183v137h-8c-57 -45 -118 -90 -175 -135z" />
    <glyph glyph-name="five.denominator" horiz-adv-x="522" 
d="M433 433v-87h-272v-91c40 26 75 40 138 40c95 0 192 -49 192 -143c0 -124 -120 -168 -234 -168c-116 0 -190 35 -228 56l49 78c29 -18 88 -47 180 -47c66 0 136 19 136 81c0 38 -48 60 -97 60c-74 0 -122 -24 -164 -50l-61 42v229h361z" />
    <glyph glyph-name="six.denominator" horiz-adv-x="538" 
d="M489 398l-59 -68c-34 21 -83 32 -132 32c-85 0 -161 -48 -170 -133c45 28 108 57 186 57c128 0 188 -70 188 -138c0 -94 -85 -164 -208 -164c-130 0 -256 77 -256 226c0 150 122 239 262 239c107 0 169 -40 189 -51zM306 208c-65 0 -126 -27 -169 -50
c25 -58 89 -87 159 -87c65 0 109 38 109 79c0 26 -27 58 -99 58z" />
    <glyph glyph-name="seven.denominator" horiz-adv-x="477" 
d="M31 346v87h419v-87l-245 -346h-128l261 346h-307z" />
    <glyph glyph-name="eight.denominator" horiz-adv-x="541" 
d="M271 -17c-122 0 -233 51 -233 141c0 66 51 103 103 112c-51 9 -79 40 -79 91c0 84 117 123 209 123c91 0 208 -39 208 -123c0 -51 -26 -82 -80 -91c53 -9 104 -46 104 -112c0 -90 -112 -141 -232 -141zM271 70c64 0 126 21 126 63c0 43 -70 64 -126 64
c-57 0 -127 -21 -127 -64c0 -42 62 -63 127 -63zM271 268c66 0 102 17 102 50c0 36 -57 54 -102 54c-46 0 -103 -18 -103 -54c0 -33 36 -50 103 -50z" />
    <glyph glyph-name="nine.denominator" horiz-adv-x="538" 
d="M49 35l59 68c35 -21 83 -32 132 -32c84 0 162 48 171 133c-45 -28 -109 -57 -187 -57c-128 0 -188 70 -188 138c0 94 85 164 208 164c130 0 256 -77 256 -226c0 -150 -122 -239 -262 -239c-106 0 -168 40 -189 51zM233 225c64 0 125 26 168 50c-25 57 -89 87 -159 87
c-64 0 -109 -38 -109 -79c0 -26 27 -58 100 -58z" />
    <glyph glyph-name="onehalf" unicode="&#xbd;" horiz-adv-x="1016" 
d="M29 520l-21 78l129 55h98v-433h-98v345zM573 653h88l-370 -653h-89zM641 299l-58 68c55 41 110 82 206 82c92 0 186 -37 186 -125c0 -108 -126 -135 -190 -154c-57 -17 -103 -38 -103 -91v-1h282v-78h-379v70c0 108 96 161 197 186c17 4 95 23 95 66c0 31 -44 40 -85 40
c-68 0 -111 -28 -151 -63z" />
    <glyph glyph-name="onequarter" unicode="&#xbc;" horiz-adv-x="1068" 
d="M29 520l-21 78l129 55h98v-433h-98v345zM573 653h88l-370 -653h-89zM1037 170v-79h-85v-91h-98v91h-329v66l344 276h83v-263h85zM671 172v-2h183v137h-8c-57 -45 -118 -90 -175 -135z" />
    <glyph glyph-name="threequarters" unicode="&#xbe;" horiz-adv-x="1283" 
d="M236 408v78h87c27 0 43 18 43 43c0 40 -49 53 -88 53c-62 0 -119 -32 -158 -68l-59 59c52 48 126 96 219 96c76 0 184 -33 184 -123c0 -44 -24 -76 -41 -85c28 -7 74 -35 74 -103c0 -100 -104 -154 -234 -154c-97 0 -175 28 -241 93l59 68c44 -43 99 -74 181 -74
c76 0 138 25 138 73c0 38 -43 44 -76 44h-88zM788 653h88l-370 -653h-89zM1252 170v-79h-85v-91h-98v91h-329v66l344 276h83v-263h85zM886 172v-2h183v137h-8c-57 -45 -118 -90 -175 -135z" />
    <glyph glyph-name="onethird" unicode="&#x2153;" horiz-adv-x="1074" 
d="M29 520l-21 78l129 55h98v-433h-98v345zM573 653h88l-370 -653h-89zM775 188v78h87c27 0 43 18 43 43c0 40 -49 53 -88 53c-62 0 -119 -32 -158 -68l-59 59c52 48 126 96 219 96c76 0 184 -33 184 -123c0 -44 -24 -76 -41 -85c28 -7 74 -35 74 -103
c0 -100 -104 -154 -234 -154c-97 0 -175 28 -241 93l59 68c44 -43 99 -74 181 -74c76 0 138 25 138 73c0 38 -43 44 -76 44h-88z" />
    <glyph glyph-name="twothirds" unicode="&#x2154;" horiz-adv-x="1230" 
d="M101 519l-58 68c55 41 110 82 206 82c92 0 186 -37 186 -125c0 -108 -126 -135 -190 -154c-57 -17 -103 -38 -103 -91v-1h282v-78h-379v70c0 108 96 161 197 186c17 4 95 23 95 66c0 31 -44 40 -85 40c-68 0 -111 -28 -151 -63zM729 653h88l-370 -653h-89zM931 188v78h87
c27 0 43 18 43 43c0 40 -49 53 -88 53c-62 0 -119 -32 -158 -68l-59 59c52 48 126 96 219 96c76 0 184 -33 184 -123c0 -44 -24 -76 -41 -85c28 -7 74 -35 74 -103c0 -100 -104 -154 -234 -154c-97 0 -175 28 -241 93l59 68c44 -43 99 -74 181 -74c76 0 138 25 138 73
c0 38 -43 44 -76 44h-88z" />
    <glyph glyph-name="oneeighth" unicode="&#x215b;" horiz-adv-x="1081" 
d="M29 520l-21 78l129 55h98v-433h-98v345zM573 653h88l-370 -653h-89zM811 -17c-122 0 -233 51 -233 141c0 66 51 103 103 112c-51 9 -79 40 -79 91c0 84 117 123 209 123c91 0 208 -39 208 -123c0 -51 -26 -82 -80 -91c53 -9 104 -46 104 -112c0 -90 -112 -141 -232 -141z
M811 70c64 0 126 21 126 63c0 43 -70 64 -126 64c-57 0 -127 -21 -127 -64c0 -42 62 -63 127 -63zM811 268c66 0 102 17 102 50c0 36 -57 54 -102 54c-46 0 -103 -18 -103 -54c0 -33 36 -50 103 -50z" />
    <glyph glyph-name="threeeighths" unicode="&#x215c;" horiz-adv-x="1296" 
d="M236 408v78h87c27 0 43 18 43 43c0 40 -49 53 -88 53c-62 0 -119 -32 -158 -68l-59 59c52 48 126 96 219 96c76 0 184 -33 184 -123c0 -44 -24 -76 -41 -85c28 -7 74 -35 74 -103c0 -100 -104 -154 -234 -154c-97 0 -175 28 -241 93l59 68c44 -43 99 -74 181 -74
c76 0 138 25 138 73c0 38 -43 44 -76 44h-88zM788 653h88l-370 -653h-89zM1026 -17c-122 0 -233 51 -233 141c0 66 51 103 103 112c-51 9 -79 40 -79 91c0 84 117 123 209 123c91 0 208 -39 208 -123c0 -51 -26 -82 -80 -91c53 -9 104 -46 104 -112
c0 -90 -112 -141 -232 -141zM1026 70c64 0 126 21 126 63c0 43 -70 64 -126 64c-57 0 -127 -21 -127 -64c0 -42 62 -63 127 -63zM1026 268c66 0 102 17 102 50c0 36 -57 54 -102 54c-46 0 -103 -18 -103 -54c0 -33 36 -50 103 -50z" />
    <glyph glyph-name="fiveeighths" unicode="&#x215d;" horiz-adv-x="1283" 
d="M433 653v-87h-272v-91c40 26 75 40 138 40c95 0 192 -49 192 -143c0 -124 -120 -168 -234 -168c-116 0 -190 35 -228 56l49 78c29 -18 88 -47 180 -47c66 0 136 19 136 81c0 38 -48 60 -97 60c-74 0 -122 -24 -164 -50l-61 42v229h361zM775 653h88l-370 -653h-89z
M1013 -17c-122 0 -233 51 -233 141c0 66 51 103 103 112c-51 9 -79 40 -79 91c0 84 117 123 209 123c91 0 208 -39 208 -123c0 -51 -26 -82 -80 -91c53 -9 104 -46 104 -112c0 -90 -112 -141 -232 -141zM1013 70c64 0 126 21 126 63c0 43 -70 64 -126 64
c-57 0 -127 -21 -127 -64c0 -42 62 -63 127 -63zM1013 268c66 0 102 17 102 50c0 36 -57 54 -102 54c-46 0 -103 -18 -103 -54c0 -33 36 -50 103 -50z" />
    <glyph glyph-name="seveneighths" unicode="&#x215e;" horiz-adv-x="1186" 
d="M31 566v87h419v-87l-245 -346h-128l261 346h-307zM678 653h88l-370 -653h-89zM916 -17c-122 0 -233 51 -233 141c0 66 51 103 103 112c-51 9 -79 40 -79 91c0 84 117 123 209 123c91 0 208 -39 208 -123c0 -51 -26 -82 -80 -91c53 -9 104 -46 104 -112
c0 -90 -112 -141 -232 -141zM916 70c64 0 126 21 126 63c0 43 -70 64 -126 64c-57 0 -127 -21 -127 -64c0 -42 62 -63 127 -63zM916 268c66 0 102 17 102 50c0 36 -57 54 -102 54c-46 0 -103 -18 -103 -54c0 -33 36 -50 103 -50z" />
    <glyph glyph-name="fraction" unicode="&#x2044;" horiz-adv-x="220" 
d="M253 653h88l-370 -653h-89z" />
    <glyph glyph-name="Aacute" unicode="&#xc1;" horiz-adv-x="756" 
d="M24 0l303 653h102l303 -653h-123l-79 176h-311l-78 -176h-117zM372 519l-113 -253h231l-112 253h-6zM295 730l100 130h136l-137 -130h-99z" />
    <glyph glyph-name="Agrave" unicode="&#xc0;" horiz-adv-x="756" 
d="M24 0l303 653h102l303 -653h-123l-79 176h-311l-78 -176h-117zM372 519l-113 -253h231l-112 253h-6zM361 730l-136 130h136l100 -130h-100z" />
    <glyph glyph-name="Acircumflex" unicode="&#xc2;" horiz-adv-x="756" 
d="M24 0l303 653h102l303 -653h-123l-79 176h-311l-78 -176h-117zM372 519l-113 -253h231l-112 253h-6zM217 730l103 133h116l102 -133h-83l-77 74l-78 -74h-83z" />
    <glyph glyph-name="Adieresis" unicode="&#xc4;" horiz-adv-x="756" 
d="M24 0l303 653h102l303 -653h-123l-79 176h-311l-78 -176h-117zM372 519l-113 -253h231l-112 253h-6zM210 795c0 31 26 57 61 57s62 -27 62 -57c0 -32 -27 -56 -62 -56s-61 24 -61 56zM422 795c0 31 26 57 61 57s62 -27 62 -57c0 -32 -27 -56 -62 -56s-61 24 -61 56z" />
    <glyph glyph-name="Atilde" unicode="&#xc3;" horiz-adv-x="756" 
d="M24 0l303 653h102l303 -653h-123l-79 176h-311l-78 -176h-117zM372 519l-113 -253h231l-112 253h-6zM264 729l-67 36c38 65 72 88 114 88c28 0 48 -10 71 -26c19 -13 36 -26 55 -26c24 0 40 23 56 45l62 -34c-33 -59 -69 -89 -114 -89c-27 0 -52 11 -70 24
c-21 15 -36 28 -54 28c-24 0 -38 -25 -53 -46z" />
    <glyph glyph-name="Aring" unicode="&#xc5;" horiz-adv-x="756" 
d="M24 0l303 653h102l303 -653h-123l-79 176h-311l-78 -176h-117zM372 519l-113 -253h231l-112 253h-6zM311 796c0 -32 27 -54 64 -54c38 0 65 22 65 54c0 33 -27 59 -65 59c-37 0 -64 -26 -64 -59zM375 694c-82 0 -126 47 -126 102c0 56 44 105 126 105s128 -49 128 -105
c0 -55 -46 -102 -128 -102z" />
    <glyph glyph-name="Abreve" unicode="&#x102;" horiz-adv-x="756" 
d="M24 0l303 653h102l303 -653h-123l-79 176h-311l-78 -176h-117zM372 519l-113 -253h231l-112 253h-6zM228 861h75c0 -33 13 -70 75 -70s75 37 75 70h74c0 -61 -27 -140 -149 -140s-150 79 -150 140z" />
    <glyph glyph-name="Amacron" unicode="&#x100;" horiz-adv-x="756" 
d="M24 0l303 653h102l303 -653h-123l-79 176h-311l-78 -176h-117zM372 519l-113 -253h231l-112 253h-6zM247 835h261v-80h-261v80z" />
    <glyph glyph-name="Aogonek" unicode="&#x104;" horiz-adv-x="756" 
d="M24 0l303 653h102l303 -653h-37c-32 -14 -109 -51 -109 -106c0 -33 27 -52 69 -52c19 0 40 4 62 8l9 -64c-30 -8 -62 -12 -89 -12c-87 0 -141 40 -141 100c0 64 60 109 109 134l-75 168h-311l-78 -176h-117zM372 519l-113 -253h231l-112 253h-6z" />
    <glyph glyph-name="Aringacute" unicode="&#x1fa;" horiz-adv-x="756" 
d="M24 0l303 653h102l303 -653h-123l-79 176h-311l-78 -176h-117zM372 519l-113 -253h231l-112 253h-6zM311 796c0 -32 27 -54 64 -54c38 0 65 22 65 54c0 33 -27 59 -65 59c-37 0 -64 -26 -64 -59zM375 694c-82 0 -126 47 -126 102c0 56 44 105 126 105s128 -49 128 -105
c0 -55 -46 -102 -128 -102zM295 938l100 130h136l-137 -130h-99z" />
    <glyph glyph-name="Ccedilla" unicode="&#xc7;" horiz-adv-x="771" 
d="M659 190l75 -74c-69 -69 -176 -133 -314 -136l-15 -34c10 3 19 5 30 5c50 1 103 -27 103 -80c0 -59 -68 -97 -164 -97c-52 0 -98 11 -143 22l16 57c41 -8 83 -17 122 -17c46 0 76 12 76 36c0 22 -24 27 -47 27c-17 0 -31 -3 -43 -5l-27 32l27 58
c-183 24 -300 168 -300 343c0 189 143 346 352 346c119 0 233 -47 306 -115l-76 -75c-58 55 -148 90 -228 90c-143 0 -236 -112 -236 -247c0 -136 95 -246 241 -246c102 0 189 50 245 110z" />
    <glyph glyph-name="Cacute" unicode="&#x106;" horiz-adv-x="771" 
d="M659 190l75 -74c-70 -70 -180 -136 -322 -136c-215 0 -357 155 -357 347c0 189 143 346 352 346c119 0 233 -47 306 -115l-76 -75c-58 55 -148 90 -228 90c-143 0 -236 -112 -236 -247c0 -136 95 -246 241 -246c102 0 189 50 245 110zM327 730l100 130h136l-137 -130h-99
z" />
    <glyph glyph-name="Ccaron" unicode="&#x10c;" horiz-adv-x="771" 
d="M659 190l75 -74c-70 -70 -180 -136 -322 -136c-215 0 -357 155 -357 347c0 189 143 346 352 346c119 0 233 -47 306 -115l-76 -75c-58 55 -148 90 -228 90c-143 0 -236 -112 -236 -247c0 -136 95 -246 241 -246c102 0 189 50 245 110zM332 863l78 -74l77 74h83l-102 -133
h-116l-103 133h83z" />
    <glyph glyph-name="Ccircumflex" unicode="&#x108;" horiz-adv-x="771" 
d="M659 190l75 -74c-70 -70 -180 -136 -322 -136c-215 0 -357 155 -357 347c0 189 143 346 352 346c119 0 233 -47 306 -115l-76 -75c-58 55 -148 90 -228 90c-143 0 -236 -112 -236 -247c0 -136 95 -246 241 -246c102 0 189 50 245 110zM249 730l103 133h116l102 -133h-83
l-77 74l-78 -74h-83z" />
    <glyph glyph-name="Cdotaccent" unicode="&#x10a;" horiz-adv-x="771" 
d="M659 190l75 -74c-70 -70 -180 -136 -322 -136c-215 0 -357 155 -357 347c0 189 143 346 352 346c119 0 233 -47 306 -115l-76 -75c-58 55 -148 90 -228 90c-143 0 -236 -112 -236 -247c0 -136 95 -246 241 -246c102 0 189 50 245 110zM349 795c0 31 26 57 61 57
s62 -27 62 -57c0 -32 -27 -56 -62 -56s-61 24 -61 56z" />
    <glyph glyph-name="Dcaron" unicode="&#x10e;" horiz-adv-x="815" 
d="M426 0h-313v653h313c118 0 184 -33 240 -87c58 -60 89 -144 89 -239c0 -98 -34 -187 -96 -247c-56 -50 -115 -80 -233 -80zM225 100h196c83 0 111 19 150 51c42 42 67 106 67 176c0 68 -22 129 -63 171c-37 34 -72 55 -154 55h-196v-453zM311 863l78 -74l77 74h83
l-102 -133h-116l-103 133h83z" />
    <glyph glyph-name="Dcroat" unicode="&#x110;" horiz-adv-x="845" 
d="M43 291v90h100v272h313c118 0 184 -33 240 -87c58 -60 89 -144 89 -239c0 -98 -34 -187 -96 -247c-56 -50 -115 -80 -233 -80h-313v291h-100zM255 100h196c83 0 111 19 150 51c42 42 67 106 67 176c0 68 -22 129 -63 171c-37 34 -72 55 -154 55h-196v-172h192v-90h-192
v-191z" />
    <glyph glyph-name="Eacute" unicode="&#xc9;" horiz-adv-x="714" 
d="M476 391v-100h-251v-191h442v-100h-554v653h530v-100h-418v-162h251zM296 730l100 130h136l-137 -130h-99z" />
    <glyph glyph-name="Egrave" unicode="&#xc8;" horiz-adv-x="714" 
d="M476 391v-100h-251v-191h442v-100h-554v653h530v-100h-418v-162h251zM362 730l-136 130h136l100 -130h-100z" />
    <glyph glyph-name="Ecircumflex" unicode="&#xca;" horiz-adv-x="714" 
d="M476 391v-100h-251v-191h442v-100h-554v653h530v-100h-418v-162h251zM218 730l103 133h116l102 -133h-83l-77 74l-78 -74h-83z" />
    <glyph glyph-name="Edieresis" unicode="&#xcb;" horiz-adv-x="714" 
d="M476 391v-100h-251v-191h442v-100h-554v653h530v-100h-418v-162h251zM211 795c0 31 26 57 61 57s62 -27 62 -57c0 -32 -27 -56 -62 -56s-61 24 -61 56zM423 795c0 31 26 57 61 57s62 -27 62 -57c0 -32 -27 -56 -62 -56s-61 24 -61 56z" />
    <glyph glyph-name="Ebreve" unicode="&#x114;" horiz-adv-x="714" 
d="M476 391v-100h-251v-191h442v-100h-554v653h530v-100h-418v-162h251zM229 861h75c0 -33 13 -70 75 -70s75 37 75 70h74c0 -61 -27 -140 -149 -140s-150 79 -150 140z" />
    <glyph glyph-name="Ecaron" unicode="&#x11a;" horiz-adv-x="714" 
d="M476 391v-100h-251v-191h442v-100h-554v653h530v-100h-418v-162h251zM301 863l78 -74l77 74h83l-102 -133h-116l-103 133h83z" />
    <glyph glyph-name="Edotaccent" unicode="&#x116;" horiz-adv-x="714" 
d="M476 391v-100h-251v-191h442v-100h-554v653h530v-100h-418v-162h251zM318 795c0 31 26 57 61 57s62 -27 62 -57c0 -32 -27 -56 -62 -56s-61 24 -61 56z" />
    <glyph glyph-name="Emacron" unicode="&#x112;" horiz-adv-x="714" 
d="M476 391v-100h-251v-191h442v-100h-554v653h530v-100h-418v-162h251zM248 835h261v-80h-261v80z" />
    <glyph glyph-name="Eogonek" unicode="&#x118;" horiz-adv-x="714" 
d="M476 391v-100h-251v-191h442v-100h-31c-32 -14 -109 -51 -109 -106c0 -33 27 -52 69 -52c19 0 40 4 62 8l9 -64c-30 -8 -62 -12 -89 -12c-87 0 -141 40 -141 100c0 57 49 99 95 126h-419v653h530v-100h-418v-162h251z" />
    <glyph glyph-name="Gbreve" unicode="&#x11e;" horiz-adv-x="805" 
d="M715 555l-78 -70c-55 55 -148 88 -225 88c-141 0 -240 -112 -240 -247c0 -126 86 -246 251 -246c68 0 148 20 192 53v131h-205v100h307v-286c-82 -60 -198 -98 -301 -98c-207 0 -361 155 -361 347s156 346 356 346c104 0 215 -42 304 -118zM262 861h75
c0 -33 13 -70 75 -70s75 37 75 70h74c0 -61 -27 -140 -149 -140s-150 79 -150 140z" />
    <glyph glyph-name="Gcircumflex" unicode="&#x11c;" horiz-adv-x="805" 
d="M715 555l-78 -70c-55 55 -148 88 -225 88c-141 0 -240 -112 -240 -247c0 -126 86 -246 251 -246c68 0 148 20 192 53v131h-205v100h307v-286c-82 -60 -198 -98 -301 -98c-207 0 -361 155 -361 347s156 346 356 346c104 0 215 -42 304 -118zM251 730l103 133h116l102 -133
h-83l-77 74l-78 -74h-83z" />
    <glyph glyph-name="uni0122" unicode="&#x122;" horiz-adv-x="805" 
d="M715 555l-78 -70c-55 55 -148 88 -225 88c-141 0 -240 -112 -240 -247c0 -126 86 -246 251 -246c68 0 148 20 192 53v131h-205v100h307v-286c-82 -60 -198 -98 -301 -98c-207 0 -361 155 -361 347s156 346 356 346c104 0 215 -42 304 -118zM379 -63l84 21
c18 -16 44 -46 44 -92c0 -68 -62 -113 -160 -113c-26 0 -55 4 -85 12l9 64c21 -3 40 -6 58 -6c52 0 81 19 81 51c0 29 -17 50 -31 63z" />
    <glyph glyph-name="Gdotaccent" unicode="&#x120;" horiz-adv-x="805" 
d="M715 555l-78 -70c-55 55 -148 88 -225 88c-141 0 -240 -112 -240 -247c0 -126 86 -246 251 -246c68 0 148 20 192 53v131h-205v100h307v-286c-82 -60 -198 -98 -301 -98c-207 0 -361 155 -361 347s156 346 356 346c104 0 215 -42 304 -118zM351 795c0 31 26 57 61 57
s62 -27 62 -57c0 -32 -27 -56 -62 -56s-61 24 -61 56z" />
    <glyph glyph-name="Hbar" unicode="&#x126;" horiz-adv-x="821" 
d="M21 470v90h100v93h112v-93h355v93h112v-93h100v-90h-100v-470h-112v276h-355v-276h-112v470h-100zM233 376h355v94h-355v-94z" />
    <glyph glyph-name="Hcircumflex" unicode="&#x124;" horiz-adv-x="805" 
d="M225 0h-112v653h112v-247h355v247h112v-653h-112v306h-355v-306zM241 730l103 133h116l102 -133h-83l-77 74l-78 -74h-83z" />
    <glyph glyph-name="Iacute" unicode="&#xcd;" horiz-adv-x="338" 
d="M225 0h-112v653h112v-653zM86 730l100 130h136l-137 -130h-99z" />
    <glyph glyph-name="Igrave" unicode="&#xcc;" horiz-adv-x="338" 
d="M225 0h-112v653h112v-653zM152 860l100 -130h-100l-136 130h136z" />
    <glyph glyph-name="Icircumflex" unicode="&#xce;" horiz-adv-x="338" 
d="M225 0h-112v653h112v-653zM8 730l103 133h116l102 -133h-83l-77 74l-78 -74h-83z" />
    <glyph glyph-name="Idieresis" unicode="&#xcf;" horiz-adv-x="338" 
d="M225 0h-112v653h112v-653zM1 795c0 31 26 57 61 57s62 -27 62 -57c0 -32 -27 -56 -62 -56s-61 24 -61 56zM213 795c0 31 26 57 61 57s62 -27 62 -57c0 -32 -27 -56 -62 -56s-61 24 -61 56z" />
    <glyph glyph-name="Ibreve" unicode="&#x12c;" horiz-adv-x="338" 
d="M225 0h-112v653h112v-653zM19 861h75c0 -33 13 -70 75 -70s75 37 75 70h74c0 -61 -27 -140 -149 -140s-150 79 -150 140z" />
    <glyph glyph-name="Idotaccent" unicode="&#x130;" horiz-adv-x="338" 
d="M225 0h-112v653h112v-653zM108 795c0 31 26 57 61 57s62 -27 62 -57c0 -32 -27 -56 -62 -56s-61 24 -61 56z" />
    <glyph glyph-name="Imacron" unicode="&#x12a;" horiz-adv-x="338" 
d="M225 0h-112v653h112v-653zM38 835h261v-80h-261v80z" />
    <glyph glyph-name="Iogonek" unicode="&#x12e;" horiz-adv-x="338" 
d="M225 0c-32 -14 -109 -51 -109 -106c0 -33 27 -52 69 -52c19 0 40 4 62 8l9 -64c-30 -8 -62 -12 -89 -12c-87 0 -141 40 -141 100c0 57 49 99 95 126h-8v653h112v-653z" />
    <glyph glyph-name="Itilde" unicode="&#x128;" horiz-adv-x="338" 
d="M225 0h-112v653h112v-653zM55 729l-67 36c38 65 72 88 114 88c28 0 48 -10 71 -26c19 -13 36 -26 55 -26c24 0 40 23 56 45l62 -34c-33 -59 -69 -89 -114 -89c-27 0 -52 11 -70 24c-21 15 -36 28 -54 28c-24 0 -38 -25 -53 -46z" />
    <glyph glyph-name="IJ" unicode="&#x132;" horiz-adv-x="986" 
d="M225 0h-112v653h112v-653zM774 653h112v-421c0 -161 -114 -252 -273 -252c-164 0 -229 98 -262 167l93 49c21 -48 63 -116 168 -116c94 0 162 54 162 152v421z" />
    <glyph glyph-name="Jcircumflex" unicode="&#x134;" horiz-adv-x="648" 
d="M436 653h112v-421c0 -161 -114 -252 -273 -252c-164 0 -229 98 -262 167l93 49c21 -48 63 -116 168 -116c94 0 162 54 162 152v421zM333 730l103 133h116l102 -133h-83l-77 74l-78 -74h-83z" />
    <glyph glyph-name="uni0136" unicode="&#x136;" horiz-adv-x="766" 
d="M225 653v-323l341 323h139l-267 -250l325 -403h-145l-261 328l-132 -123v-205h-112v653h112zM368 -63l84 21c18 -16 44 -46 44 -92c0 -68 -62 -113 -160 -113c-26 0 -55 4 -85 12l9 64c21 -3 40 -6 58 -6c52 0 81 19 81 51c0 29 -17 50 -31 63z" />
    <glyph glyph-name="Lacute" unicode="&#x139;" horiz-adv-x="647" 
d="M113 653h112v-553h401v-100h-513v653zM86 730l100 130h136l-137 -130h-99z" />
    <glyph glyph-name="Lcaron" unicode="&#x13d;" horiz-adv-x="647" 
d="M113 0v653h112v-553h401v-100h-513zM415 474h-58v226h103c0 -93 -12 -158 -45 -226z" />
    <glyph glyph-name="uni013B" unicode="&#x13b;" horiz-adv-x="647" 
d="M113 653h112v-553h401v-100h-513v653zM309 -63l84 21c18 -16 44 -46 44 -92c0 -68 -62 -113 -160 -113c-26 0 -55 4 -85 12l9 64c21 -3 40 -6 58 -6c52 0 81 19 81 51c0 29 -17 50 -31 63z" />
    <glyph glyph-name="Ldot" unicode="&#x13f;" horiz-adv-x="664" 
d="M113 653h112v-553h401v-100h-513v653zM421 397c0 31 26 57 61 57s62 -27 62 -57c0 -32 -27 -56 -62 -56s-61 24 -61 56z" />
    <glyph glyph-name="Lslash" unicode="&#x141;" horiz-adv-x="671" 
d="M37 196v90l100 58v309h112v-245l203 118v-90l-203 -118v-218h401v-100h-513v254z" />
    <glyph glyph-name="Ntilde" unicode="&#xd1;" horiz-adv-x="815" 
d="M590 653h112v-653h-99l-377 453h-1v-453h-112v653h99l377 -453h1v453zM293 729l-67 36c38 65 72 88 114 88c28 0 48 -10 71 -26c19 -13 36 -26 55 -26c24 0 40 23 56 45l62 -34c-33 -59 -69 -89 -114 -89c-27 0 -52 11 -70 24c-21 15 -36 28 -54 28
c-24 0 -38 -25 -53 -46z" />
    <glyph glyph-name="Nacute" unicode="&#x143;" horiz-adv-x="815" 
d="M590 653h112v-653h-99l-377 453h-1v-453h-112v653h99l377 -453h1v453zM324 730l100 130h136l-137 -130h-99z" />
    <glyph glyph-name="Ncaron" unicode="&#x147;" horiz-adv-x="815" 
d="M590 653h112v-653h-99l-377 453h-1v-453h-112v653h99l377 -453h1v453zM329 863l78 -74l77 74h83l-102 -133h-116l-103 133h83z" />
    <glyph glyph-name="uni0145" unicode="&#x145;" horiz-adv-x="815" 
d="M590 653h112v-653h-99l-377 453h-1v-453h-112v653h99l377 -453h1v453zM371 -63l84 21c18 -16 44 -46 44 -92c0 -68 -62 -113 -160 -113c-26 0 -55 4 -85 12l9 64c21 -3 40 -6 58 -6c52 0 81 19 81 51c0 29 -17 50 -31 63z" />
    <glyph glyph-name="Eng" unicode="&#x14a;" horiz-adv-x="815" 
d="M590 653h112v-628c0 -161 -114 -252 -273 -252v100c91 0 157 52 161 144h-1l-363 436h-1v-453h-112v653h99l377 -453h1v453z" />
    <glyph glyph-name="Oacute" unicode="&#xd3;" horiz-adv-x="846" 
d="M55 328c0 191 161 345 367 345s370 -154 370 -345c0 -194 -164 -348 -370 -348s-367 154 -367 348zM173 328c0 -136 109 -248 249 -248c141 0 252 112 252 248c0 135 -111 245 -252 245c-140 0 -249 -110 -249 -245zM340 730l100 130h136l-137 -130h-99z" />
    <glyph glyph-name="Ograve" unicode="&#xd2;" horiz-adv-x="846" 
d="M55 328c0 191 161 345 367 345s370 -154 370 -345c0 -194 -164 -348 -370 -348s-367 154 -367 348zM173 328c0 -136 109 -248 249 -248c141 0 252 112 252 248c0 135 -111 245 -252 245c-140 0 -249 -110 -249 -245zM406 730l-136 130h136l100 -130h-100z" />
    <glyph glyph-name="Ocircumflex" unicode="&#xd4;" horiz-adv-x="846" 
d="M55 328c0 191 161 345 367 345s370 -154 370 -345c0 -194 -164 -348 -370 -348s-367 154 -367 348zM173 328c0 -136 109 -248 249 -248c141 0 252 112 252 248c0 135 -111 245 -252 245c-140 0 -249 -110 -249 -245zM262 730l103 133h116l102 -133h-83l-77 74l-78 -74
h-83z" />
    <glyph glyph-name="Odieresis" unicode="&#xd6;" horiz-adv-x="846" 
d="M55 328c0 191 161 345 367 345s370 -154 370 -345c0 -194 -164 -348 -370 -348s-367 154 -367 348zM173 328c0 -136 109 -248 249 -248c141 0 252 112 252 248c0 135 -111 245 -252 245c-140 0 -249 -110 -249 -245zM255 795c0 31 26 57 61 57s62 -27 62 -57
c0 -32 -27 -56 -62 -56s-61 24 -61 56zM467 795c0 31 26 57 61 57s62 -27 62 -57c0 -32 -27 -56 -62 -56s-61 24 -61 56z" />
    <glyph glyph-name="Otilde" unicode="&#xd5;" horiz-adv-x="846" 
d="M55 328c0 191 161 345 367 345s370 -154 370 -345c0 -194 -164 -348 -370 -348s-367 154 -367 348zM173 328c0 -136 109 -248 249 -248c141 0 252 112 252 248c0 135 -111 245 -252 245c-140 0 -249 -110 -249 -245zM309 729l-67 36c38 65 72 88 114 88
c28 0 48 -10 71 -26c19 -13 36 -26 55 -26c24 0 40 23 56 45l62 -34c-33 -59 -69 -89 -114 -89c-27 0 -52 11 -70 24c-21 15 -36 28 -54 28c-24 0 -38 -25 -53 -46z" />
    <glyph glyph-name="Obreve" unicode="&#x14e;" horiz-adv-x="846" 
d="M55 328c0 191 161 345 367 345s370 -154 370 -345c0 -194 -164 -348 -370 -348s-367 154 -367 348zM173 328c0 -136 109 -248 249 -248c141 0 252 112 252 248c0 135 -111 245 -252 245c-140 0 -249 -110 -249 -245zM273 861h75c0 -33 13 -70 75 -70s75 37 75 70h74
c0 -61 -27 -140 -149 -140s-150 79 -150 140z" />
    <glyph glyph-name="Ohungarumlaut" unicode="&#x150;" horiz-adv-x="846" 
d="M55 328c0 191 161 345 367 345s370 -154 370 -345c0 -194 -164 -348 -370 -348s-367 154 -367 348zM173 328c0 -136 109 -248 249 -248c141 0 252 112 252 248c0 135 -111 245 -252 245c-140 0 -249 -110 -249 -245zM355 727h-67l44 140h95zM531 727h-66l44 140h95z" />
    <glyph glyph-name="Omacron" unicode="&#x14c;" horiz-adv-x="846" 
d="M55 328c0 191 161 345 367 345s370 -154 370 -345c0 -194 -164 -348 -370 -348s-367 154 -367 348zM173 328c0 -136 109 -248 249 -248c141 0 252 112 252 248c0 135 -111 245 -252 245c-140 0 -249 -110 -249 -245zM292 835h261v-80h-261v80z" />
    <glyph glyph-name="Oslash" unicode="&#xd8;" horiz-adv-x="846" 
d="M55 328c0 191 161 345 367 345c58 0 113 -13 162 -35l60 86l74 -51l-57 -82c80 -63 131 -157 131 -263c0 -194 -164 -348 -370 -348c-59 0 -113 13 -162 34l-58 -84l-75 50l56 81c-79 64 -128 159 -128 267zM674 328c0 68 -28 130 -75 174l-279 -401
c31 -14 65 -21 102 -21c141 0 252 112 252 248zM173 328c0 -69 28 -131 73 -176l278 400c-31 13 -66 21 -102 21c-140 0 -249 -110 -249 -245z" />
    <glyph glyph-name="Oslashacute" unicode="&#x1fe;" horiz-adv-x="846" 
d="M55 328c0 191 161 345 367 345c58 0 113 -13 162 -35l60 86l74 -51l-57 -82c80 -63 131 -157 131 -263c0 -194 -164 -348 -370 -348c-59 0 -113 13 -162 34l-58 -84l-75 50l56 81c-79 64 -128 159 -128 267zM674 328c0 68 -28 130 -75 174l-279 -401
c31 -14 65 -21 102 -21c141 0 252 112 252 248zM173 328c0 -69 28 -131 73 -176l278 400c-31 13 -66 21 -102 21c-140 0 -249 -110 -249 -245zM340 730l100 130h136l-137 -130h-99z" />
    <glyph glyph-name="Racute" unicode="&#x154;" horiz-adv-x="783" 
d="M225 0h-112v653h360c87 0 147 -24 189 -69c33 -35 52 -81 52 -131c0 -88 -58 -155 -144 -187l156 -266h-129l-140 251h-232v-251zM473 553h-248v-202h268c59 0 109 46 109 102c0 25 -10 47 -27 65c-31 32 -67 35 -102 35zM309 730l100 130h136l-137 -130h-99z" />
    <glyph glyph-name="Rcaron" unicode="&#x158;" horiz-adv-x="783" 
d="M225 0h-112v653h360c87 0 147 -24 189 -69c33 -35 52 -81 52 -131c0 -88 -58 -155 -144 -187l156 -266h-129l-140 251h-232v-251zM473 553h-248v-202h268c59 0 109 46 109 102c0 25 -10 47 -27 65c-31 32 -67 35 -102 35zM314 863l78 -74l77 74h83l-102 -133h-116
l-103 133h83z" />
    <glyph glyph-name="uni0156" unicode="&#x156;" horiz-adv-x="783" 
d="M225 0h-112v653h360c87 0 147 -24 189 -69c33 -35 52 -81 52 -131c0 -88 -58 -155 -144 -187l156 -266h-129l-140 251h-232v-251zM473 553h-248v-202h268c59 0 109 46 109 102c0 25 -10 47 -27 65c-31 32 -67 35 -102 35zM377 -63l84 21c18 -16 44 -46 44 -92
c0 -68 -62 -113 -160 -113c-26 0 -55 4 -85 12l9 64c21 -3 40 -6 58 -6c52 0 81 19 81 51c0 29 -17 50 -31 63z" />
    <glyph glyph-name="Scaron" unicode="&#x160;" horiz-adv-x="736" 
d="M643 578l-68 -78c-36 33 -117 76 -237 76c-78 0 -147 -25 -147 -94c0 -71 97 -74 196 -81c117 -8 301 -20 301 -202c0 -158 -132 -219 -288 -219c-172 0 -284 71 -357 137l68 78c53 -48 145 -118 291 -118c97 0 174 33 174 107c0 82 -75 99 -189 108
c-144 10 -308 22 -308 180c0 155 143 201 263 201c138 0 249 -54 301 -95zM290 863l78 -74l77 74h83l-102 -133h-116l-103 133h83z" />
    <glyph glyph-name="Sacute" unicode="&#x15a;" horiz-adv-x="736" 
d="M643 578l-68 -78c-36 33 -117 76 -237 76c-78 0 -147 -25 -147 -94c0 -71 97 -74 196 -81c117 -8 301 -20 301 -202c0 -158 -132 -219 -288 -219c-172 0 -284 71 -357 137l68 78c53 -48 145 -118 291 -118c97 0 174 33 174 107c0 82 -75 99 -189 108
c-144 10 -308 22 -308 180c0 155 143 201 263 201c138 0 249 -54 301 -95zM285 730l100 130h136l-137 -130h-99z" />
    <glyph glyph-name="Scedilla" unicode="&#x15e;" horiz-adv-x="736" 
d="M645 578l-68 -78c-36 33 -117 76 -237 76c-78 0 -147 -25 -147 -94c0 -71 97 -74 196 -81c117 -8 301 -20 301 -202c0 -157 -130 -218 -284 -219l-15 -34c10 3 19 5 30 5c50 1 103 -27 103 -80c0 -59 -68 -97 -164 -97c-52 0 -98 11 -143 22l16 57c41 -8 83 -17 122 -17
c46 0 76 12 76 36c0 22 -24 27 -47 27c-17 0 -31 -3 -43 -5l-27 32l27 57c-138 15 -232 76 -296 134l68 78c53 -48 145 -118 291 -118c97 0 174 33 174 107c0 82 -75 99 -189 108c-144 10 -308 22 -308 180c0 155 143 201 263 201c138 0 249 -54 301 -95z" />
    <glyph glyph-name="Scircumflex" unicode="&#x15c;" horiz-adv-x="736" 
d="M643 578l-68 -78c-36 33 -117 76 -237 76c-78 0 -147 -25 -147 -94c0 -71 97 -74 196 -81c117 -8 301 -20 301 -202c0 -158 -132 -219 -288 -219c-172 0 -284 71 -357 137l68 78c53 -48 145 -118 291 -118c97 0 174 33 174 107c0 82 -75 99 -189 108
c-144 10 -308 22 -308 180c0 155 143 201 263 201c138 0 249 -54 301 -95zM207 730l103 133h116l102 -133h-83l-77 74l-78 -74h-83z" />
    <glyph glyph-name="uni0218" unicode="&#x218;" horiz-adv-x="736" 
d="M643 578l-68 -78c-36 33 -117 76 -237 76c-78 0 -147 -25 -147 -94c0 -71 97 -74 196 -81c117 -8 301 -20 301 -202c0 -158 -132 -219 -288 -219c-172 0 -284 71 -357 137l68 78c53 -48 145 -118 291 -118c97 0 174 33 174 107c0 82 -75 99 -189 108
c-144 10 -308 22 -308 180c0 155 143 201 263 201c138 0 249 -54 301 -95zM353 -63l84 21c18 -16 44 -46 44 -92c0 -68 -62 -113 -160 -113c-26 0 -55 4 -85 12l9 64c21 -3 40 -6 58 -6c52 0 81 19 81 51c0 29 -17 50 -31 63z" />
    <glyph glyph-name="Tbar" unicode="&#x166;" horiz-adv-x="685" 
d="M30 553v100h625v-100h-256v-172h150v-90h-150v-291h-112v291h-150v90h150v172h-257z" />
    <glyph glyph-name="Tcaron" unicode="&#x164;" horiz-adv-x="685" 
d="M30 553v100h625v-100h-256v-553h-112v553h-257zM264 863l78 -74l77 74h83l-102 -133h-116l-103 133h83z" />
    <glyph glyph-name="uni0162" unicode="&#x162;" horiz-adv-x="685" 
d="M30 553v100h625v-100h-256v-553l-24 -54c10 3 19 5 30 5c50 1 103 -27 103 -80c0 -59 -68 -97 -164 -97c-52 0 -98 11 -143 22l16 57c41 -8 83 -17 122 -17c46 0 76 12 76 36c0 22 -24 27 -47 27c-17 0 -31 -3 -43 -5l-27 32l35 74h-46v553h-257z" />
    <glyph glyph-name="uni021A" unicode="&#x21a;" horiz-adv-x="685" 
d="M30 553v100h625v-100h-256v-553h-112v553h-257zM327 -63l84 21c18 -16 44 -46 44 -92c0 -68 -62 -113 -160 -113c-26 0 -55 4 -85 12l9 64c21 -3 40 -6 58 -6c52 0 81 19 81 51c0 29 -17 50 -31 63z" />
    <glyph glyph-name="Uacute" unicode="&#xda;" horiz-adv-x="779" 
d="M567 653h112v-421c0 -161 -124 -252 -290 -252c-165 0 -289 91 -289 252v421h112v-421c0 -98 78 -152 177 -152c100 0 178 54 178 152v421zM306 730l100 130h136l-137 -130h-99z" />
    <glyph glyph-name="Ugrave" unicode="&#xd9;" horiz-adv-x="779" 
d="M567 653h112v-421c0 -161 -124 -252 -290 -252c-165 0 -289 91 -289 252v421h112v-421c0 -98 78 -152 177 -152c100 0 178 54 178 152v421zM372 730l-136 130h136l100 -130h-100z" />
    <glyph glyph-name="Ucircumflex" unicode="&#xdb;" horiz-adv-x="779" 
d="M567 653h112v-421c0 -161 -124 -252 -290 -252c-165 0 -289 91 -289 252v421h112v-421c0 -98 78 -152 177 -152c100 0 178 54 178 152v421zM228 730l103 133h116l102 -133h-83l-77 74l-78 -74h-83z" />
    <glyph glyph-name="Udieresis" unicode="&#xdc;" horiz-adv-x="779" 
d="M567 653h112v-421c0 -161 -124 -252 -290 -252c-165 0 -289 91 -289 252v421h112v-421c0 -98 78 -152 177 -152c100 0 178 54 178 152v421zM221 795c0 31 26 57 61 57s62 -27 62 -57c0 -32 -27 -56 -62 -56s-61 24 -61 56zM433 795c0 31 26 57 61 57s62 -27 62 -57
c0 -32 -27 -56 -62 -56s-61 24 -61 56z" />
    <glyph glyph-name="Ubreve" unicode="&#x16c;" horiz-adv-x="779" 
d="M567 653h112v-421c0 -161 -124 -252 -290 -252c-165 0 -289 91 -289 252v421h112v-421c0 -98 78 -152 177 -152c100 0 178 54 178 152v421zM239 861h75c0 -33 13 -70 75 -70s75 37 75 70h74c0 -61 -27 -140 -149 -140s-150 79 -150 140z" />
    <glyph glyph-name="Uhungarumlaut" unicode="&#x170;" horiz-adv-x="779" 
d="M567 653h112v-421c0 -161 -124 -252 -290 -252c-165 0 -289 91 -289 252v421h112v-421c0 -98 78 -152 177 -152c100 0 178 54 178 152v421zM321 727h-67l44 140h95zM497 727h-66l44 140h95z" />
    <glyph glyph-name="Umacron" unicode="&#x16a;" horiz-adv-x="779" 
d="M567 653h112v-421c0 -161 -124 -252 -290 -252c-165 0 -289 91 -289 252v421h112v-421c0 -98 78 -152 177 -152c100 0 178 54 178 152v421zM258 835h261v-80h-261v80z" />
    <glyph glyph-name="Uogonek" unicode="&#x172;" horiz-adv-x="779" 
d="M567 653h112v-421c0 -134 -86 -220 -210 -244c-36 -19 -82 -51 -82 -94c0 -33 27 -52 69 -52c19 0 40 4 62 8l9 -64c-30 -8 -62 -12 -89 -12c-87 0 -141 40 -141 100c0 45 30 80 65 107c-151 9 -262 98 -262 251v421h112v-421c0 -98 78 -152 177 -152
c100 0 178 54 178 152v421z" />
    <glyph glyph-name="Uring" unicode="&#x16e;" horiz-adv-x="779" 
d="M567 653h112v-421c0 -161 -124 -252 -290 -252c-165 0 -289 91 -289 252v421h112v-421c0 -98 78 -152 177 -152c100 0 178 54 178 152v421zM322 796c0 -32 27 -54 64 -54c38 0 65 22 65 54c0 33 -27 59 -65 59c-37 0 -64 -26 -64 -59zM386 694c-82 0 -126 47 -126 102
c0 56 44 105 126 105s128 -49 128 -105c0 -55 -46 -102 -128 -102z" />
    <glyph glyph-name="Utilde" unicode="&#x168;" horiz-adv-x="779" 
d="M567 653h112v-421c0 -161 -124 -252 -290 -252c-165 0 -289 91 -289 252v421h112v-421c0 -98 78 -152 177 -152c100 0 178 54 178 152v421zM275 729l-67 36c38 65 72 88 114 88c28 0 48 -10 71 -26c19 -13 36 -26 55 -26c24 0 40 23 56 45l62 -34
c-33 -59 -69 -89 -114 -89c-27 0 -52 11 -70 24c-21 15 -36 28 -54 28c-24 0 -38 -25 -53 -46z" />
    <glyph glyph-name="Wacute" unicode="&#x1e82;" horiz-adv-x="1008" 
d="M37 653h123l146 -480h6l155 480h80l155 -480h6l146 480h117l-209 -653h-112l-143 437h-6l-143 -437h-112zM421 730l100 130h136l-137 -130h-99z" />
    <glyph glyph-name="Wcircumflex" unicode="&#x174;" horiz-adv-x="1008" 
d="M37 653h123l146 -480h6l155 480h80l155 -480h6l146 480h117l-209 -653h-112l-143 437h-6l-143 -437h-112zM343 730l103 133h116l102 -133h-83l-77 74l-78 -74h-83z" />
    <glyph glyph-name="Wdieresis" unicode="&#x1e84;" horiz-adv-x="1008" 
d="M37 653h123l146 -480h6l155 480h80l155 -480h6l146 480h117l-209 -653h-112l-143 437h-6l-143 -437h-112zM336 795c0 31 26 57 61 57s62 -27 62 -57c0 -32 -27 -56 -62 -56s-61 24 -61 56zM548 795c0 31 26 57 61 57s62 -27 62 -57c0 -32 -27 -56 -62 -56s-61 24 -61 56z
" />
    <glyph glyph-name="Wgrave" unicode="&#x1e80;" horiz-adv-x="1008" 
d="M37 653h123l146 -480h6l155 480h80l155 -480h6l146 480h117l-209 -653h-112l-143 437h-6l-143 -437h-112zM487 730l-136 130h136l100 -130h-100z" />
    <glyph glyph-name="Yacute" unicode="&#xdd;" horiz-adv-x="680" 
d="M532 653h132l-268 -352v-301h-112v301l-268 352h142l187 -252zM257 730l100 130h136l-137 -130h-99z" />
    <glyph glyph-name="Ydieresis" unicode="&#x178;" horiz-adv-x="680" 
d="M532 653h132l-268 -352v-301h-112v301l-268 352h142l187 -252zM172 795c0 31 26 57 61 57s62 -27 62 -57c0 -32 -27 -56 -62 -56s-61 24 -61 56zM384 795c0 31 26 57 61 57s62 -27 62 -57c0 -32 -27 -56 -62 -56s-61 24 -61 56z" />
    <glyph glyph-name="Ycircumflex" unicode="&#x176;" horiz-adv-x="680" 
d="M532 653h132l-268 -352v-301h-112v301l-268 352h142l187 -252zM179 730l103 133h116l102 -133h-83l-77 74l-78 -74h-83z" />
    <glyph glyph-name="Ygrave" unicode="&#x1ef2;" horiz-adv-x="680" 
d="M532 653h132l-268 -352v-301h-112v301l-268 352h142l187 -252zM323 730l-136 130h136l100 -130h-100z" />
    <glyph glyph-name="Zcaron" unicode="&#x17d;" horiz-adv-x="677" 
d="M616 100v-100h-565v70l402 483h-382v100h545v-70l-402 -483h402zM260 863l78 -74l77 74h83l-102 -133h-116l-103 133h83z" />
    <glyph glyph-name="Zacute" unicode="&#x179;" horiz-adv-x="677" 
d="M616 100v-100h-565v70l402 483h-382v100h545v-70l-402 -483h402zM255 730l100 130h136l-137 -130h-99z" />
    <glyph glyph-name="Zdotaccent" unicode="&#x17b;" horiz-adv-x="677" 
d="M616 100v-100h-565v70l402 483h-382v100h545v-70l-402 -483h402zM277 795c0 31 26 57 61 57s62 -27 62 -57c0 -32 -27 -56 -62 -56s-61 24 -61 56z" />
    <glyph glyph-name="Eth" unicode="&#xd0;" horiz-adv-x="845" 
d="M43 291v90h100v272h313c118 0 184 -33 240 -87c58 -60 89 -144 89 -239c0 -98 -34 -187 -96 -247c-56 -50 -115 -80 -233 -80h-313v291h-100zM255 100h196c83 0 111 19 150 51c42 42 67 106 67 176c0 68 -22 129 -63 171c-37 34 -72 55 -154 55h-196v-172h192v-90h-192
v-191z" />
    <glyph glyph-name="Thorn" unicode="&#xde;" horiz-adv-x="771" 
d="M225 653v-125h268c92 0 149 -26 189 -69c35 -38 52 -83 52 -131c0 -56 -23 -105 -60 -141c-39 -37 -94 -61 -181 -61h-268v-126h-112v653h112zM493 428h-268v-202h268c28 0 67 2 99 32c19 18 30 43 30 69s-10 48 -27 66c-30 32 -70 35 -102 35z" />
    <glyph glyph-name="AE" unicode="&#xc6;" horiz-adv-x="1086" 
d="M486 0v176h-246l-124 -176h-125l474 653h550v-100h-418v-162h251v-100h-251v-191h442v-100h-553zM482 519l-179 -253h183v253h-4z" />
    <glyph glyph-name="AEacute" unicode="&#x1fc;" horiz-adv-x="1086" 
d="M486 0v176h-246l-124 -176h-125l474 653h550v-100h-418v-162h251v-100h-251v-191h442v-100h-553zM482 519l-179 -253h183v253h-4zM546 730l100 130h136l-137 -130h-99z" />
    <glyph glyph-name="OE" unicode="&#x152;" horiz-adv-x="1275" 
d="M1037 391v-100h-251v-191h442v-100h-554v94c-61 -81 -160 -114 -262 -114c-200 0 -357 154 -357 348c0 191 157 345 357 345c102 0 201 -30 262 -115v95h530v-100h-418v-162h251zM173 328c0 -136 105 -248 239 -248c147 0 262 112 262 248c0 135 -115 245 -262 245
c-134 0 -239 -110 -239 -245z" />
    <glyph glyph-name="Schwa" unicode="&#x18f;" horiz-adv-x="787" 
d="M378 -20c-166 0 -337 101 -321 357h556c-1 17 -3 33 -6 49c-22 105 -103 187 -229 187c-92 0 -181 -44 -229 -90l-76 75c66 67 184 115 306 115c221 0 352 -159 352 -345c0 -199 -150 -348 -353 -348zM382 81c109 0 190 65 219 161h-424c3 -110 103 -161 205 -161z" />
    <glyph glyph-name="acute.cap" 
d="M167 730l100 130h136l-137 -130h-99z" />
    <glyph glyph-name="grave.cap" 
d="M233 730l-136 130h136l100 -130h-100z" />
    <glyph glyph-name="circumflex.cap" 
d="M89 730l103 133h116l102 -133h-83l-77 74l-78 -74h-83z" />
    <glyph glyph-name="dieresis.cap" 
d="M82 795c0 31 26 57 61 57s62 -27 62 -57c0 -32 -27 -56 -62 -56s-61 24 -61 56zM294 795c0 31 26 57 61 57s62 -27 62 -57c0 -32 -27 -56 -62 -56s-61 24 -61 56z" />
    <glyph glyph-name="tilde.cap" 
d="M136 729l-67 36c38 65 72 88 114 88c28 0 48 -10 71 -26c19 -13 36 -26 55 -26c24 0 40 23 56 45l62 -34c-33 -59 -69 -89 -114 -89c-27 0 -52 11 -70 24c-21 15 -36 28 -54 28c-24 0 -38 -25 -53 -46z" />
    <glyph glyph-name="ring.cap" 
d="M183 796c0 -32 27 -54 64 -54c38 0 65 22 65 54c0 33 -27 59 -65 59c-37 0 -64 -26 -64 -59zM247 694c-82 0 -126 47 -126 102c0 56 44 105 126 105s128 -49 128 -105c0 -55 -46 -102 -128 -102z" />
    <glyph glyph-name="cedilla.cap" 
d="M242 19h66l-33 -73c10 3 19 5 30 5c50 1 103 -27 103 -80c0 -59 -68 -97 -164 -97c-52 0 -98 11 -143 22l16 57c41 -8 83 -17 122 -17c46 0 76 12 76 36c0 22 -24 27 -47 27c-17 0 -31 -3 -43 -5l-27 32z" />
    <glyph glyph-name="breve.cap" 
d="M100 861h75c0 -33 13 -70 75 -70s75 37 75 70h74c0 -61 -27 -140 -149 -140s-150 79 -150 140z" />
    <glyph glyph-name="caron.cap" 
d="M172 863l78 -74l77 74h83l-102 -133h-116l-103 133h83z" />
    <glyph glyph-name="dotaccent.cap" 
d="M189 795c0 31 26 57 61 57s62 -27 62 -57c0 -32 -27 -56 -62 -56s-61 24 -61 56z" />
    <glyph glyph-name="hungarumlaut.cap" 
d="M182 727h-67l44 140h95zM358 727h-66l44 140h95z" />
    <glyph glyph-name="macron.cap" 
d="M119 835h261v-80h-261v80z" />
    <glyph glyph-name="ogonek.cap" 
d="M275 28l48 -28c-32 -14 -109 -51 -109 -106c0 -33 27 -52 69 -52c19 0 40 4 62 8l9 -64c-30 -8 -62 -12 -89 -12c-87 0 -141 40 -141 100c0 84 107 136 151 154z" />
    <glyph glyph-name="commaaccent.cap" 
d="M235 -63l84 21c18 -16 44 -46 44 -92c0 -68 -62 -113 -160 -113c-26 0 -55 4 -85 12l9 64c21 -3 40 -6 58 -6c52 0 81 19 81 51c0 29 -17 50 -31 63z" />
    <glyph glyph-name="caron.cap.alt" 
d="M208 474v226h103c0 -93 -12 -158 -45 -226h-58z" />
    <glyph glyph-name="ampersand.cap" horiz-adv-x="752" 
d="M549 612l-56 -88c-29 21 -82 49 -137 49c-49 0 -77 -32 -77 -70c0 -57 84 -128 111 -158l125 -134c34 39 69 88 103 149l90 -46c-44 -70 -87 -127 -129 -172l134 -142h-147l-66 70c-84 -65 -161 -86 -222 -86c-88 0 -230 46 -230 207c0 120 75 171 156 202
c-24 34 -37 68 -37 108c0 106 89 172 191 172c80 0 147 -35 191 -61zM296 286l-34 36c-43 -19 -102 -51 -102 -125c0 -78 69 -113 129 -113c42 0 93 16 146 54z" />
    <glyph glyph-name="zero.cap" horiz-adv-x="816" 
d="M55 327c0 192 160 347 352 347c193 0 355 -155 355 -347c0 -194 -162 -348 -355 -348c-192 0 -352 154 -352 348zM167 327c0 -136 107 -248 240 -248s243 112 243 248c0 135 -110 247 -243 247s-240 -112 -240 -247z" />
    <glyph glyph-name="one.cap" horiz-adv-x="429" 
d="M40 477l-24 90l191 86h112v-653h-112v552z" />
    <glyph glyph-name="one.cap.alt" horiz-adv-x="412" 
d="M262 0h-112v653h112v-653z" />
    <glyph glyph-name="two.cap" horiz-adv-x="671" 
d="M132 479l-66 78c75 59 152 117 284 117c129 0 260 -56 260 -184c0 -153 -172 -192 -266 -221c-93 -29 -171 -70 -171 -171v-8h424v-90h-536v88c0 164 137 241 279 280c39 11 158 39 158 119c0 63 -74 87 -145 87c-100 0 -162 -43 -221 -95z" />
    <glyph glyph-name="three.cap" horiz-adv-x="754" 
d="M337 300v90h123c38 0 79 30 79 84c0 74 -83 100 -148 100c-92 0 -176 -51 -234 -106l-68 69c73 68 176 137 304 137c108 0 258 -49 258 -182c0 -70 -41 -117 -71 -131c45 -11 121 -52 121 -157c0 -145 -147 -225 -332 -225c-136 0 -245 42 -338 135l68 78
c65 -65 147 -113 270 -113c122 0 220 47 220 132c0 73 -79 89 -125 89h-127z" />
    <glyph glyph-name="four.cap" horiz-adv-x="789" 
d="M748 238v-90h-123v-148h-112v148h-481v79l494 426h99v-415h123zM199 242v-4h314v271h-11c-99 -87 -204 -179 -303 -267z" />
    <glyph glyph-name="five.cap" horiz-adv-x="736" 
d="M615 653v-100h-406v-172c58 38 111 60 205 60c137 0 276 -68 276 -214c0 -181 -168 -248 -327 -248c-166 0 -271 76 -326 123l68 78c42 -39 127 -101 259 -101c104 0 214 39 214 147c0 82 -82 120 -167 120c-104 0 -173 -34 -234 -72l-70 50v329h508z" />
    <glyph glyph-name="six.cap" horiz-adv-x="754" 
d="M677 593l-68 -78c-50 38 -119 59 -191 59c-131 0 -251 -86 -260 -238c63 44 159 93 278 93c182 0 267 -110 267 -209c0 -135 -121 -241 -293 -241c-181 0 -354 115 -354 337c0 225 171 358 364 358c144 0 227 -60 257 -81zM426 339c-104 0 -201 -48 -261 -86
c28 -115 133 -174 247 -174c105 0 179 69 179 143c0 52 -46 117 -165 117z" />
    <glyph glyph-name="seven.cap" horiz-adv-x="654" 
d="M31 553v100h584v-100l-356 -553h-147l374 553h-455z" />
    <glyph glyph-name="eight.cap" horiz-adv-x="756" 
d="M378 -23c-165 0 -324 77 -324 210c0 101 81 158 164 173c-80 14 -125 60 -125 136c0 123 159 180 285 180s285 -57 285 -180c0 -76 -43 -122 -126 -136c84 -15 165 -72 165 -173c0 -133 -160 -210 -324 -210zM378 77c100 0 202 42 202 120c0 80 -111 118 -202 118
s-202 -38 -202 -118c0 -78 102 -120 202 -120zM378 397c105 0 163 31 163 89c0 68 -90 100 -163 100s-163 -32 -163 -100c0 -58 58 -89 163 -89z" />
    <glyph glyph-name="nine.cap" horiz-adv-x="756" 
d="M79 60l68 78c50 -38 119 -59 191 -59c131 0 250 86 259 238c-63 -44 -159 -93 -277 -93c-182 0 -267 110 -267 209c0 135 121 241 293 241c181 0 354 -115 354 -337c0 -225 -171 -358 -364 -358c-144 0 -227 60 -257 81zM330 314c103 0 200 48 260 85
c-28 115 -132 175 -246 175c-105 0 -179 -69 -179 -143c0 -52 46 -117 165 -117z" />
    <glyph glyph-name="exclamdown.cap" horiz-adv-x="330" 
d="M224 596c0 -40 -34 -73 -79 -73s-80 33 -80 73s35 72 80 72s79 -32 79 -72zM109 443h72l25 -285v-158h-122v158z" />
    <glyph glyph-name="questiondown.cap" horiz-adv-x="581" 
d="M444 168l70 -64c-65 -72 -132 -123 -268 -123c-112 0 -209 41 -209 159c0 54 21 90 50 118c67 64 178 88 182 185h100c5 -144 -141 -183 -204 -243c-17 -16 -28 -35 -28 -57c0 -48 51 -72 112 -72c94 0 145 40 195 97zM379 596c0 -40 -34 -73 -79 -73s-80 33 -80 73
s35 72 80 72s79 -32 79 -72z" />
    <glyph glyph-name="guilsinglleft.cap" horiz-adv-x="341" 
d="M151 495h124l-121 -145v-8l121 -144h-124l-99 122v52z" />
    <glyph glyph-name="guilsinglright.cap" horiz-adv-x="341" 
d="M66 495h124l99 -123v-52l-99 -122h-124l121 144v8z" />
    <glyph glyph-name="guillemotleft.cap" horiz-adv-x="604" 
d="M151 495h124l-121 -145v-8l121 -144h-124l-99 122v52zM297 342v8l117 145h124l-121 -145v-8l121 -144h-124z" />
    <glyph glyph-name="guillemotright.cap" horiz-adv-x="604" 
d="M329 495h124l99 -123v-52l-99 -122h-124l121 144v8zM307 350v-8l-117 -144h-124l121 144v8l-121 145h124z" />
    <glyph glyph-name="hyphen.cap" horiz-adv-x="385" 
d="M64 304v102h257v-102h-257z" />
    <glyph glyph-name="endash.cap" horiz-adv-x="622" 
d="M64 314v92h494v-92h-494z" />
    <glyph glyph-name="emdash.cap" horiz-adv-x="1102" 
d="M64 314v92h974v-92h-974z" />
    <glyph glyph-name="parenleft.cap" horiz-adv-x="395" 
d="M313 750l56 -68c-127 -69 -212 -207 -212 -364c0 -158 85 -294 212 -363l-56 -68c-169 86 -268 244 -268 431s99 346 268 432z" />
    <glyph glyph-name="parenright.cap" horiz-adv-x="395" 
d="M26 682l56 68c169 -86 268 -245 268 -432s-99 -345 -268 -431l-56 68c127 69 212 205 212 363c0 157 -85 295 -212 364z" />
    <glyph glyph-name="bracketleft.cap" horiz-adv-x="368" 
d="M327 -10v-90h-238v843h238v-90h-136v-663h136z" />
    <glyph glyph-name="bracketright.cap" horiz-adv-x="368" 
d="M41 743h238v-843h-238v90h136v663h-136v90z" />
    <glyph glyph-name="braceleft.cap" horiz-adv-x="390" 
d="M349 -10v-90c-167 0 -213 26 -213 162v127c0 79 -52 97 -108 97v88c56 0 109 39 109 102v103c2 137 48 165 212 165v-90c-85 0 -108 -11 -110 -75v-103c0 -84 -53 -138 -109 -142v-8c57 -1 108 -29 108 -137v-127c0 -61 25 -72 111 -72z" />
    <glyph glyph-name="braceright.cap" horiz-adv-x="390" 
d="M41 -100v90c80 0 111 11 111 72v127c0 108 51 136 108 137v8c-56 4 -109 58 -109 142v103c-2 64 -30 75 -110 75v90c164 0 210 -28 212 -165v-103c0 -63 53 -102 109 -102v-88c-56 0 -108 -18 -108 -97v-127c0 -136 -46 -162 -213 -162z" />
    <glyph glyph-name="bullet.cap" horiz-adv-x="462" 
d="M231 194c-90 0 -163 69 -163 155s73 155 163 155c89 0 163 -69 163 -155s-74 -155 -163 -155z" />
    <glyph glyph-name="at.cap" horiz-adv-x="979" 
d="M640 512h93l-85 -260c-3 -8 -4 -14 -4 -21c0 -32 19 -49 49 -49c63 0 155 86 155 212c0 141 -122 248 -306 248c-210 0 -395 -139 -395 -353c0 -212 182 -314 354 -314c90 0 198 28 248 54l26 -68c-51 -29 -169 -66 -279 -66c-204 0 -441 127 -441 393
c0 263 230 434 487 434c234 0 388 -142 388 -323s-147 -297 -260 -297c-59 0 -105 30 -105 78v8c-45 -54 -105 -85 -160 -85c-71 0 -140 50 -140 162c0 154 132 268 234 268c62 0 107 -43 117 -91zM432 193c34 0 82 20 124 64l31 96c-9 48 -45 90 -88 90
c-52 0 -132 -59 -132 -164c0 -58 25 -86 65 -86z" />
    <glyph glyph-name="copyright.cap" horiz-adv-x="993" 
d="M694 454l-38 -69c-46 42 -102 61 -160 61c-84 0 -140 -62 -140 -137s64 -123 143 -123s120 26 162 56l38 -69c-49 -38 -100 -68 -200 -68c-130 0 -236 81 -236 204c0 121 92 218 233 218c73 0 147 -32 198 -73zM498 722c243 0 443 -184 443 -414s-200 -413 -443 -413
c-245 0 -446 183 -446 413s201 414 446 414zM498 651c-198 0 -363 -156 -363 -343c0 -189 165 -342 363 -342c199 0 360 153 360 342c0 187 -161 343 -360 343z" />
    <glyph glyph-name="soundrecordingcopyright.cap" horiz-adv-x="993" 
d="M496 -105c-245 0 -444 184 -444 414s200 413 444 413s445 -183 445 -413s-201 -414 -445 -414zM495 -34c198 0 363 155 363 344c0 188 -165 341 -363 341c-199 0 -360 -154 -360 -341c0 -188 161 -344 360 -344zM573 237h-146v-113h-93v387h214c72 0 181 -22 181 -134
c0 -97 -81 -140 -156 -140zM427 430v-112h146c27 0 63 13 63 58c0 41 -36 54 -63 54h-146z" />
    <glyph glyph-name="dollar.cap" horiz-adv-x="725" 
d="M328 781h75v-113c110 -14 197 -59 245 -95l-64 -74c-33 30 -93 63 -181 76v-178c112 -7 269 -34 269 -200c0 -153 -122 -215 -269 -218v-139h-75v143c-130 16 -220 76 -282 132l64 73c43 -41 113 -94 218 -110v222c-126 12 -248 38 -248 175c0 151 132 196 248 198v108z
M567 183c0 80 -64 101 -164 111v-221c91 1 164 34 164 110zM186 485c0 -63 80 -78 142 -83v178c-77 -1 -142 -23 -142 -95z" />
    <glyph glyph-name="cent.cap" horiz-adv-x="617" 
d="M359 629h75l-23 -113c52 -12 101 -36 144 -72l-69 -69c-27 23 -60 40 -93 50l-70 -351h1c68 0 122 36 164 73l69 -65c-21 -26 -101 -99 -233 -99c-7 0 -13 0 -19 1l-29 -144h-75l31 158c-104 34 -182 129 -182 259c0 163 120 270 268 270c7 0 13 0 20 -1zM163 257
c0 -78 36 -137 88 -165l69 344h-2c-86 0 -155 -70 -155 -179z" />
    <glyph glyph-name="Euro.cap" horiz-adv-x="798" 
d="M54 371v70h103c45 135 168 233 312 233c105 0 201 -40 268 -105l-68 -78c-50 51 -123 83 -200 83c-84 0 -157 -55 -193 -133h278v-70h-300c-2 -15 -3 -29 -3 -44c0 -14 1 -27 3 -40h300v-70h-280c36 -82 110 -138 195 -138c80 0 157 36 209 92l68 -78
c-72 -70 -169 -114 -277 -114c-145 0 -269 101 -313 238h-102v70h87c-1 13 -2 26 -2 40c0 15 1 29 2 44h-87z" />
    <glyph glyph-name="sterling.cap" horiz-adv-x="733" 
d="M61 309v81h134v88c0 135 121 196 238 196c65 0 165 -34 245 -85l-56 -78c-63 37 -140 63 -189 63c-61 0 -126 -30 -126 -96v-88h254v-81h-254v-95c0 -77 -25 -111 -89 -124h459v-90h-616v90h40c70 0 94 22 94 124v95h-134z" />
    <glyph glyph-name="yen.cap" horiz-adv-x="797" 
d="M59 371v70h179l-156 212h142l179 -252l178 252h132l-156 -212h181v-70h-233l-51 -70v-14h284v-70h-284v-217h-112v217h-283v70h283v14l-52 70h-231z" />
    <glyph glyph-name="florin.cap" horiz-adv-x="432" 
d="M46 390h118l27 134c23 113 112 151 180 151c42 0 92 -14 111 -27l-37 -86c-12 11 -51 22 -74 22c-40 0 -69 -20 -77 -61l-27 -133h128v-81h-144l-62 -309c-28 -141 -127 -191 -217 -191v82c46 9 98 26 114 109l62 309h-102v81z" />
    <glyph glyph-name="colonmonetary.cap" horiz-adv-x="759" 
d="M530 781h65l-28 -141c51 -22 97 -53 134 -92l-71 -61c-24 23 -52 43 -82 58l-93 -467c75 15 143 64 189 118l69 -62c-65 -74 -164 -142 -277 -153l-28 -141h-65l28 142c-33 3 -64 9 -93 19l-32 -161h-65l37 188c-103 61 -165 171 -165 298c0 177 118 323 293 345l22 110
h65l-22 -108c33 -1 65 -6 95 -13zM297 97c27 -14 58 -22 92 -24l99 495c-30 8 -62 13 -95 13zM165 326c0 -75 27 -143 75 -189l86 434c-97 -31 -161 -130 -161 -245z" />
    <glyph glyph-name="franc.cap" horiz-adv-x="719" 
d="M59 134v70h104v449h510v-100h-398v-139h241v-99h-241v-111h181v-70h-181v-134h-112v134h-104z" />
    <glyph glyph-name="lira.cap" horiz-adv-x="739" 
d="M67 371v70h134v37c0 135 121 196 238 196c65 0 165 -34 245 -85l-56 -78c-63 37 -140 63 -189 63c-61 0 -126 -30 -126 -96v-37h254v-70h-254v-84h254v-70h-254v-3c0 -77 -25 -111 -89 -124h459v-90h-616v90h40c70 0 94 22 94 124v3h-134v70h134v84h-134z" />
    <glyph glyph-name="peso.cap" horiz-adv-x="833" 
d="M40 385v70h104v198h320c89 0 148 -23 188 -70c28 -34 46 -80 51 -128h99v-70h-100c-6 -52 -26 -102 -58 -136c-38 -40 -95 -62 -180 -62h-208v-187h-112v385h-104zM464 553h-208v-98h334c-4 22 -12 45 -25 62c-27 34 -70 36 -101 36zM562 320c14 16 23 40 28 65h-334v-98
h208c30 0 70 1 98 33z" />
    <glyph glyph-name="peseta.cap" horiz-adv-x="1592" 
d="M203 0h-112v653h360c92 0 149 -26 189 -69c27 -30 44 -64 50 -101h79v143h103v-143h127v-81h-127v-282c0 -32 22 -49 57 -49c20 0 58 4 70 8l10 -81c-17 -11 -67 -18 -100 -18c-64 0 -140 35 -140 140v282h-84c-9 -35 -28 -66 -53 -90c-39 -37 -94 -61 -181 -61h-248
v-251zM1507 445l-39 -79c-32 18 -109 49 -179 49c-52 0 -98 -17 -98 -56c0 -49 75 -54 118 -56c85 -4 230 -12 230 -152c0 -115 -99 -168 -226 -168c-113 0 -192 42 -240 74l39 78c45 -27 112 -66 200 -66c71 0 124 25 124 72c0 55 -74 61 -127 64c-101 6 -221 15 -221 142
c0 118 105 154 199 154c91 0 182 -34 220 -56zM451 553h-248v-202h248c28 0 67 2 99 32c19 18 30 43 30 69s-10 48 -27 66c-30 32 -70 35 -102 35z" />
    <glyph glyph-name="rupiah.cap" horiz-adv-x="1352" 
d="M810 484h95c5 -24 7 -44 7 -68c21 32 81 83 159 83c130 0 237 -102 237 -259c0 -154 -108 -255 -237 -255c-54 0 -106 26 -149 74v-266h-103v558c0 42 0 87 -9 133zM1061 75c74 0 133 65 133 165c0 102 -60 168 -133 168c-74 0 -123 -48 -139 -68v-198
c40 -41 89 -67 139 -67zM212 0h-112v653h360c87 0 147 -24 189 -69c33 -35 52 -81 52 -131c0 -88 -58 -155 -144 -187l156 -266h-129l-140 251h-232v-251zM460 553h-248v-202h268c59 0 109 46 109 102c0 25 -10 47 -27 65c-31 32 -67 35 -102 35z" />
    <glyph glyph-name="Rupee.cap" horiz-adv-x="833" 
d="M114 385v70h446c-4 22 -12 45 -25 62c-27 34 -70 36 -101 36h-320v100h658v-70h-160c38 -32 56 -79 61 -128h99v-70h-99c-6 -50 -24 -100 -60 -135c-38 -37 -95 -53 -179 -53l-98 8l356 -205h-205l-373 216v71h320c30 0 70 1 98 33c14 16 23 40 28 65h-446z" />
    <glyph glyph-name="section.cap" horiz-adv-x="723" 
d="M623 111c-18 -20 -39 -36 -63 -49c5 -6 9 -15 13 -23c8 -17 13 -36 13 -61c0 -122 -125 -164 -227 -164c-75 0 -157 22 -215 59l48 77c43 -27 107 -46 167 -46c42 0 115 13 115 71c0 13 -3 23 -10 31c-23 25 -77 27 -131 34c-66 8 -177 26 -239 92c-28 29 -46 67 -46 118
c0 53 21 95 51 128c18 19 39 36 62 49c-5 6 -9 13 -12 20c-8 18 -13 39 -13 65c0 122 124 164 227 164c75 0 157 -22 215 -59l-48 -77c-43 27 -107 46 -167 46c-37 0 -115 -10 -115 -71c0 -14 3 -24 10 -32c23 -24 77 -26 131 -33c67 -8 178 -27 239 -92
c28 -29 46 -67 46 -118c0 -53 -20 -96 -51 -129zM388 352c-46 5 -112 10 -164 32c-9 -7 -16 -16 -25 -26c-23 -26 -39 -57 -39 -94c0 -30 10 -53 26 -70c34 -38 98 -50 148 -56c46 -5 112 -10 164 -32c9 7 16 16 25 26c23 26 39 57 39 94c0 30 -10 53 -26 70
c-34 38 -98 50 -148 56z" />
    <glyph glyph-name="numbersign.cap" horiz-adv-x="912" 
d="M608 709h83l-35 -207h206v-80h-219l-35 -213h195v-80h-208l-39 -240h-83l39 240h-177l-39 -240h-83l39 240h-203v80h216l35 213h-192v80h205l35 207h83l-35 -207h177zM383 422l-35 -213h177l35 213h-177z" />
    <glyph glyph-name="percent.cap" horiz-adv-x="1077" 
d="M680 653h88l-370 -653h-89zM50 481c0 102 89 188 201 188c111 0 204 -86 204 -188c0 -104 -93 -189 -204 -189c-112 0 -201 85 -201 189zM146 481c0 -56 47 -103 105 -103c59 0 108 47 108 103s-49 102 -108 102c-58 0 -105 -46 -105 -102zM622 173c0 102 89 188 201 188
c111 0 204 -86 204 -188c0 -104 -93 -189 -204 -189c-112 0 -201 85 -201 189zM718 173c0 -56 47 -103 105 -103c59 0 108 47 108 103s-49 102 -108 102c-58 0 -105 -46 -105 -102z" />
    <glyph glyph-name="perthousand.cap" horiz-adv-x="1534" 
d="M683 653h88l-370 -653h-89zM53 481c0 102 89 188 201 188c111 0 204 -86 204 -188c0 -104 -93 -189 -204 -189c-112 0 -201 85 -201 189zM149 481c0 -56 47 -103 105 -103c59 0 108 47 108 103s-49 102 -108 102c-58 0 -105 -46 -105 -102zM625 173c0 102 89 188 201 188
c111 0 204 -86 204 -188c0 -104 -93 -189 -204 -189c-112 0 -201 85 -201 189zM721 173c0 -56 47 -103 105 -103c59 0 108 47 108 103s-49 102 -108 102c-58 0 -105 -46 -105 -102zM1080 173c0 102 89 188 201 188c111 0 204 -86 204 -188c0 -104 -93 -189 -204 -189
c-112 0 -201 85 -201 189zM1176 173c0 -56 47 -103 105 -103c59 0 108 47 108 103s-49 102 -108 102c-58 0 -105 -46 -105 -102z" />
    <glyph glyph-name="aacute" unicode="&#xe1;" horiz-adv-x="605" 
d="M111 352l-36 85c44 27 130 62 229 62c109 0 219 -36 219 -142v-270c0 -25 2 -61 13 -87h-104c-6 14 -10 41 -12 60c-38 -33 -91 -70 -184 -70c-115 0 -190 68 -190 166c0 86 79 155 223 155c53 0 117 -12 151 -37v53c0 59 -52 84 -121 84c-75 0 -154 -35 -188 -59z
M258 76c90 0 152 58 162 69v49c-22 16 -73 36 -134 36c-101 0 -136 -32 -136 -74c0 -45 39 -80 108 -80zM314 697h119l-106 -146h-93z" />
    <glyph glyph-name="agrave" unicode="&#xe0;" horiz-adv-x="605" 
d="M111 352l-36 85c44 27 130 62 229 62c109 0 219 -36 219 -142v-270c0 -25 2 -61 13 -87h-104c-6 14 -10 41 -12 60c-38 -33 -91 -70 -184 -70c-115 0 -190 68 -190 166c0 86 79 155 223 155c53 0 117 -12 151 -37v53c0 59 -52 84 -121 84c-75 0 -154 -35 -188 -59z
M258 76c90 0 152 58 162 69v49c-22 16 -73 36 -134 36c-101 0 -136 -32 -136 -74c0 -45 39 -80 108 -80zM171 697h119l80 -146h-93z" />
    <glyph glyph-name="acircumflex" unicode="&#xe2;" horiz-adv-x="605" 
d="M111 352l-36 85c44 27 130 62 229 62c109 0 219 -36 219 -142v-270c0 -25 2 -61 13 -87h-104c-6 14 -10 41 -12 60c-38 -33 -91 -70 -184 -70c-115 0 -190 68 -190 166c0 86 79 155 223 155c53 0 117 -12 151 -37v53c0 59 -52 84 -121 84c-75 0 -154 -35 -188 -59z
M258 76c90 0 152 58 162 69v49c-22 16 -73 36 -134 36c-101 0 -136 -32 -136 -74c0 -45 39 -80 108 -80zM141 552l103 136h116l102 -136h-83l-77 78l-78 -78h-83z" />
    <glyph glyph-name="adieresis" unicode="&#xe4;" horiz-adv-x="605" 
d="M111 352l-36 85c44 27 130 62 229 62c109 0 219 -36 219 -142v-270c0 -25 2 -61 13 -87h-104c-6 14 -10 41 -12 60c-38 -33 -91 -70 -184 -70c-115 0 -190 68 -190 166c0 86 79 155 223 155c53 0 117 -12 151 -37v53c0 59 -52 84 -121 84c-75 0 -154 -35 -188 -59z
M258 76c90 0 152 58 162 69v49c-22 16 -73 36 -134 36c-101 0 -136 -32 -136 -74c0 -45 39 -80 108 -80zM134 617c0 31 26 57 61 57s62 -27 62 -57c0 -32 -27 -56 -62 -56s-61 24 -61 56zM346 617c0 31 26 57 61 57s62 -27 62 -57c0 -32 -27 -56 -62 -56s-61 24 -61 56z" />
    <glyph glyph-name="atilde" unicode="&#xe3;" horiz-adv-x="605" 
d="M111 352l-36 85c44 27 130 62 229 62c109 0 219 -36 219 -142v-270c0 -25 2 -61 13 -87h-104c-6 14 -10 41 -12 60c-38 -33 -91 -70 -184 -70c-115 0 -190 68 -190 166c0 86 79 155 223 155c53 0 117 -12 151 -37v53c0 59 -52 84 -121 84c-75 0 -154 -35 -188 -59z
M258 76c90 0 152 58 162 69v49c-22 16 -73 36 -134 36c-101 0 -136 -32 -136 -74c0 -45 39 -80 108 -80zM188 551l-67 36c38 65 72 88 114 88c28 0 48 -10 71 -26c19 -13 36 -26 55 -26c24 0 40 23 56 45l62 -34c-33 -59 -69 -89 -114 -89c-27 0 -52 11 -70 24
c-21 15 -36 28 -54 28c-24 0 -38 -25 -53 -46z" />
    <glyph glyph-name="aring" unicode="&#xe5;" horiz-adv-x="605" 
d="M111 352l-36 85c44 27 130 62 229 62c109 0 219 -36 219 -142v-270c0 -25 2 -61 13 -87h-104c-6 14 -10 41 -12 60c-38 -33 -91 -70 -184 -70c-115 0 -190 68 -190 166c0 86 79 155 223 155c53 0 117 -12 151 -37v53c0 59 -52 84 -121 84c-75 0 -154 -35 -188 -59z
M258 76c90 0 152 58 162 69v49c-22 16 -73 36 -134 36c-101 0 -136 -32 -136 -74c0 -45 39 -80 108 -80zM235 644c0 -32 27 -54 64 -54c38 0 65 22 65 54c0 34 -27 60 -65 60c-37 0 -64 -26 -64 -60zM173 644c0 56 44 105 126 105s128 -49 128 -105
c0 -55 -46 -101 -128 -101s-126 46 -126 101z" />
    <glyph glyph-name="abreve" unicode="&#x103;" horiz-adv-x="605" 
d="M111 352l-36 85c44 27 130 62 229 62c109 0 219 -36 219 -142v-270c0 -25 2 -61 13 -87h-104c-6 14 -10 41 -12 60c-38 -33 -91 -70 -184 -70c-115 0 -190 68 -190 166c0 86 79 155 223 155c53 0 117 -12 151 -37v53c0 59 -52 84 -121 84c-75 0 -154 -35 -188 -59z
M258 76c90 0 152 58 162 69v49c-22 16 -73 36 -134 36c-101 0 -136 -32 -136 -74c0 -45 39 -80 108 -80zM152 686h75c0 -34 13 -73 75 -73s75 39 75 73h74c0 -62 -27 -143 -149 -143s-150 81 -150 143z" />
    <glyph glyph-name="amacron" unicode="&#x101;" horiz-adv-x="605" 
d="M111 352l-36 85c44 27 130 62 229 62c109 0 219 -36 219 -142v-270c0 -25 2 -61 13 -87h-104c-6 14 -10 41 -12 60c-38 -33 -91 -70 -184 -70c-115 0 -190 68 -190 166c0 86 79 155 223 155c53 0 117 -12 151 -37v53c0 59 -52 84 -121 84c-75 0 -154 -35 -188 -59z
M258 76c90 0 152 58 162 69v49c-22 16 -73 36 -134 36c-101 0 -136 -32 -136 -74c0 -45 39 -80 108 -80zM171 657h261v-80h-261v80z" />
    <glyph glyph-name="aogonek" unicode="&#x105;" horiz-adv-x="605" 
d="M111 352l-36 85c44 27 130 62 229 62c109 0 219 -36 219 -142v-270c0 -25 2 -61 13 -87c-32 -14 -109 -51 -109 -106c0 -33 27 -52 69 -52c19 0 40 4 62 8l9 -64c-30 -8 -62 -12 -89 -12c-87 0 -141 40 -141 100c0 57 49 99 95 126c-6 14 -10 41 -12 60
c-38 -33 -91 -70 -184 -70c-115 0 -190 68 -190 166c0 86 79 155 223 155c53 0 117 -12 151 -37v53c0 59 -52 84 -121 84c-75 0 -154 -35 -188 -59zM258 76c90 0 152 58 162 69v49c-22 16 -73 36 -134 36c-101 0 -136 -32 -136 -74c0 -45 39 -80 108 -80z" />
    <glyph glyph-name="aringacute" unicode="&#x1fb;" horiz-adv-x="605" 
d="M111 352l-36 85c44 27 130 62 229 62c109 0 219 -36 219 -142v-270c0 -25 2 -61 13 -87h-104c-6 14 -10 41 -12 60c-38 -33 -91 -70 -184 -70c-115 0 -190 68 -190 166c0 86 79 155 223 155c53 0 117 -12 151 -37v53c0 59 -52 84 -121 84c-75 0 -154 -35 -188 -59z
M258 76c90 0 152 58 162 69v49c-22 16 -73 36 -134 36c-101 0 -136 -32 -136 -74c0 -45 39 -80 108 -80zM235 644c0 -32 27 -54 64 -54c38 0 65 22 65 54c0 34 -27 60 -65 60c-37 0 -64 -26 -64 -60zM173 644c0 56 44 105 126 105s128 -49 128 -105
c0 -55 -46 -101 -128 -101s-126 46 -126 101zM219 782l100 130h136l-137 -130h-99z" />
    <glyph glyph-name="ccedilla" unicode="&#xe7;" horiz-adv-x="564" 
d="M517 420l-69 -69c-38 38 -90 57 -138 57c-80 0 -145 -65 -145 -165c0 -102 68 -167 151 -167c60 0 108 30 144 66l69 -65c-19 -23 -90 -85 -205 -91l-18 -40c10 3 19 5 30 5c50 1 103 -27 103 -80c0 -59 -68 -97 -164 -97c-52 0 -98 11 -143 22l16 57
c41 -8 83 -17 122 -17c46 0 76 12 76 36c0 22 -24 27 -47 27c-17 0 -31 -3 -43 -5l-27 32l30 63c-116 20 -207 115 -207 254c0 154 116 256 258 256c74 0 149 -25 207 -79z" />
    <glyph glyph-name="cacute" unicode="&#x107;" horiz-adv-x="564" 
d="M517 420l-69 -69c-38 38 -90 57 -138 57c-80 0 -145 -65 -145 -165c0 -102 68 -167 151 -167c60 0 108 30 144 66l69 -65c-20 -24 -97 -92 -223 -92c-137 0 -254 101 -254 258c0 154 116 256 258 256c74 0 149 -25 207 -79zM322 697h119l-106 -146h-93z" />
    <glyph glyph-name="ccaron" unicode="&#x10d;" horiz-adv-x="564" 
d="M517 420l-69 -69c-38 38 -90 57 -138 57c-80 0 -145 -65 -145 -165c0 -102 68 -167 151 -167c60 0 108 30 144 66l69 -65c-20 -24 -97 -92 -223 -92c-137 0 -254 101 -254 258c0 154 116 256 258 256c74 0 149 -25 207 -79zM149 689h83l78 -78l77 78h83l-102 -137h-116z
" />
    <glyph glyph-name="ccircumflex" unicode="&#x109;" horiz-adv-x="564" 
d="M517 420l-69 -69c-38 38 -90 57 -138 57c-80 0 -145 -65 -145 -165c0 -102 68 -167 151 -167c60 0 108 30 144 66l69 -65c-20 -24 -97 -92 -223 -92c-137 0 -254 101 -254 258c0 154 116 256 258 256c74 0 149 -25 207 -79zM149 552l103 136h116l102 -136h-83l-77 78
l-78 -78h-83z" />
    <glyph glyph-name="cdotaccent" unicode="&#x10b;" horiz-adv-x="564" 
d="M517 420l-69 -69c-38 38 -90 57 -138 57c-80 0 -145 -65 -145 -165c0 -102 68 -167 151 -167c60 0 108 30 144 66l69 -65c-20 -24 -97 -92 -223 -92c-137 0 -254 101 -254 258c0 154 116 256 258 256c74 0 149 -25 207 -79zM249 617c0 31 26 57 61 57s62 -27 62 -57
c0 -32 -27 -56 -62 -56s-61 24 -61 56z" />
    <glyph glyph-name="dcaron" unicode="&#x10f;" horiz-adv-x="629" 
d="M551 0h-95c-5 21 -7 46 -7 67c-21 -32 -81 -82 -159 -82c-130 0 -237 101 -237 258c0 154 108 256 237 256c54 0 106 -23 149 -65v266h103v-567c0 -42 0 -87 9 -133zM439 143v198c-40 41 -89 67 -139 67c-74 0 -133 -65 -133 -165c0 -102 60 -168 133 -168
c74 0 123 48 139 68zM666 474h-58v226h103c0 -93 -12 -158 -45 -226z" />
    <glyph glyph-name="dcroat" unicode="&#x111;" horiz-adv-x="629" 
d="M300 558v70h139v72h103v-72h73v-70h-73v-425c0 -42 0 -87 9 -133h-95c-5 21 -7 46 -7 67c-21 -32 -81 -82 -159 -82c-130 0 -237 101 -237 258c0 154 108 256 237 256c54 0 106 -23 149 -65v124h-139zM300 408c-74 0 -133 -65 -133 -165c0 -102 60 -168 133 -168
c74 0 123 48 139 68v198c-40 41 -89 67 -139 67z" />
    <glyph glyph-name="eacute" unicode="&#xe9;" horiz-adv-x="597" 
d="M464 142l69 -67c-53 -51 -141 -90 -238 -90c-155 0 -243 115 -243 253c0 145 103 261 252 261c116 0 243 -71 243 -251c0 -9 0 -19 -1 -29h-390c7 -79 56 -143 150 -143c60 0 120 26 158 66zM299 413c-74 0 -120 -50 -137 -113h271c-1 77 -70 113 -134 113zM315 697h119
l-106 -146h-93z" />
    <glyph glyph-name="egrave" unicode="&#xe8;" horiz-adv-x="597" 
d="M464 142l69 -67c-53 -51 -141 -90 -238 -90c-155 0 -243 115 -243 253c0 145 103 261 252 261c116 0 243 -71 243 -251c0 -9 0 -19 -1 -29h-390c7 -79 56 -143 150 -143c60 0 120 26 158 66zM299 413c-74 0 -120 -50 -137 -113h271c-1 77 -70 113 -134 113zM172 697h119
l80 -146h-93z" />
    <glyph glyph-name="ecircumflex" unicode="&#xea;" horiz-adv-x="597" 
d="M464 142l69 -67c-53 -51 -141 -90 -238 -90c-155 0 -243 115 -243 253c0 145 103 261 252 261c116 0 243 -71 243 -251c0 -9 0 -19 -1 -29h-390c7 -79 56 -143 150 -143c60 0 120 26 158 66zM299 413c-74 0 -120 -50 -137 -113h271c-1 77 -70 113 -134 113zM142 552
l103 136h116l102 -136h-83l-77 78l-78 -78h-83z" />
    <glyph glyph-name="edieresis" unicode="&#xeb;" horiz-adv-x="597" 
d="M464 142l69 -67c-53 -51 -141 -90 -238 -90c-155 0 -243 115 -243 253c0 145 103 261 252 261c116 0 243 -71 243 -251c0 -9 0 -19 -1 -29h-390c7 -79 56 -143 150 -143c60 0 120 26 158 66zM299 413c-74 0 -120 -50 -137 -113h271c-1 77 -70 113 -134 113zM135 617
c0 31 26 57 61 57s62 -27 62 -57c0 -32 -27 -56 -62 -56s-61 24 -61 56zM347 617c0 31 26 57 61 57s62 -27 62 -57c0 -32 -27 -56 -62 -56s-61 24 -61 56z" />
    <glyph glyph-name="ebreve" unicode="&#x115;" horiz-adv-x="597" 
d="M464 142l69 -67c-53 -51 -141 -90 -238 -90c-155 0 -243 115 -243 253c0 145 103 261 252 261c116 0 243 -71 243 -251c0 -9 0 -19 -1 -29h-390c7 -79 56 -143 150 -143c60 0 120 26 158 66zM299 413c-74 0 -120 -50 -137 -113h271c-1 77 -70 113 -134 113zM153 686h75
c0 -34 13 -73 75 -73s75 39 75 73h74c0 -62 -27 -143 -149 -143s-150 81 -150 143z" />
    <glyph glyph-name="ecaron" unicode="&#x11b;" horiz-adv-x="597" 
d="M464 142l69 -67c-53 -51 -141 -90 -238 -90c-155 0 -243 115 -243 253c0 145 103 261 252 261c116 0 243 -71 243 -251c0 -9 0 -19 -1 -29h-390c7 -79 56 -143 150 -143c60 0 120 26 158 66zM299 413c-74 0 -120 -50 -137 -113h271c-1 77 -70 113 -134 113zM142 689h83
l78 -78l77 78h83l-102 -137h-116z" />
    <glyph glyph-name="edotaccent" unicode="&#x117;" horiz-adv-x="597" 
d="M464 142l69 -67c-53 -51 -141 -90 -238 -90c-155 0 -243 115 -243 253c0 145 103 261 252 261c116 0 243 -71 243 -251c0 -9 0 -19 -1 -29h-390c7 -79 56 -143 150 -143c60 0 120 26 158 66zM299 413c-74 0 -120 -50 -137 -113h271c-1 77 -70 113 -134 113zM242 617
c0 31 26 57 61 57s62 -27 62 -57c0 -32 -27 -56 -62 -56s-61 24 -61 56z" />
    <glyph glyph-name="emacron" unicode="&#x113;" horiz-adv-x="597" 
d="M464 142l69 -67c-53 -51 -141 -90 -238 -90c-155 0 -243 115 -243 253c0 145 103 261 252 261c116 0 243 -71 243 -251c0 -9 0 -19 -1 -29h-390c7 -79 56 -143 150 -143c60 0 120 26 158 66zM299 413c-74 0 -120 -50 -137 -113h271c-1 77 -70 113 -134 113zM172 657h261
v-80h-261v80z" />
    <glyph glyph-name="eogonek" unicode="&#x119;" horiz-adv-x="597" 
d="M464 142l69 -67c-34 -32 -81 -59 -135 -75c-32 -14 -109 -51 -109 -106c0 -33 27 -52 69 -52c19 0 40 4 62 8l9 -64c-30 -8 -62 -12 -89 -12c-87 0 -141 40 -141 100c0 48 34 86 72 112c-140 11 -219 121 -219 252c0 145 103 261 252 261c116 0 243 -71 243 -251
c0 -9 0 -19 -1 -29h-390c7 -79 56 -143 150 -143c60 0 120 26 158 66zM299 413c-74 0 -120 -50 -137 -113h271c-1 77 -70 113 -134 113z" />
    <glyph glyph-name="gbreve" unicode="&#x11f;" horiz-adv-x="629" 
d="M439 -25v84c-43 -48 -95 -74 -149 -74c-129 0 -237 101 -237 255c0 157 107 259 237 259c78 0 138 -56 159 -88c0 24 2 49 7 73h95c-9 -46 -9 -91 -9 -133v-376c0 -111 -82 -202 -242 -202c-111 0 -177 36 -221 80l61 62c32 -31 79 -56 160 -56c91 0 139 50 139 116z
M300 75c50 0 99 26 139 67v198c-16 20 -65 68 -139 68c-73 0 -133 -66 -133 -168c0 -100 59 -165 133 -165zM164 686h75c0 -34 13 -73 75 -73s75 39 75 73h74c0 -62 -27 -143 -149 -143s-150 81 -150 143z" />
    <glyph glyph-name="gcircumflex" unicode="&#x11d;" horiz-adv-x="629" 
d="M439 -25v84c-43 -48 -95 -74 -149 -74c-129 0 -237 101 -237 255c0 157 107 259 237 259c78 0 138 -56 159 -88c0 24 2 49 7 73h95c-9 -46 -9 -91 -9 -133v-376c0 -111 -82 -202 -242 -202c-111 0 -177 36 -221 80l61 62c32 -31 79 -56 160 -56c91 0 139 50 139 116z
M300 75c50 0 99 26 139 67v198c-16 20 -65 68 -139 68c-73 0 -133 -66 -133 -168c0 -100 59 -165 133 -165zM153 552l103 136h116l102 -136h-83l-77 78l-78 -78h-83z" />
    <glyph glyph-name="uni0123" unicode="&#x123;" horiz-adv-x="629" 
d="M355 562l-85 -17c-21 18 -50 45 -50 92c0 67 57 113 155 113c18 0 35 -1 56 -7v-63c-15 3 -32 3 -46 3c-44 0 -68 -16 -68 -52c0 -31 19 -51 38 -69zM439 -25v84c-43 -48 -95 -74 -149 -74c-129 0 -237 101 -237 255c0 157 107 259 237 259c78 0 138 -56 159 -88
c0 24 2 49 7 73h95c-9 -46 -9 -91 -9 -133v-376c0 -111 -82 -202 -242 -202c-111 0 -177 36 -221 80l61 62c32 -31 79 -56 160 -56c91 0 139 50 139 116zM300 75c50 0 99 26 139 67v198c-16 20 -65 68 -139 68c-73 0 -133 -66 -133 -168c0 -100 59 -165 133 -165z" />
    <glyph glyph-name="gdotaccent" unicode="&#x121;" horiz-adv-x="629" 
d="M439 -25v84c-43 -48 -95 -74 -149 -74c-129 0 -237 101 -237 255c0 157 107 259 237 259c78 0 138 -56 159 -88c0 24 2 49 7 73h95c-9 -46 -9 -91 -9 -133v-376c0 -111 -82 -202 -242 -202c-111 0 -177 36 -221 80l61 62c32 -31 79 -56 160 -56c91 0 139 50 139 116z
M300 75c50 0 99 26 139 67v198c-16 20 -65 68 -139 68c-73 0 -133 -66 -133 -168c0 -100 59 -165 133 -165zM253 617c0 31 26 57 61 57s62 -27 62 -57c0 -32 -27 -56 -62 -56s-61 24 -61 56z" />
    <glyph glyph-name="hbar" unicode="&#x127;" horiz-adv-x="604" 
d="M328 628v-70h-139v-134c30 36 78 75 141 75c116 0 194 -72 194 -172v-327h-104v327c0 44 -41 81 -100 81s-102 -40 -131 -77v-331h-103v558h-73v70h73v72h103v-72h139z" />
    <glyph glyph-name="hcircumflex" unicode="&#x125;" horiz-adv-x="604" 
d="M-18 769l103 133h116l102 -133h-83l-77 74l-78 -74h-83zM189 0h-103v700h103v-276c30 36 78 75 141 75c116 0 194 -72 194 -172v-327h-104v327c0 44 -41 81 -100 81s-102 -40 -131 -77v-331z" />
    <glyph glyph-name="iacute" unicode="&#xed;" horiz-adv-x="275" 
d="M189 0h-103v483h103v-483zM150 697h119l-106 -146h-93z" />
    <glyph glyph-name="igrave" unicode="&#xec;" horiz-adv-x="275" 
d="M189 0h-103v483h103v-483zM7 697h119l80 -146h-93z" />
    <glyph glyph-name="icircumflex" unicode="&#xee;" horiz-adv-x="275" 
d="M189 0h-103v483h103v-483zM-23 552l103 136h116l102 -136h-83l-77 78l-78 -78h-83z" />
    <glyph glyph-name="idieresis" unicode="&#xef;" horiz-adv-x="275" 
d="M189 0h-103v483h103v-483zM-30 617c0 31 26 57 61 57s62 -27 62 -57c0 -32 -27 -56 -62 -56s-61 24 -61 56zM182 617c0 31 26 57 61 57s62 -27 62 -57c0 -32 -27 -56 -62 -56s-61 24 -61 56z" />
    <glyph glyph-name="ibreve" unicode="&#x12d;" horiz-adv-x="275" 
d="M189 0h-103v483h103v-483zM-12 686h75c0 -34 13 -73 75 -73s75 39 75 73h74c0 -62 -27 -143 -149 -143s-150 81 -150 143z" />
    <glyph glyph-name="imacron" unicode="&#x12b;" horiz-adv-x="275" 
d="M189 0h-103v483h103v-483zM7 657h261v-80h-261v80z" />
    <glyph glyph-name="iogonek" unicode="&#x12f;" horiz-adv-x="275" 
d="M189 0c-32 -14 -109 -51 -109 -106c0 -33 27 -52 69 -52c19 0 40 4 62 8l9 -64c-30 -8 -62 -12 -89 -12c-87 0 -141 40 -141 100c0 58 50 100 96 126v483h103v-483zM72 640c0 33 28 60 65 60s66 -28 66 -60c0 -33 -29 -59 -66 -59s-65 26 -65 59z" />
    <glyph glyph-name="itilde" unicode="&#x129;" horiz-adv-x="275" 
d="M189 0h-103v483h103v-483zM24 551l-67 36c38 65 72 88 114 88c28 0 48 -10 71 -26c19 -13 36 -26 55 -26c24 0 40 23 56 45l62 -34c-33 -59 -69 -89 -114 -89c-27 0 -52 11 -70 24c-21 15 -36 28 -54 28c-24 0 -38 -25 -53 -46z" />
    <glyph glyph-name="ij" unicode="&#x133;" horiz-adv-x="550" 
d="M189 0h-103v483h103v-483zM72 640c0 33 28 60 65 60s66 -28 66 -60c0 -33 -29 -59 -66 -59s-65 26 -65 59zM298 -227l-30 81c44 10 93 24 93 99v530h103v-530c0 -133 -93 -180 -166 -180zM347 640c0 33 28 60 65 60s66 -28 66 -60c0 -33 -29 -59 -66 -59s-65 26 -65 59z
" />
    <glyph glyph-name="dotlessi" unicode="&#x131;" horiz-adv-x="275" 
d="M189 0h-103v483h103v-483z" />
    <glyph glyph-name="jcircumflex" unicode="&#x135;" horiz-adv-x="275" 
d="M23 -227l-30 81c44 10 93 24 93 99v530h103v-530c0 -133 -93 -180 -166 -180zM-23 552l103 136h116l102 -136h-83l-77 78l-78 -78h-83z" />
    <glyph glyph-name="dotlessj" unicode="&#x237;" horiz-adv-x="275" 
d="M23 -227l-30 81c44 10 93 24 93 99v530h103v-530c0 -133 -93 -180 -166 -180z" />
    <glyph glyph-name="uni0137" unicode="&#x137;" horiz-adv-x="572" 
d="M400 483h139l-191 -175l220 -308h-129l-167 239l-82 -75v-164h-104v700h104v-424zM255 -59l85 17c21 -18 50 -45 50 -92c0 -67 -57 -113 -155 -113c-18 0 -35 1 -56 7v63c15 -3 32 -3 46 -3c44 0 68 16 68 52c0 31 -19 51 -38 69z" />
    <glyph glyph-name="kgreenlandic" unicode="&#x138;" horiz-adv-x="572" 
d="M400 484h139l-192 -175l221 -309h-129l-167 239l-82 -75v-164h-104v484h104v-207z" />
    <glyph glyph-name="lacute" unicode="&#x13a;" horiz-adv-x="285" 
d="M91 0v700h103v-700h-103zM60 769l100 130h136l-137 -130h-99z" />
    <glyph glyph-name="lcaron" unicode="&#x13e;" horiz-adv-x="285" 
d="M194 0h-103v700h103v-700zM317 474h-58v226h103c0 -93 -12 -158 -45 -226z" />
    <glyph glyph-name="uni013C" unicode="&#x13c;" horiz-adv-x="285" 
d="M194 0h-103v700h103v-700zM118 -59l85 17c21 -18 50 -45 50 -92c0 -67 -57 -113 -155 -113c-18 0 -35 1 -56 7v63c15 -3 32 -3 46 -3c44 0 68 16 68 52c0 31 -19 51 -38 69z" />
    <glyph glyph-name="ldot" unicode="&#x140;" horiz-adv-x="328" 
d="M227 359c0 31 26 57 61 57s62 -27 62 -57c0 -32 -27 -56 -62 -56s-61 24 -61 56zM194 0h-103v700h103v-700z" />
    <glyph glyph-name="lslash" unicode="&#x142;" horiz-adv-x="325" 
d="M214 0h-103v304l-63 -36l-35 60l98 57v315h103v-255l83 48l35 -60l-118 -69v-364z" />
    <glyph glyph-name="ntilde" unicode="&#xf1;" horiz-adv-x="605" 
d="M179 412c36 44 80 87 160 87c104 0 186 -72 186 -172v-327h-104v327c0 44 -41 81 -99 81c-60 0 -102 -39 -132 -77v-331h-103v350c0 43 -3 87 -12 133h94c6 -25 8 -43 10 -71zM188 551l-67 36c38 65 72 88 114 88c28 0 48 -10 71 -26c19 -13 36 -26 55 -26
c24 0 40 23 56 45l62 -34c-33 -59 -69 -89 -114 -89c-27 0 -52 11 -70 24c-21 15 -36 28 -54 28c-24 0 -38 -25 -53 -46z" />
    <glyph glyph-name="nacute" unicode="&#x144;" horiz-adv-x="605" 
d="M179 412c36 44 80 87 160 87c104 0 186 -72 186 -172v-327h-104v327c0 44 -41 81 -99 81c-60 0 -102 -39 -132 -77v-331h-103v350c0 43 -3 87 -12 133h94c6 -25 8 -43 10 -71zM314 697h119l-106 -146h-93z" />
    <glyph glyph-name="ncaron" unicode="&#x148;" horiz-adv-x="605" 
d="M179 412c36 44 80 87 160 87c104 0 186 -72 186 -172v-327h-104v327c0 44 -41 81 -99 81c-60 0 -102 -39 -132 -77v-331h-103v350c0 43 -3 87 -12 133h94c6 -25 8 -43 10 -71zM141 689h83l78 -78l77 78h83l-102 -137h-116z" />
    <glyph glyph-name="uni0146" unicode="&#x146;" horiz-adv-x="605" 
d="M179 412c36 44 80 87 160 87c104 0 186 -72 186 -172v-327h-104v327c0 44 -41 81 -99 81c-60 0 -102 -39 -132 -77v-331h-103v350c0 43 -3 87 -12 133h94c6 -25 8 -43 10 -71zM261 -59l85 17c21 -18 50 -45 50 -92c0 -67 -57 -113 -155 -113c-18 0 -35 1 -56 7v63
c15 -3 32 -3 46 -3c44 0 68 16 68 52c0 31 -19 51 -38 69z" />
    <glyph glyph-name="eng" unicode="&#x14b;" horiz-adv-x="605" 
d="M525 327v-374c0 -133 -94 -180 -167 -180l-30 81c44 10 93 24 93 99v374c0 44 -41 81 -99 81c-60 0 -102 -39 -132 -77v-331h-103v350c0 43 -3 87 -12 133h94c6 -25 8 -43 10 -71c36 44 80 87 160 87c104 0 186 -72 186 -172z" />
    <glyph glyph-name="napostrophe" unicode="&#x149;" horiz-adv-x="605" 
d="M-7 524l-35 51c35 10 94 44 94 87v7c-6 -2 -14 -4 -22 -4c-29 0 -51 23 -51 52c0 31 26 54 61 54c43 0 84 -37 84 -87c0 -96 -76 -139 -131 -160zM179 412c36 44 80 87 160 87c104 0 186 -72 186 -172v-327h-104v327c0 44 -41 81 -99 81c-60 0 -102 -39 -132 -77v-331
h-103v350c0 43 -3 87 -12 133h94c6 -25 8 -43 10 -71z" />
    <glyph glyph-name="oacute" unicode="&#xf3;" horiz-adv-x="618" 
d="M52 243c0 142 103 256 256 256c154 0 258 -114 258 -256c0 -145 -104 -258 -258 -258c-153 0 -256 113 -256 258zM159 243c0 -93 55 -172 149 -172c96 0 152 79 152 172c0 90 -56 170 -152 170c-94 0 -149 -80 -149 -170zM321 697h119l-106 -146h-93z" />
    <glyph glyph-name="ograve" unicode="&#xf2;" horiz-adv-x="618" 
d="M52 243c0 142 103 256 256 256c154 0 258 -114 258 -256c0 -145 -104 -258 -258 -258c-153 0 -256 113 -256 258zM159 243c0 -93 55 -172 149 -172c96 0 152 79 152 172c0 90 -56 170 -152 170c-94 0 -149 -80 -149 -170zM178 697h119l80 -146h-93z" />
    <glyph glyph-name="ocircumflex" unicode="&#xf4;" horiz-adv-x="618" 
d="M52 243c0 142 103 256 256 256c154 0 258 -114 258 -256c0 -145 -104 -258 -258 -258c-153 0 -256 113 -256 258zM159 243c0 -93 55 -172 149 -172c96 0 152 79 152 172c0 90 -56 170 -152 170c-94 0 -149 -80 -149 -170zM148 552l103 136h116l102 -136h-83l-77 78
l-78 -78h-83z" />
    <glyph glyph-name="odieresis" unicode="&#xf6;" horiz-adv-x="618" 
d="M52 243c0 142 103 256 256 256c154 0 258 -114 258 -256c0 -145 -104 -258 -258 -258c-153 0 -256 113 -256 258zM159 243c0 -93 55 -172 149 -172c96 0 152 79 152 172c0 90 -56 170 -152 170c-94 0 -149 -80 -149 -170zM141 617c0 31 26 57 61 57s62 -27 62 -57
c0 -32 -27 -56 -62 -56s-61 24 -61 56zM353 617c0 31 26 57 61 57s62 -27 62 -57c0 -32 -27 -56 -62 -56s-61 24 -61 56z" />
    <glyph glyph-name="otilde" unicode="&#xf5;" horiz-adv-x="618" 
d="M52 243c0 142 103 256 256 256c154 0 258 -114 258 -256c0 -145 -104 -258 -258 -258c-153 0 -256 113 -256 258zM159 243c0 -93 55 -172 149 -172c96 0 152 79 152 172c0 90 -56 170 -152 170c-94 0 -149 -80 -149 -170zM195 551l-67 36c38 65 72 88 114 88
c28 0 48 -10 71 -26c19 -13 36 -26 55 -26c24 0 40 23 56 45l62 -34c-33 -59 -69 -89 -114 -89c-27 0 -52 11 -70 24c-21 15 -36 28 -54 28c-24 0 -38 -25 -53 -46z" />
    <glyph glyph-name="obreve" unicode="&#x14f;" horiz-adv-x="618" 
d="M52 243c0 142 103 256 256 256c154 0 258 -114 258 -256c0 -145 -104 -258 -258 -258c-153 0 -256 113 -256 258zM159 243c0 -93 55 -172 149 -172c96 0 152 79 152 172c0 90 -56 170 -152 170c-94 0 -149 -80 -149 -170zM159 686h75c0 -34 13 -73 75 -73s75 39 75 73h74
c0 -62 -27 -143 -149 -143s-150 81 -150 143z" />
    <glyph glyph-name="ohungarumlaut" unicode="&#x151;" horiz-adv-x="618" 
d="M52 243c0 142 103 256 256 256c154 0 258 -114 258 -256c0 -145 -104 -258 -258 -258c-153 0 -256 113 -256 258zM159 243c0 -93 55 -172 149 -172c96 0 152 79 152 172c0 90 -56 170 -152 170c-94 0 -149 -80 -149 -170zM241 549h-67l44 140h95zM417 549h-66l44 140h95z
" />
    <glyph glyph-name="omacron" unicode="&#x14d;" horiz-adv-x="618" 
d="M52 243c0 142 103 256 256 256c154 0 258 -114 258 -256c0 -145 -104 -258 -258 -258c-153 0 -256 113 -256 258zM159 243c0 -93 55 -172 149 -172c96 0 152 79 152 172c0 90 -56 170 -152 170c-94 0 -149 -80 -149 -170zM178 657h261v-80h-261v80z" />
    <glyph glyph-name="oslash" unicode="&#xf8;" horiz-adv-x="618" 
d="M52 243c0 142 103 256 256 256c44 0 85 -10 120 -27l50 72l58 -40l-50 -72c50 -46 80 -114 80 -189c0 -145 -104 -258 -258 -258c-44 0 -84 10 -118 26l-50 -71l-58 40l50 71c-51 47 -80 114 -80 192zM460 243c0 40 -11 77 -32 107l-186 -264c19 -10 41 -15 66 -15
c96 0 152 79 152 172zM159 243c0 -41 11 -80 31 -110l185 264c-19 10 -42 16 -67 16c-94 0 -149 -80 -149 -170z" />
    <glyph glyph-name="oslashacute" unicode="&#x1ff;" horiz-adv-x="618" 
d="M321 697h119l-106 -146h-93zM52 243c0 142 103 256 256 256c44 0 85 -10 120 -27l50 72l58 -40l-50 -72c50 -46 80 -114 80 -189c0 -145 -104 -258 -258 -258c-44 0 -84 10 -118 26l-50 -71l-58 40l50 71c-51 47 -80 114 -80 192zM460 243c0 40 -11 77 -32 107l-186 -264
c19 -10 41 -15 66 -15c96 0 152 79 152 172zM159 243c0 -41 11 -80 31 -110l185 264c-19 10 -42 16 -67 16c-94 0 -149 -80 -149 -170z" />
    <glyph glyph-name="racute" unicode="&#x155;" horiz-adv-x="402" 
d="M295 398c-46 0 -78 -43 -105 -82v-316h-103v351c0 43 -4 86 -13 132h95c6 -28 8 -49 10 -81c32 49 70 97 140 97c28 0 55 -7 68 -20l-31 -96c-14 9 -46 15 -61 15zM213 697h119l-106 -146h-93z" />
    <glyph glyph-name="rcaron" unicode="&#x159;" horiz-adv-x="402" 
d="M295 398c-46 0 -78 -43 -105 -82v-316h-103v351c0 43 -4 86 -13 132h95c6 -28 8 -49 10 -81c32 49 70 97 140 97c28 0 55 -7 68 -20l-31 -96c-14 9 -46 15 -61 15zM40 689h83l78 -78l77 78h83l-102 -137h-116z" />
    <glyph glyph-name="uni0157" unicode="&#x157;" horiz-adv-x="402" 
d="M295 398c-46 0 -78 -43 -105 -82v-316h-103v351c0 43 -4 86 -13 132h95c6 -28 8 -49 10 -81c32 49 70 97 140 97c28 0 55 -7 68 -20l-31 -96c-14 9 -46 15 -61 15zM113 -59l85 17c21 -18 50 -45 50 -92c0 -67 -57 -113 -155 -113c-18 0 -35 1 -56 7v63c15 -3 32 -3 46 -3
c44 0 68 16 68 52c0 31 -19 51 -38 69z" />
    <glyph glyph-name="scaron" unicode="&#x161;" horiz-adv-x="557" 
d="M480 445l-39 -79c-32 18 -109 49 -179 49c-52 0 -98 -17 -98 -56c0 -49 75 -54 118 -56c85 -4 230 -12 230 -152c0 -115 -99 -168 -226 -168c-113 0 -192 42 -240 74l39 78c45 -27 112 -66 200 -66c71 0 124 25 124 72c0 55 -74 61 -127 64c-101 6 -221 15 -221 142
c0 118 105 154 199 154c91 0 182 -34 220 -56zM117 689h83l78 -78l77 78h83l-102 -137h-116z" />
    <glyph glyph-name="sacute" unicode="&#x15b;" horiz-adv-x="557" 
d="M480 445l-39 -79c-32 18 -109 49 -179 49c-52 0 -98 -17 -98 -56c0 -49 75 -54 118 -56c85 -4 230 -12 230 -152c0 -115 -99 -168 -226 -168c-113 0 -192 42 -240 74l39 78c45 -27 112 -66 200 -66c71 0 124 25 124 72c0 55 -74 61 -127 64c-101 6 -221 15 -221 142
c0 118 105 154 199 154c91 0 182 -34 220 -56zM290 697h119l-106 -146h-93z" />
    <glyph glyph-name="scedilla" unicode="&#x15f;" horiz-adv-x="557" 
d="M480 445l-39 -79c-32 18 -109 49 -179 49c-52 0 -98 -17 -98 -56c0 -49 75 -54 118 -56c85 -4 230 -12 230 -152c0 -105 -82 -157 -192 -166l-17 -39c10 3 19 5 30 5c50 1 103 -27 103 -80c0 -59 -68 -97 -164 -97c-52 0 -98 11 -143 22l16 57c41 -8 83 -17 122 -17
c46 0 76 12 76 36c0 22 -24 27 -47 27c-17 0 -31 -3 -43 -5l-27 32l27 58c-96 7 -164 44 -207 73l39 78c45 -27 112 -66 200 -66c71 0 124 25 124 72c0 55 -74 61 -127 64c-101 6 -221 15 -221 142c0 118 105 154 199 154c91 0 182 -34 220 -56z" />
    <glyph glyph-name="scircumflex" unicode="&#x15d;" horiz-adv-x="557" 
d="M480 445l-39 -79c-32 18 -109 49 -179 49c-52 0 -98 -17 -98 -56c0 -49 75 -54 118 -56c85 -4 230 -12 230 -152c0 -115 -99 -168 -226 -168c-113 0 -192 42 -240 74l39 78c45 -27 112 -66 200 -66c71 0 124 25 124 72c0 55 -74 61 -127 64c-101 6 -221 15 -221 142
c0 118 105 154 199 154c91 0 182 -34 220 -56zM117 552l103 136h116l102 -136h-83l-77 78l-78 -78h-83z" />
    <glyph glyph-name="uni0219" unicode="&#x219;" horiz-adv-x="557" 
d="M480 445l-39 -79c-32 18 -109 49 -179 49c-52 0 -98 -17 -98 -56c0 -49 75 -54 118 -56c85 -4 230 -12 230 -152c0 -115 -99 -168 -226 -168c-113 0 -192 42 -240 74l39 78c45 -27 112 -66 200 -66c71 0 124 25 124 72c0 55 -74 61 -127 64c-101 6 -221 15 -221 142
c0 118 105 154 199 154c91 0 182 -34 220 -56zM215 -59l85 17c21 -18 50 -45 50 -92c0 -67 -57 -113 -155 -113c-18 0 -35 1 -56 7v63c15 -3 32 -3 46 -3c44 0 68 16 68 52c0 31 -19 51 -38 69z" />
    <glyph glyph-name="tbar" unicode="&#x167;" horiz-adv-x="394" 
d="M27 402v81h90v143h103v-143h127v-81h-127v-124h127v-70h-127v-88c0 -32 22 -49 57 -49c20 0 58 4 70 8l10 -81c-17 -11 -67 -18 -100 -18c-64 0 -140 35 -140 140v88h-90v70h90v124h-90z" />
    <glyph glyph-name="tcaron" unicode="&#x165;" horiz-adv-x="394" 
d="M27 402v81h90v143h103v-143h127v-81h-127v-282c0 -32 22 -49 57 -49c20 0 58 4 70 8l10 -81c-17 -11 -67 -18 -100 -18c-64 0 -140 35 -140 140v282h-90zM341 549h-58v226h103c0 -93 -12 -158 -45 -226z" />
    <glyph glyph-name="uni0163" unicode="&#x163;" horiz-adv-x="394" 
d="M27 402v81h90v143h103v-143h127v-81h-127v-282c0 -32 22 -49 57 -49c20 0 58 4 70 8l10 -81c-17 -11 -67 -18 -100 -18c-8 0 -16 1 -23 2l-16 -36c10 3 19 5 30 5c50 1 103 -27 103 -80c0 -59 -68 -97 -164 -97c-52 0 -98 11 -143 22l16 57c41 -8 83 -17 122 -17
c46 0 76 12 76 36c0 22 -24 27 -47 27c-17 0 -31 -3 -43 -5l-27 32l35 75c-34 20 -59 58 -59 119v282h-90z" />
    <glyph glyph-name="uni021B" unicode="&#x21b;" horiz-adv-x="394" 
d="M27 402v81h90v143h103v-143h127v-81h-127v-282c0 -32 22 -49 57 -49c20 0 58 4 70 8l10 -81c-17 -11 -67 -18 -100 -18c-64 0 -140 35 -140 140v282h-90zM193 -59l85 17c21 -18 50 -45 50 -92c0 -67 -57 -113 -155 -113c-18 0 -35 1 -56 7v63c15 -3 32 -3 46 -3
c44 0 68 16 68 52c0 31 -19 51 -38 69z" />
    <glyph glyph-name="uacute" unicode="&#xfa;" horiz-adv-x="604" 
d="M424 71c-36 -44 -79 -86 -159 -86c-104 0 -186 71 -186 171v327h104v-327c0 -44 41 -81 99 -81c60 0 102 39 132 77v331h103v-350c0 -42 0 -87 9 -133h-95c-5 21 -7 50 -7 71zM314 697h119l-106 -146h-93z" />
    <glyph glyph-name="ugrave" unicode="&#xf9;" horiz-adv-x="604" 
d="M424 71c-36 -44 -79 -86 -159 -86c-104 0 -186 71 -186 171v327h104v-327c0 -44 41 -81 99 -81c60 0 102 39 132 77v331h103v-350c0 -42 0 -87 9 -133h-95c-5 21 -7 50 -7 71zM171 697h119l80 -146h-93z" />
    <glyph glyph-name="ucircumflex" unicode="&#xfb;" horiz-adv-x="604" 
d="M424 71c-36 -44 -79 -86 -159 -86c-104 0 -186 71 -186 171v327h104v-327c0 -44 41 -81 99 -81c60 0 102 39 132 77v331h103v-350c0 -42 0 -87 9 -133h-95c-5 21 -7 50 -7 71zM141 552l103 136h116l102 -136h-83l-77 78l-78 -78h-83z" />
    <glyph glyph-name="udieresis" unicode="&#xfc;" horiz-adv-x="604" 
d="M424 71c-36 -44 -79 -86 -159 -86c-104 0 -186 71 -186 171v327h104v-327c0 -44 41 -81 99 -81c60 0 102 39 132 77v331h103v-350c0 -42 0 -87 9 -133h-95c-5 21 -7 50 -7 71zM134 617c0 31 26 57 61 57s62 -27 62 -57c0 -32 -27 -56 -62 -56s-61 24 -61 56zM346 617
c0 31 26 57 61 57s62 -27 62 -57c0 -32 -27 -56 -62 -56s-61 24 -61 56z" />
    <glyph glyph-name="ubreve" unicode="&#x16d;" horiz-adv-x="604" 
d="M424 71c-36 -44 -79 -86 -159 -86c-104 0 -186 71 -186 171v327h104v-327c0 -44 41 -81 99 -81c60 0 102 39 132 77v331h103v-350c0 -42 0 -87 9 -133h-95c-5 21 -7 50 -7 71zM152 686h75c0 -34 13 -73 75 -73s75 39 75 73h74c0 -62 -27 -143 -149 -143s-150 81 -150 143
z" />
    <glyph glyph-name="uhungarumlaut" unicode="&#x171;" horiz-adv-x="604" 
d="M424 71c-36 -44 -79 -86 -159 -86c-104 0 -186 71 -186 171v327h104v-327c0 -44 41 -81 99 -81c60 0 102 39 132 77v331h103v-350c0 -42 0 -87 9 -133h-95c-5 21 -7 50 -7 71zM234 549h-67l44 140h95zM410 549h-66l44 140h95z" />
    <glyph glyph-name="umacron" unicode="&#x16b;" horiz-adv-x="604" 
d="M424 71c-36 -44 -79 -86 -159 -86c-104 0 -186 71 -186 171v327h104v-327c0 -44 41 -81 99 -81c60 0 102 39 132 77v331h103v-350c0 -42 0 -87 9 -133h-95c-5 21 -7 50 -7 71zM171 657h261v-80h-261v80z" />
    <glyph glyph-name="uogonek" unicode="&#x173;" horiz-adv-x="604" 
d="M424 71c-36 -44 -79 -86 -159 -86c-104 0 -186 71 -186 171v327h104v-327c0 -44 41 -81 99 -81c60 0 102 39 132 77v331h103v-350c0 -42 0 -87 9 -133c-32 -14 -109 -51 -109 -106c0 -33 27 -52 69 -52c19 0 40 4 62 8l9 -64c-30 -8 -62 -12 -89 -12
c-87 0 -141 40 -141 100c0 61 55 105 103 131c-4 20 -6 46 -6 66z" />
    <glyph glyph-name="uring" unicode="&#x16f;" horiz-adv-x="604" 
d="M424 71c-36 -44 -79 -86 -159 -86c-104 0 -186 71 -186 171v327h104v-327c0 -44 41 -81 99 -81c60 0 102 39 132 77v331h103v-350c0 -42 0 -87 9 -133h-95c-5 21 -7 50 -7 71zM235 644c0 -32 27 -54 64 -54c38 0 65 22 65 54c0 34 -27 60 -65 60c-37 0 -64 -26 -64 -60z
M173 644c0 56 44 105 126 105s128 -49 128 -105c0 -55 -46 -101 -128 -101s-126 46 -126 101z" />
    <glyph glyph-name="utilde" unicode="&#x169;" horiz-adv-x="604" 
d="M424 71c-36 -44 -79 -86 -159 -86c-104 0 -186 71 -186 171v327h104v-327c0 -44 41 -81 99 -81c60 0 102 39 132 77v331h103v-350c0 -42 0 -87 9 -133h-95c-5 21 -7 50 -7 71zM188 551l-67 36c38 65 72 88 114 88c28 0 48 -10 71 -26c19 -13 36 -26 55 -26
c24 0 40 23 56 45l62 -34c-33 -59 -69 -89 -114 -89c-27 0 -52 11 -70 24c-21 15 -36 28 -54 28c-24 0 -38 -25 -53 -46z" />
    <glyph glyph-name="wacute" unicode="&#x1e83;" horiz-adv-x="784" 
d="M346 483h98l100 -346h6l93 346h111l-160 -483h-104l-95 331h-6l-95 -331h-104l-160 483h112l98 -346h6zM404 697h119l-106 -146h-93z" />
    <glyph glyph-name="wcircumflex" unicode="&#x175;" horiz-adv-x="784" 
d="M346 483h98l100 -346h6l93 346h111l-160 -483h-104l-95 331h-6l-95 -331h-104l-160 483h112l98 -346h6zM231 552l103 136h116l102 -136h-83l-77 78l-78 -78h-83z" />
    <glyph glyph-name="wdieresis" unicode="&#x1e85;" horiz-adv-x="784" 
d="M346 483h98l100 -346h6l93 346h111l-160 -483h-104l-95 331h-6l-95 -331h-104l-160 483h112l98 -346h6zM224 617c0 31 26 57 61 57s62 -27 62 -57c0 -32 -27 -56 -62 -56s-61 24 -61 56zM436 617c0 31 26 57 61 57s62 -27 62 -57c0 -32 -27 -56 -62 -56s-61 24 -61 56z
" />
    <glyph glyph-name="wgrave" unicode="&#x1e81;" horiz-adv-x="784" 
d="M346 483h98l100 -346h6l93 346h111l-160 -483h-104l-95 331h-6l-95 -331h-104l-160 483h112l98 -346h6zM261 697h119l80 -146h-93z" />
    <glyph glyph-name="yacute" unicode="&#xfd;" horiz-adv-x="564" 
d="M279 148h6l150 335h105l-329 -690h-107l122 241l-202 449h117zM293 697h119l-106 -146h-93z" />
    <glyph glyph-name="ydieresis" unicode="&#xff;" horiz-adv-x="564" 
d="M279 148h6l150 335h105l-329 -690h-107l122 241l-202 449h117zM113 617c0 31 26 57 61 57s62 -27 62 -57c0 -32 -27 -56 -62 -56s-61 24 -61 56zM325 617c0 31 26 57 61 57s62 -27 62 -57c0 -32 -27 -56 -62 -56s-61 24 -61 56z" />
    <glyph glyph-name="ycircumflex" unicode="&#x177;" horiz-adv-x="564" 
d="M279 148h6l150 335h105l-329 -690h-107l122 241l-202 449h117zM120 552l103 136h116l102 -136h-83l-77 78l-78 -78h-83z" />
    <glyph glyph-name="ygrave" unicode="&#x1ef3;" horiz-adv-x="564" 
d="M279 148h6l150 335h105l-329 -690h-107l122 241l-202 449h117zM150 697h119l80 -146h-93z" />
    <glyph glyph-name="zcaron" unicode="&#x17e;" horiz-adv-x="529" 
d="M474 81v-81h-428v61l284 341h-264v81h408v-61l-284 -341h284zM104 689h83l78 -78l77 78h83l-102 -137h-116z" />
    <glyph glyph-name="zacute" unicode="&#x17a;" horiz-adv-x="529" 
d="M474 81v-81h-428v61l284 341h-264v81h408v-61l-284 -341h284zM277 697h119l-106 -146h-93z" />
    <glyph glyph-name="zdotaccent" unicode="&#x17c;" horiz-adv-x="529" 
d="M474 81v-81h-428v61l284 341h-264v81h408v-61l-284 -341h284zM204 617c0 31 26 57 61 57s62 -27 62 -57c0 -32 -27 -56 -62 -56s-61 24 -61 56z" />
    <glyph glyph-name="eth" unicode="&#xf0;" horiz-adv-x="626" 
d="M174 512l-24 69l120 42c-30 25 -63 48 -94 67l116 20c22 -16 47 -33 72 -53l127 45l24 -69l-90 -32c72 -73 133 -178 133 -340c0 -92 -29 -160 -73 -205c-48 -48 -114 -71 -182 -71c-139 0 -250 111 -250 246c0 142 102 248 226 248c71 0 121 -32 154 -67
c-18 54 -56 108 -102 156zM161 233c0 -87 55 -157 140 -157c43 0 80 16 106 43c28 29 45 69 45 114c0 86 -61 155 -152 155c-85 0 -139 -69 -139 -155z" />
    <glyph glyph-name="thorn" unicode="&#xfe;" horiz-adv-x="628" 
d="M328 75c74 0 133 65 133 165c0 102 -60 168 -133 168c-74 0 -123 -48 -139 -68v-198c40 -41 89 -67 139 -67zM189 700v-274c21 28 71 73 149 73c130 0 237 -102 237 -259c0 -154 -108 -255 -237 -255c-54 0 -106 26 -149 74v-266h-103v907h103z" />
    <glyph glyph-name="ae" unicode="&#xe6;" horiz-adv-x="965" 
d="M258 76c84 0 131 39 173 78c-3 10 -8 28 -10 39c-32 20 -72 37 -135 37c-101 0 -136 -32 -136 -74c0 -45 39 -80 108 -80zM667 -15c-88 0 -157 39 -200 98c-58 -63 -142 -98 -231 -98c-115 0 -190 73 -190 171c0 86 79 155 223 155c53 0 122 -12 156 -37v53
c0 59 -57 84 -126 84c-75 0 -154 -35 -188 -59l-36 85c44 27 130 62 229 62c76 0 165 -16 188 -87l1 -3c34 54 107 90 174 90c130 0 261 -78 247 -280h-391c1 -13 4 -26 8 -39c19 -58 68 -104 136 -104c75 0 128 28 165 66l69 -67c-52 -51 -131 -90 -234 -90zM526 300h275
c-1 77 -68 113 -134 113c-77 0 -122 -46 -141 -113z" />
    <glyph glyph-name="aeacute" unicode="&#x1fd;" horiz-adv-x="965" 
d="M258 76c84 0 131 39 173 78c-3 10 -8 28 -10 39c-32 20 -72 37 -135 37c-101 0 -136 -32 -136 -74c0 -45 39 -80 108 -80zM667 -15c-88 0 -157 39 -200 98c-58 -63 -142 -98 -231 -98c-115 0 -190 73 -190 171c0 86 79 155 223 155c53 0 122 -12 156 -37v53
c0 59 -57 84 -126 84c-75 0 -154 -35 -188 -59l-36 85c44 27 130 62 229 62c76 0 165 -16 188 -87l1 -3c34 54 107 90 174 90c130 0 261 -78 247 -280h-391c1 -13 4 -26 8 -39c19 -58 68 -104 136 -104c75 0 128 28 165 66l69 -67c-52 -51 -131 -90 -234 -90zM526 300h275
c-1 77 -68 113 -134 113c-77 0 -122 -46 -141 -113zM494 697h119l-106 -146h-93z" />
    <glyph glyph-name="oe" unicode="&#x153;" horiz-adv-x="1005" 
d="M872 142l69 -67c-52 -51 -131 -90 -234 -90c-88 0 -165 43 -199 107c-39 -65 -121 -107 -201 -107c-139 0 -256 113 -256 258c0 142 117 256 256 256c82 0 165 -44 204 -111c36 68 114 111 196 111c130 0 261 -78 247 -280h-391c1 -13 3 -25 7 -37
c18 -59 68 -106 137 -106c75 0 128 28 165 66zM707 413c-72 0 -118 -46 -136 -113h270c-1 77 -68 113 -134 113zM158 243c0 -93 55 -172 149 -172c96 0 152 79 152 172c0 90 -56 170 -152 170c-94 0 -149 -80 -149 -170z" />
    <glyph glyph-name="schwa" unicode="&#x259;" horiz-adv-x="597" 
d="M134 342l-69 67c52 51 131 90 234 90c151 0 247 -115 247 -249c0 -149 -105 -265 -247 -265c-130 0 -261 78 -247 280h390c-6 76 -61 143 -143 143c-75 0 -128 -28 -165 -66zM299 71c71 0 118 46 136 113h-270c1 -77 68 -113 134 -113z" />
    <glyph glyph-name="ij.alt" horiz-adv-x="550" 
d="M189 0h-103v483h103v-483zM72 640c0 33 28 60 65 60s66 -28 66 -60c0 -33 -29 -59 -66 -59s-65 26 -65 59zM347 640c0 33 28 60 65 60s66 -28 66 -60c0 -33 -29 -59 -66 -59s-65 26 -65 59zM361 -87v570h103v-570c0 -105 -76 -140 -140 -140c-38 0 -87 12 -106 23l19 86
c12 -9 47 -18 67 -18c35 0 57 18 57 49z" />
    <glyph glyph-name="j.alt" horiz-adv-x="275" 
d="M72 640c0 33 28 60 65 60s66 -28 66 -60c0 -33 -29 -59 -66 -59s-65 26 -65 59zM86 -87v570h103v-570c0 -105 -76 -140 -140 -140c-38 0 -87 12 -106 23l19 86c12 -9 47 -18 67 -18c35 0 57 18 57 49z" />
    <glyph glyph-name="jcircumflex.alt" horiz-adv-x="275" 
d="M86 -87v570h103v-570c0 -105 -76 -140 -140 -140c-38 0 -87 12 -106 23l19 86c12 -9 47 -18 67 -18c35 0 57 18 57 49zM-23 552l103 136h116l102 -136h-83l-77 78l-78 -78h-83z" />
    <glyph glyph-name="dotlessj.alt" horiz-adv-x="275" 
d="M86 -87v570h103v-570c0 -105 -76 -140 -140 -140c-38 0 -87 12 -106 23l19 86c12 -9 47 -18 67 -18c35 0 57 18 57 49z" />
    <glyph glyph-name="r.alt" horiz-adv-x="486" 
d="M322 499c82 0 139 -69 131 -173h-98c4 50 -23 77 -56 77c-46 0 -82 -48 -109 -87v-316h-103v351c0 43 -4 86 -13 132h95c6 -28 8 -49 10 -81c30 49 70 97 143 97z" />
    <glyph glyph-name="racute.alt" horiz-adv-x="486" 
d="M322 499c82 0 139 -69 131 -173h-98c4 50 -23 77 -56 77c-46 0 -82 -48 -109 -87v-316h-103v351c0 43 -4 86 -13 132h95c6 -28 8 -49 10 -81c30 49 70 97 143 97zM284 697h119l-106 -146h-93z" />
    <glyph glyph-name="rcaron.alt" horiz-adv-x="486" 
d="M322 499c82 0 139 -69 131 -173h-98c4 50 -23 77 -56 77c-46 0 -82 -48 -109 -87v-316h-103v351c0 43 -4 86 -13 132h95c6 -28 8 -49 10 -81c30 49 70 97 143 97zM111 689h83l78 -78l77 78h83l-102 -137h-116z" />
    <glyph glyph-name="uni0157.alt" horiz-adv-x="486" 
d="M322 499c82 0 139 -69 131 -173h-98c4 50 -23 77 -56 77c-46 0 -82 -48 -109 -87v-316h-103v351c0 43 -4 86 -13 132h95c6 -28 8 -49 10 -81c30 49 70 97 143 97zM163 -59l85 17c21 -18 50 -45 50 -92c0 -67 -57 -113 -155 -113c-18 0 -35 1 -56 7v63c15 -3 32 -3 46 -3
c44 0 68 16 68 52c0 31 -19 51 -38 69z" />
    <glyph glyph-name="y.alt" horiz-adv-x="564" 
d="M540 483l-258 -542c-46 -96 -107 -168 -216 -168c-40 0 -96 10 -128 27l28 84c24 -14 69 -25 103 -25c53 0 84 27 125 110l32 65l-202 449h117l138 -335h6l150 335h105z" />
    <glyph glyph-name="yacute.alt" horiz-adv-x="564" 
d="M540 483l-258 -542c-46 -96 -107 -168 -216 -168c-40 0 -96 10 -128 27l28 84c24 -14 69 -25 103 -25c53 0 84 27 125 110l32 65l-202 449h117l138 -335h6l150 335h105zM293 697h119l-106 -146h-93z" />
    <glyph glyph-name="ydieresis.alt" horiz-adv-x="564" 
d="M540 483l-258 -542c-46 -96 -107 -168 -216 -168c-40 0 -96 10 -128 27l28 84c24 -14 69 -25 103 -25c53 0 84 27 125 110l32 65l-202 449h117l138 -335h6l150 335h105zM113 617c0 31 26 57 61 57s62 -27 62 -57c0 -32 -27 -56 -62 -56s-61 24 -61 56zM325 617
c0 31 26 57 61 57s62 -27 62 -57c0 -32 -27 -56 -62 -56s-61 24 -61 56z" />
    <glyph glyph-name="ycircumflex.alt" horiz-adv-x="564" 
d="M540 483l-258 -542c-46 -96 -107 -168 -216 -168c-40 0 -96 10 -128 27l28 84c24 -14 69 -25 103 -25c53 0 84 27 125 110l32 65l-202 449h117l138 -335h6l150 335h105zM120 552l103 136h116l102 -136h-83l-77 78l-78 -78h-83z" />
    <glyph glyph-name="ygrave.alt" horiz-adv-x="564" 
d="M540 483l-258 -542c-46 -96 -107 -168 -216 -168c-40 0 -96 10 -128 27l28 84c24 -14 69 -25 103 -25c53 0 84 27 125 110l32 65l-202 449h117l138 -335h6l150 335h105zM150 697h119l80 -146h-93z" />
    <glyph glyph-name="acute" unicode="&#xb4;" 
d="M262 697h119l-106 -146h-93z" />
    <glyph glyph-name="grave" unicode="`" 
d="M119 697h119l80 -146h-93z" />
    <glyph glyph-name="circumflex" unicode="&#x2c6;" 
d="M89 552l103 136h116l102 -136h-83l-77 78l-78 -78h-83z" />
    <glyph glyph-name="dieresis" unicode="&#xa8;" 
d="M82 617c0 31 26 57 61 57s62 -27 62 -57c0 -32 -27 -56 -62 -56s-61 24 -61 56zM294 617c0 31 26 57 61 57s62 -27 62 -57c0 -32 -27 -56 -62 -56s-61 24 -61 56z" />
    <glyph glyph-name="tilde" unicode="&#x2dc;" 
d="M136 551l-67 36c38 65 72 88 114 88c28 0 48 -10 71 -26c19 -13 36 -26 55 -26c24 0 40 23 56 45l62 -34c-33 -59 -69 -89 -114 -89c-27 0 -52 11 -70 24c-21 15 -36 28 -54 28c-24 0 -38 -25 -53 -46z" />
    <glyph glyph-name="ring" unicode="&#x2da;" 
d="M183 644c0 -32 27 -54 64 -54c38 0 65 22 65 54c0 34 -27 60 -65 60c-37 0 -64 -26 -64 -60zM121 644c0 56 44 105 126 105s128 -49 128 -105c0 -55 -46 -101 -128 -101s-126 46 -126 101z" />
    <glyph glyph-name="cedilla" unicode="&#xb8;" 
d="M242 19h66l-33 -73c10 3 19 5 30 5c50 1 103 -27 103 -80c0 -59 -68 -97 -164 -97c-52 0 -98 11 -143 22l16 57c41 -8 83 -17 122 -17c46 0 76 12 76 36c0 22 -24 27 -47 27c-17 0 -31 -3 -43 -5l-27 32z" />
    <glyph glyph-name="breve" unicode="&#x2d8;" 
d="M100 686h75c0 -34 13 -73 75 -73s75 39 75 73h74c0 -62 -27 -143 -149 -143s-150 81 -150 143z" />
    <glyph glyph-name="caron" unicode="&#x2c7;" 
d="M89 689h83l78 -78l77 78h83l-102 -137h-116z" />
    <glyph glyph-name="dotaccent" unicode="&#x2d9;" 
d="M189 617c0 31 26 57 61 57s62 -27 62 -57c0 -32 -27 -56 -62 -56s-61 24 -61 56z" />
    <glyph glyph-name="hungarumlaut" unicode="&#x2dd;" 
d="M182 549h-67l44 140h95zM358 549h-66l44 140h95z" />
    <glyph glyph-name="macron" unicode="&#xaf;" 
d="M119 657h261v-80h-261v80z" />
    <glyph glyph-name="ogonek" unicode="&#x2db;" 
d="M275 28l48 -28c-32 -14 -109 -51 -109 -106c0 -33 27 -52 69 -52c19 0 40 4 62 8l9 -64c-30 -8 -62 -12 -89 -12c-87 0 -141 40 -141 100c0 84 107 136 151 154z" />
    <glyph glyph-name="commaaccent" unicode="&#xf6c3;" 
d="M215 -59l85 17c21 -18 50 -45 50 -92c0 -67 -57 -113 -155 -113c-18 0 -35 1 -56 7v63c15 -3 32 -3 46 -3c44 0 68 16 68 52c0 31 -19 51 -38 69z" />
    <glyph glyph-name="caron.alt" 
d="M266 474h-58v226h103c0 -93 -12 -158 -45 -226z" />
    <glyph glyph-name="germandbls" unicode="&#xdf;" horiz-adv-x="591" 
d="M309 -10l-10 80c91 0 138 46 138 110c0 103 -120 157 -171 165l10 79c64 13 96 65 96 115c0 56 -40 87 -86 87c-48 0 -98 -34 -98 -110v-516h-102v516c0 142 101 196 199 196c115 0 194 -75 194 -164c0 -87 -75 -139 -118 -154c65 -17 183 -91 183 -217
c0 -106 -84 -187 -235 -187z" />
    <glyph glyph-name="fi" horiz-adv-x="645" 
d="M37 483h89v88c0 105 76 140 140 140c38 0 87 -12 106 -23l-19 -86c-12 9 -47 18 -67 18c-35 0 -57 -18 -57 -49v-88h127v-81h-127v-402h-103v402h-89v81zM560 0h-103v483h103v-483zM443 640c0 33 28 60 65 60s66 -28 66 -60c0 -33 -29 -59 -66 -59s-65 26 -65 59z" />
    <glyph glyph-name="fl" horiz-adv-x="656" 
d="M37 483h89v88c0 105 76 140 140 140c38 0 87 -12 106 -23l-19 -86c-12 9 -47 18 -67 18c-35 0 -57 -18 -57 -49v-88h127v-81h-127v-402h-103v402h-89v81zM565 0h-103v700h103v-700z" />
    <glyph glyph-name="f_j.alt" horiz-adv-x="645" 
d="M37 483h89v88c0 105 76 140 140 140c38 0 87 -12 106 -23l-19 -86c-12 9 -47 18 -67 18c-35 0 -57 -18 -57 -49v-88h127v-81h-127v-402h-103v402h-89v81zM457 -87v570h103v-570c0 -105 -76 -140 -140 -140c-38 0 -87 12 -106 23l19 86c12 -9 47 -18 67 -18
c35 0 57 18 57 49zM443 640c0 33 28 60 65 60s66 -28 66 -60c0 -33 -29 -59 -66 -59s-65 26 -65 59z" />
    <glyph glyph-name="f_f_j.alt" horiz-adv-x="982" 
d="M463 0v402h-234v-402h-103v402h-89v81h89v88c0 105 76 140 140 140c38 0 87 -12 106 -23l-19 -86c-12 9 -47 18 -67 18c-35 0 -57 -18 -57 -49v-88h234v88c0 105 76 140 140 140c38 0 87 -12 106 -23l-19 -86c-12 9 -47 18 -67 18c-35 0 -57 -18 -57 -49v-88h127v-81
h-127v-402h-103zM651 -204l19 86c12 -9 47 -18 67 -18c35 0 57 18 57 49v570h103v-570c0 -105 -76 -140 -140 -140c-38 0 -87 12 -106 23zM845 581c-37 0 -65 26 -65 59s28 60 65 60s66 -28 66 -60c0 -33 -29 -59 -66 -59z" />
    <glyph glyph-name="ordfeminine" unicode="&#xaa;" horiz-adv-x="464" 
d="M88 463l-31 71c34 20 101 44 177 44c83 0 166 -25 166 -101v-195c0 -18 2 -43 9 -62h-89c-3 8 -6 26 -8 38c-29 -23 -63 -49 -130 -49c-86 0 -143 52 -143 123c0 61 60 110 169 110c36 0 80 -8 104 -19v28c0 37 -33 54 -83 54c-55 0 -116 -25 -141 -42zM201 285
c62 0 103 36 111 44v26c-25 11 -50 19 -89 19c-73 0 -95 -18 -95 -42c0 -27 27 -47 73 -47z" />
    <glyph glyph-name="ordmasculine" unicode="&#xba;" horiz-adv-x="464" 
d="M39 394c0 102 88 184 192 184c106 0 194 -82 194 -184c0 -104 -88 -185 -194 -185c-104 0 -192 81 -192 185zM131 394c0 -61 34 -109 100 -109c68 0 103 48 103 109c0 59 -35 108 -103 108c-66 0 -100 -49 -100 -108z" />
    <glyph glyph-name="a.superior" horiz-adv-x="464" 
d="M88 463l-31 71c34 20 101 44 177 44c83 0 166 -25 166 -101v-195c0 -18 2 -43 9 -62h-89c-3 8 -6 26 -8 38c-29 -23 -63 -49 -130 -49c-86 0 -143 52 -143 123c0 61 60 110 169 110c36 0 80 -8 104 -19v28c0 37 -33 54 -83 54c-55 0 -116 -25 -141 -42zM201 285
c62 0 103 36 111 44v26c-25 11 -50 19 -89 19c-73 0 -95 -18 -95 -42c0 -27 27 -47 73 -47z" />
    <glyph glyph-name="b.superior" horiz-adv-x="477" 
d="M142 220h-81c7 35 7 69 7 101v379h88v-172c30 32 66 50 104 50c96 0 177 -73 177 -184c0 -113 -79 -185 -175 -185c-56 0 -100 34 -114 57c0 -14 -2 -32 -6 -46zM251 502c-35 0 -68 -17 -95 -43v-131c12 -13 46 -44 97 -44c47 0 86 43 86 110c0 66 -39 108 -88 108z" />
    <glyph glyph-name="d.superior" horiz-adv-x="477" 
d="M416 220h-81c-4 14 -6 32 -6 46c-14 -23 -57 -57 -113 -57c-97 0 -176 72 -176 185c0 111 80 184 176 184c38 0 74 -14 105 -42v164h88v-379c0 -32 0 -66 7 -101zM225 502c-49 0 -87 -42 -87 -108c0 -67 39 -110 87 -110c51 0 84 31 96 44v131c-28 26 -61 43 -96 43z" />
    <glyph glyph-name="e.superior" horiz-adv-x="450" 
d="M343 329l59 -56c-40 -37 -99 -64 -177 -64c-113 0 -185 83 -185 179c0 107 78 190 185 190c100 0 199 -56 187 -208h-283c8 -45 44 -85 96 -85c54 0 91 19 118 44zM225 506c-48 0 -78 -28 -90 -68h179c0 47 -44 68 -89 68z" />
    <glyph glyph-name="h.superior" horiz-adv-x="461" 
d="M156 220h-88v480h88v-172c21 24 53 50 96 50c88 0 147 -52 147 -124v-234h-90v234c0 26 -27 48 -66 48s-67 -26 -87 -52v-230z" />
    <glyph glyph-name="i.superior" horiz-adv-x="225" 
d="M157 220h-89v346h89v-346zM57 661c0 26 24 48 55 48s56 -22 56 -48c0 -27 -25 -48 -56 -48s-55 21 -55 48z" />
    <glyph glyph-name="l.superior" horiz-adv-x="224" 
d="M156 220h-88v480h88v-480z" />
    <glyph glyph-name="m.superior" horiz-adv-x="683" 
d="M158 220h-89v246c0 33 -2 66 -8 101h80c4 -17 5 -30 7 -50c25 31 52 61 107 61c51 0 98 -25 120 -69c25 38 58 69 112 69c74 0 134 -52 134 -124v-234h-89v234c0 26 -25 48 -60 48c-37 0 -63 -26 -83 -52v-230h-89v226c0 31 -25 56 -60 56c-37 0 -63 -26 -82 -52v-230z
" />
    <glyph glyph-name="n.superior" unicode="&#x207f;" horiz-adv-x="462" 
d="M158 220h-89v245c0 33 -2 66 -8 101h80c4 -17 5 -29 7 -49c26 32 54 61 112 61c77 0 140 -52 140 -124v-234h-89v234c0 26 -28 48 -66 48c-40 0 -67 -26 -87 -52v-230z" />
    <glyph glyph-name="o.superior" horiz-adv-x="464" 
d="M39 394c0 102 88 184 192 184c106 0 194 -82 194 -184c0 -104 -88 -185 -194 -185c-104 0 -192 81 -192 185zM131 394c0 -61 34 -109 100 -109c68 0 103 48 103 109c0 59 -35 108 -103 108c-66 0 -100 -49 -100 -108z" />
    <glyph glyph-name="r.superior" horiz-adv-x="315" 
d="M158 220h-89v246c0 33 -3 66 -9 101h81c4 -20 5 -34 7 -57c24 35 50 68 102 68c21 0 40 -4 49 -11l-26 -81c-10 4 -34 8 -44 8c-31 0 -52 -29 -71 -55v-219z" />
    <glyph glyph-name="s.superior" horiz-adv-x="425" 
d="M366 542l-33 -66c-25 11 -80 32 -138 32c-31 0 -60 -12 -60 -29c0 -31 46 -34 79 -35c65 -3 175 -10 175 -116c0 -81 -74 -121 -171 -121c-84 0 -146 30 -182 52l33 66c34 -18 84 -46 151 -46c47 0 81 17 81 40c0 35 -49 39 -87 40c-79 3 -168 15 -168 110
c0 83 80 111 150 111c71 0 141 -23 170 -38z" />
    <glyph glyph-name="t.superior" horiz-adv-x="319" 
d="M32 499v67h65v101h89v-101h86v-67h-86v-193c0 -15 12 -25 37 -25c13 0 41 0 48 1l8 -68c-12 -6 -50 -10 -73 -10c-50 0 -109 26 -109 102v193h-65z" />
    <glyph glyph-name="a.sc" horiz-adv-x="716" 
d="M26 0l282 568h100l282 -568h-122l-69 143h-288l-69 -143h-116zM352 435l-99 -204h203l-98 204h-6z" />
    <glyph glyph-name="b.sc" horiz-adv-x="774" 
d="M490 0h-377v568h361c72 0 127 -18 163 -56c22 -23 34 -51 34 -83c0 -52 -32 -97 -75 -113c65 -13 109 -74 109 -143c0 -50 -19 -89 -53 -122c-41 -39 -84 -51 -162 -51zM482 250h-258v-151h260c40 0 70 10 86 26c15 15 19 34 19 48c0 18 -8 34 -21 47
c-18 18 -44 30 -86 30zM462 469h-238v-131h245c33 0 51 8 64 20c14 13 22 32 22 51c0 14 -5 26 -15 36c-17 18 -36 24 -78 24z" />
    <glyph glyph-name="c.sc" horiz-adv-x="735" 
d="M619 174l75 -73c-65 -61 -168 -121 -302 -121c-201 0 -332 137 -332 304c0 165 132 304 327 304c111 0 218 -42 286 -102l-75 -74c-54 47 -137 77 -209 77c-130 0 -212 -94 -212 -206s84 -204 217 -204c94 0 174 44 225 95z" />
    <glyph glyph-name="d.sc" horiz-adv-x="778" 
d="M409 0h-296v568h296c117 0 175 -30 227 -79c51 -52 78 -124 78 -205s-27 -155 -80 -207c-52 -48 -110 -77 -225 -77zM224 99h180c77 0 108 18 141 47c34 34 52 83 52 138c0 54 -18 103 -51 137c-33 30 -66 48 -142 48h-180v-370z" />
    <glyph glyph-name="e.sc" horiz-adv-x="685" 
d="M456 345v-98h-232v-148h406v-99h-517v568h494v-99h-383v-124h232z" />
    <glyph glyph-name="f.sc" horiz-adv-x="637" 
d="M224 0h-111v568h491v-99h-380v-121h230v-99h-230v-249z" />
    <glyph glyph-name="g.sc" horiz-adv-x="761" 
d="M675 481l-77 -69c-50 48 -137 77 -207 77c-128 0 -216 -94 -216 -206c0 -102 75 -204 227 -204c60 0 134 15 173 40v103h-189v99h290v-256c-77 -52 -186 -85 -281 -85c-193 0 -336 137 -336 304c0 168 145 304 331 304c97 0 201 -38 285 -107z" />
    <glyph glyph-name="h.sc" horiz-adv-x="766" 
d="M224 0h-111v568h111v-208h318v208h111v-568h-111v261h-318v-261z" />
    <glyph glyph-name="i.sc" horiz-adv-x="337" 
d="M224 0h-111v568h111v-568z" />
    <glyph glyph-name="j.sc" horiz-adv-x="620" 
d="M408 568h111v-367c0 -141 -106 -221 -254 -221c-152 0 -213 86 -244 147l92 48c19 -39 57 -96 151 -96c84 0 144 43 144 122v367z" />
    <glyph glyph-name="k.sc" horiz-adv-x="737" 
d="M533 568h138l-251 -218l305 -350h-144l-241 276l-116 -92v-184h-111v568h111v-260z" />
    <glyph glyph-name="l.sc" horiz-adv-x="625" 
d="M113 568h111v-469h370v-99h-481v568z" />
    <glyph glyph-name="m.sc" horiz-adv-x="862" 
d="M113 0v568h113l207 -322h2l206 322h108v-568h-111v370h-4l-197 -303h-17l-196 303h-5v-370h-106z" />
    <glyph glyph-name="n.sc" horiz-adv-x="776" 
d="M552 568h111v-568h-98l-340 387h-1v-387h-111v568h98l340 -387h1v387z" />
    <glyph glyph-name="o.sc" horiz-adv-x="787" 
d="M60 285c0 167 146 303 333 303c186 0 335 -136 335 -303c0 -169 -149 -305 -335 -305c-187 0 -333 136 -333 305zM177 285c0 -112 95 -206 216 -206c122 0 218 94 218 206s-96 204 -218 204c-121 0 -216 -92 -216 -204z" />
    <glyph glyph-name="p.sc" horiz-adv-x="719" 
d="M224 0h-111v568h337c69 0 132 -14 178 -61c31 -31 48 -72 48 -118c0 -49 -19 -87 -49 -117c-44 -44 -100 -61 -180 -61h-223v-211zM450 469h-226v-160h223c46 0 74 8 96 29c14 14 22 32 22 51s-7 36 -19 49c-28 30 -68 31 -96 31z" />
    <glyph glyph-name="q.sc" horiz-adv-x="787" 
d="M60 285c0 167 146 303 333 303c186 0 335 -136 335 -303c0 -106 -58 -198 -147 -253l80 -109l-108 -34l-73 102c-28 -7 -57 -11 -87 -11c-187 0 -333 136 -333 305zM342 182l107 34l71 -99c55 38 91 100 91 168c0 112 -96 204 -218 204c-121 0 -216 -92 -216 -204
s95 -206 216 -206c7 0 15 0 22 1z" />
    <glyph glyph-name="r.sc" horiz-adv-x="749" 
d="M224 0h-111v568h334c89 0 144 -25 181 -63c30 -31 48 -71 48 -115c0 -78 -56 -138 -132 -163l142 -227h-128l-128 211h-206v-211zM447 469h-223v-160h239c56 0 102 37 102 80c0 18 -8 35 -20 48c-26 29 -60 32 -98 32z" />
    <glyph glyph-name="s.sc" horiz-adv-x="706" 
d="M615 504l-68 -77c-33 28 -112 64 -224 64c-71 0 -130 -19 -130 -73c0 -55 87 -57 177 -63c109 -7 281 -18 281 -181c0 -140 -122 -194 -267 -194c-162 0 -267 64 -336 122l67 77c49 -40 135 -102 271 -102c86 0 153 25 153 82c0 64 -62 80 -169 88
c-135 10 -289 20 -289 161c0 139 134 180 246 180c129 0 239 -48 288 -84z" />
    <glyph glyph-name="t.sc" horiz-adv-x="658" 
d="M34 469v99h590v-99h-239v-469h-111v469h-240z" />
    <glyph glyph-name="u.sc" horiz-adv-x="742" 
d="M530 568h111v-376c0 -135 -116 -212 -271 -212c-153 0 -269 77 -269 212v376h111v-376c0 -73 70 -113 158 -113c90 0 160 41 160 113v376z" />
    <glyph glyph-name="v.sc" horiz-adv-x="716" 
d="M569 568h121l-282 -568h-100l-282 568h127l205 -436h6z" />
    <glyph glyph-name="w.sc" horiz-adv-x="958" 
d="M43 568h122l131 -416h6l141 416h78l141 -416h6l131 416h116l-194 -568h-110l-129 373h-6l-128 -373h-111z" />
    <glyph glyph-name="x.sc" horiz-adv-x="710" 
d="M529 568h135l-239 -272l250 -296h-142l-180 218l-189 -218h-135l257 291l-232 277h142l163 -199z" />
    <glyph glyph-name="y.sc" horiz-adv-x="649" 
d="M499 568h131l-250 -309v-259h-111v259l-249 309h141l169 -210z" />
    <glyph glyph-name="z.sc" horiz-adv-x="653" 
d="M584 99v-99h-524v69l363 400h-347v99h509v-69l-363 -400h362z" />
    <glyph glyph-name="ampersand.sc" horiz-adv-x="751" 
d="M533 532l-55 -86c-26 18 -73 43 -126 43c-44 0 -71 -26 -71 -55c0 -47 87 -119 109 -140l111 -105c37 34 73 79 109 136l89 -45c-43 -63 -87 -114 -130 -154l134 -126h-145l-67 63c-85 -58 -162 -78 -220 -78c-99 0 -217 55 -217 182c0 102 70 148 148 177
c-21 29 -32 56 -32 88c0 93 87 155 185 155c76 0 138 -31 178 -55zM306 238l-39 37c-43 -16 -102 -40 -102 -106c0 -62 62 -86 117 -86c38 0 87 12 140 45z" />
    <glyph glyph-name="aacute.sc" horiz-adv-x="716" 
d="M26 0l282 568h100l282 -568h-122l-69 143h-288l-69 -143h-116zM352 435l-99 -204h203l-98 204h-6zM275 639l100 130h136l-137 -130h-99z" />
    <glyph glyph-name="agrave.sc" horiz-adv-x="716" 
d="M26 0l282 568h100l282 -568h-122l-69 143h-288l-69 -143h-116zM352 435l-99 -204h203l-98 204h-6zM341 639l-136 130h136l100 -130h-100z" />
    <glyph glyph-name="acircumflex.sc" horiz-adv-x="716" 
d="M26 0l282 568h100l282 -568h-122l-69 143h-288l-69 -143h-116zM352 435l-99 -204h203l-98 204h-6zM197 639l103 133h116l102 -133h-83l-77 74l-78 -74h-83z" />
    <glyph glyph-name="adieresis.sc" horiz-adv-x="716" 
d="M26 0l282 568h100l282 -568h-122l-69 143h-288l-69 -143h-116zM352 435l-99 -204h203l-98 204h-6zM190 704c0 31 26 57 61 57s62 -27 62 -57c0 -32 -27 -56 -62 -56s-61 24 -61 56zM402 704c0 31 26 57 61 57s62 -27 62 -57c0 -32 -27 -56 -62 -56s-61 24 -61 56z" />
    <glyph glyph-name="atilde.sc" horiz-adv-x="716" 
d="M26 0l282 568h100l282 -568h-122l-69 143h-288l-69 -143h-116zM352 435l-99 -204h203l-98 204h-6zM244 638l-67 36c38 65 72 88 114 88c28 0 48 -10 71 -26c19 -13 36 -26 55 -26c24 0 40 23 56 45l62 -34c-33 -59 -69 -89 -114 -89c-27 0 -52 11 -70 24
c-21 15 -36 28 -54 28c-24 0 -38 -25 -53 -46z" />
    <glyph glyph-name="aring.sc" horiz-adv-x="716" 
d="M26 0l282 568h100l282 -568h-122l-69 143h-288l-69 -143h-116zM352 435l-99 -204h203l-98 204h-6zM291 705c0 -32 27 -54 64 -54c38 0 65 22 65 54c0 33 -27 59 -65 59c-37 0 -64 -26 -64 -59zM355 603c-82 0 -126 47 -126 102c0 56 44 105 126 105s128 -49 128 -105
c0 -55 -46 -102 -128 -102z" />
    <glyph glyph-name="abreve.sc" horiz-adv-x="716" 
d="M26 0l282 568h100l282 -568h-122l-69 143h-288l-69 -143h-116zM352 435l-99 -204h203l-98 204h-6zM208 770h75c0 -33 13 -70 75 -70s75 37 75 70h74c0 -61 -27 -140 -149 -140s-150 79 -150 140z" />
    <glyph glyph-name="amacron.sc" horiz-adv-x="716" 
d="M26 0l282 568h100l282 -568h-122l-69 143h-288l-69 -143h-116zM352 435l-99 -204h203l-98 204h-6zM227 744h261v-80h-261v80z" />
    <glyph glyph-name="aogonek.sc" horiz-adv-x="716" 
d="M26 0l282 568h100l282 -568h-17c-32 -14 -109 -51 -109 -106c0 -33 27 -52 69 -52c19 0 40 4 62 8l9 -64c-30 -8 -62 -12 -89 -12c-87 0 -141 40 -141 100c0 57 49 99 95 126h-1l-69 143h-288l-69 -143h-116zM352 435l-99 -204h203l-98 204h-6z" />
    <glyph glyph-name="aringacute.sc" horiz-adv-x="716" 
d="M26 0l282 568h100l282 -568h-122l-69 143h-288l-69 -143h-116zM352 435l-99 -204h203l-98 204h-6zM291 705c0 -32 27 -54 64 -54c38 0 65 22 65 54c0 33 -27 59 -65 59c-37 0 -64 -26 -64 -59zM355 603c-82 0 -126 47 -126 102c0 56 44 105 126 105s128 -49 128 -105
c0 -55 -46 -102 -128 -102zM275 844l100 130h136l-137 -130h-99z" />
    <glyph glyph-name="ccedilla.sc" horiz-adv-x="735" 
d="M619 174l75 -73c-63 -59 -160 -116 -286 -120l-15 -35c10 3 19 5 30 5c50 1 103 -27 103 -80c0 -59 -68 -97 -164 -97c-52 0 -98 11 -143 22l16 57c41 -8 83 -17 122 -17c46 0 76 12 76 36c0 22 -24 27 -47 27c-17 0 -31 -3 -43 -5l-27 32l27 57
c-173 20 -283 148 -283 301c0 165 132 304 327 304c111 0 218 -42 286 -102l-75 -74c-54 47 -137 77 -209 77c-130 0 -212 -94 -212 -206s84 -204 217 -204c94 0 174 44 225 95z" />
    <glyph glyph-name="cacute.sc" horiz-adv-x="735" 
d="M619 174l75 -73c-65 -61 -168 -121 -302 -121c-201 0 -332 137 -332 304c0 165 132 304 327 304c111 0 218 -42 286 -102l-75 -74c-54 47 -137 77 -209 77c-130 0 -212 -94 -212 -206s84 -204 217 -204c94 0 174 44 225 95zM305 639l100 130h136l-137 -130h-99z" />
    <glyph glyph-name="ccaron.sc" horiz-adv-x="735" 
d="M619 174l75 -73c-65 -61 -168 -121 -302 -121c-201 0 -332 137 -332 304c0 165 132 304 327 304c111 0 218 -42 286 -102l-75 -74c-54 47 -137 77 -209 77c-130 0 -212 -94 -212 -206s84 -204 217 -204c94 0 174 44 225 95zM227 772h83l78 -74l77 74h83l-102 -133h-116z
" />
    <glyph glyph-name="ccircumflex.sc" horiz-adv-x="735" 
d="M619 174l75 -73c-65 -61 -168 -121 -302 -121c-201 0 -332 137 -332 304c0 165 132 304 327 304c111 0 218 -42 286 -102l-75 -74c-54 47 -137 77 -209 77c-130 0 -212 -94 -212 -206s84 -204 217 -204c94 0 174 44 225 95zM227 639l103 133h116l102 -133h-83l-77 74
l-78 -74h-83z" />
    <glyph glyph-name="cdotaccent.sc" horiz-adv-x="735" 
d="M619 174l75 -73c-65 -61 -168 -121 -302 -121c-201 0 -332 137 -332 304c0 165 132 304 327 304c111 0 218 -42 286 -102l-75 -74c-54 47 -137 77 -209 77c-130 0 -212 -94 -212 -206s84 -204 217 -204c94 0 174 44 225 95zM327 704c0 31 26 57 61 57s62 -27 62 -57
c0 -32 -27 -56 -62 -56s-61 24 -61 56z" />
    <glyph glyph-name="dcaron.sc" horiz-adv-x="778" 
d="M409 0h-296v568h296c117 0 175 -30 227 -79c51 -52 78 -124 78 -205s-27 -155 -80 -207c-52 -48 -110 -77 -225 -77zM224 99h180c77 0 108 18 141 47c34 34 52 83 52 138c0 54 -18 103 -51 137c-33 30 -66 48 -142 48h-180v-370zM201 772h83l78 -74l77 74h83l-102 -133
h-116z" />
    <glyph glyph-name="dcroat.sc" horiz-adv-x="808" 
d="M50 246v89h93v233h296c117 0 175 -30 227 -79c51 -52 78 -124 78 -205s-27 -155 -80 -207c-52 -48 -110 -77 -225 -77h-296v246h-93zM254 99h180c77 0 108 18 141 47c34 34 52 83 52 138c0 54 -18 103 -51 137c-33 30 -66 48 -142 48h-180v-134h175v-89h-175v-147z" />
    <glyph glyph-name="eacute.sc" horiz-adv-x="685" 
d="M456 345v-98h-232v-148h406v-99h-517v568h494v-99h-383v-124h232zM276 639l100 130h136l-137 -130h-99z" />
    <glyph glyph-name="egrave.sc" horiz-adv-x="685" 
d="M456 345v-98h-232v-148h406v-99h-517v568h494v-99h-383v-124h232zM342 639l-136 130h136l100 -130h-100z" />
    <glyph glyph-name="ecircumflex.sc" horiz-adv-x="685" 
d="M456 345v-98h-232v-148h406v-99h-517v568h494v-99h-383v-124h232zM198 639l103 133h116l102 -133h-83l-77 74l-78 -74h-83z" />
    <glyph glyph-name="edieresis.sc" horiz-adv-x="685" 
d="M456 345v-98h-232v-148h406v-99h-517v568h494v-99h-383v-124h232zM191 704c0 31 26 57 61 57s62 -27 62 -57c0 -32 -27 -56 -62 -56s-61 24 -61 56zM403 704c0 31 26 57 61 57s62 -27 62 -57c0 -32 -27 -56 -62 -56s-61 24 -61 56z" />
    <glyph glyph-name="ebreve.sc" horiz-adv-x="685" 
d="M456 345v-98h-232v-148h406v-99h-517v568h494v-99h-383v-124h232zM209 770h75c0 -33 13 -70 75 -70s75 37 75 70h74c0 -61 -27 -140 -149 -140s-150 79 -150 140z" />
    <glyph glyph-name="ecaron.sc" horiz-adv-x="685" 
d="M456 345v-98h-232v-148h406v-99h-517v568h494v-99h-383v-124h232zM198 772h83l78 -74l77 74h83l-102 -133h-116z" />
    <glyph glyph-name="edotaccent.sc" horiz-adv-x="685" 
d="M456 345v-98h-232v-148h406v-99h-517v568h494v-99h-383v-124h232zM298 704c0 31 26 57 61 57s62 -27 62 -57c0 -32 -27 -56 -62 -56s-61 24 -61 56z" />
    <glyph glyph-name="emacron.sc" horiz-adv-x="685" 
d="M456 345v-98h-232v-148h406v-99h-517v568h494v-99h-383v-124h232zM228 744h261v-80h-261v80z" />
    <glyph glyph-name="eogonek.sc" horiz-adv-x="685" 
d="M456 345v-98h-232v-148h406v-99h-31c-32 -14 -109 -51 -109 -106c0 -33 27 -52 69 -52c19 0 40 4 62 8l9 -64c-30 -8 -62 -12 -89 -12c-87 0 -141 40 -141 100c0 57 49 99 95 126h-382v568h494v-99h-383v-124h232z" />
    <glyph glyph-name="gbreve.sc" horiz-adv-x="761" 
d="M675 481l-77 -69c-50 48 -137 77 -207 77c-128 0 -216 -94 -216 -206c0 -102 75 -204 227 -204c60 0 134 15 173 40v103h-189v99h290v-256c-77 -52 -186 -85 -281 -85c-193 0 -336 137 -336 304c0 168 145 304 331 304c97 0 201 -38 285 -107zM238 770h75
c0 -33 13 -70 75 -70s75 37 75 70h74c0 -61 -27 -140 -149 -140s-150 79 -150 140z" />
    <glyph glyph-name="gcircumflex.sc" horiz-adv-x="761" 
d="M675 481l-77 -69c-50 48 -137 77 -207 77c-128 0 -216 -94 -216 -206c0 -102 75 -204 227 -204c60 0 134 15 173 40v103h-189v99h290v-256c-77 -52 -186 -85 -281 -85c-193 0 -336 137 -336 304c0 168 145 304 331 304c97 0 201 -38 285 -107zM227 639l103 133h116
l102 -133h-83l-77 74l-78 -74h-83z" />
    <glyph glyph-name="uni0123.sc" horiz-adv-x="761" 
d="M675 481l-77 -69c-50 48 -137 77 -207 77c-128 0 -216 -94 -216 -206c0 -102 75 -204 227 -204c60 0 134 15 173 40v103h-189v99h290v-256c-77 -52 -186 -85 -281 -85c-193 0 -336 137 -336 304c0 168 145 304 331 304c97 0 201 -38 285 -107zM360 -63l84 21
c18 -16 44 -46 44 -92c0 -68 -62 -113 -160 -113c-26 0 -55 4 -85 12l9 64c21 -3 40 -6 58 -6c52 0 81 19 81 51c0 29 -17 50 -31 63z" />
    <glyph glyph-name="gdotaccent.sc" horiz-adv-x="761" 
d="M675 481l-77 -69c-50 48 -137 77 -207 77c-128 0 -216 -94 -216 -206c0 -102 75 -204 227 -204c60 0 134 15 173 40v103h-189v99h290v-256c-77 -52 -186 -85 -281 -85c-193 0 -336 137 -336 304c0 168 145 304 331 304c97 0 201 -38 285 -107zM327 704c0 31 26 57 61 57
s62 -27 62 -57c0 -32 -27 -56 -62 -56s-61 24 -61 56z" />
    <glyph glyph-name="hbar.sc" horiz-adv-x="782" 
d="M28 408v88h93v72h111v-72h318v72h111v-72h93v-88h-93v-408h-111v224h-318v-224h-111v408h-93zM232 323h318v85h-318v-85z" />
    <glyph glyph-name="hcircumflex.sc" horiz-adv-x="766" 
d="M224 0h-111v568h111v-208h318v208h111v-568h-111v261h-318v-261zM222 639l103 133h116l102 -133h-83l-77 74l-78 -74h-83z" />
    <glyph glyph-name="iacute.sc" horiz-adv-x="337" 
d="M224 0h-111v568h111v-568zM86 639l100 130h136l-137 -130h-99z" />
    <glyph glyph-name="igrave.sc" horiz-adv-x="337" 
d="M224 0h-111v568h111v-568zM152 769l100 -130h-100l-136 130h136z" />
    <glyph glyph-name="icircumflex.sc" horiz-adv-x="337" 
d="M224 0h-111v568h111v-568zM8 639l103 133h116l102 -133h-83l-77 74l-78 -74h-83z" />
    <glyph glyph-name="idieresis.sc" horiz-adv-x="337" 
d="M224 0h-111v568h111v-568zM1 704c0 31 26 57 61 57s62 -27 62 -57c0 -32 -27 -56 -62 -56s-61 24 -61 56zM213 704c0 31 26 57 61 57s62 -27 62 -57c0 -32 -27 -56 -62 -56s-61 24 -61 56z" />
    <glyph glyph-name="ibreve.sc" horiz-adv-x="337" 
d="M224 0h-111v568h111v-568zM19 770h75c0 -33 13 -70 75 -70s75 37 75 70h74c0 -61 -27 -140 -149 -140s-150 79 -150 140z" />
    <glyph glyph-name="idotaccent.sc" horiz-adv-x="337" 
d="M224 0h-111v568h111v-568zM108 704c0 31 26 57 61 57s62 -27 62 -57c0 -32 -27 -56 -62 -56s-61 24 -61 56z" />
    <glyph glyph-name="imacron.sc" horiz-adv-x="337" 
d="M224 0h-111v568h111v-568zM38 744h261v-80h-261v80z" />
    <glyph glyph-name="iogonek.sc" horiz-adv-x="337" 
d="M224 0c-32 -14 -109 -51 -109 -106c0 -33 27 -52 69 -52c19 0 40 4 62 8l9 -64c-30 -8 -62 -12 -89 -12c-87 0 -141 40 -141 100c0 57 49 99 95 126h-7v568h111v-568z" />
    <glyph glyph-name="itilde.sc" horiz-adv-x="337" 
d="M224 0h-111v568h111v-568zM55 638l-67 36c38 65 72 88 114 88c28 0 48 -10 71 -26c19 -13 36 -26 55 -26c24 0 40 23 56 45l62 -34c-33 -59 -69 -89 -114 -89c-27 0 -52 11 -70 24c-21 15 -36 28 -54 28c-24 0 -38 -25 -53 -46z" />
    <glyph glyph-name="ij.sc" horiz-adv-x="957" 
d="M224 0h-111v568h111v-568zM745 568h111v-367c0 -141 -106 -221 -254 -221c-152 0 -213 86 -244 147l92 48c19 -39 57 -96 151 -96c84 0 144 43 144 122v367z" />
    <glyph glyph-name="jcircumflex.sc" horiz-adv-x="620" 
d="M408 568h111v-367c0 -141 -106 -221 -254 -221c-152 0 -213 86 -244 147l92 48c19 -39 57 -96 151 -96c84 0 144 43 144 122v367zM302 639l103 133h116l102 -133h-83l-77 74l-78 -74h-83z" />
    <glyph glyph-name="uni0137.sc" horiz-adv-x="737" 
d="M533 568h138l-251 -218l305 -350h-144l-241 276l-116 -92v-184h-111v568h111v-260zM353 -63l84 21c18 -16 44 -46 44 -92c0 -68 -62 -113 -160 -113c-26 0 -55 4 -85 12l9 64c21 -3 40 -6 58 -6c52 0 81 19 81 51c0 29 -17 50 -31 63z" />
    <glyph glyph-name="lacute.sc" horiz-adv-x="625" 
d="M113 568h111v-469h370v-99h-481v568zM86 639l100 130h136l-137 -130h-99z" />
    <glyph glyph-name="lcaron.sc" horiz-adv-x="625" 
d="M113 568h111v-469h370v-99h-481v568zM409 363h-58v226h103c0 -93 -12 -158 -45 -226z" />
    <glyph glyph-name="ldot.sc" horiz-adv-x="642" 
d="M113 568h111v-469h370v-99h-481v568zM411 341c0 31 26 57 61 57s62 -27 62 -57c0 -32 -27 -56 -62 -56s-61 24 -61 56z" />
    <glyph glyph-name="uni013C.sc" horiz-adv-x="625" 
d="M113 568h111v-469h370v-99h-481v568zM297 -63l84 21c18 -16 44 -46 44 -92c0 -68 -62 -113 -160 -113c-26 0 -55 4 -85 12l9 64c21 -3 40 -6 58 -6c52 0 81 19 81 51c0 29 -17 50 -31 63z" />
    <glyph glyph-name="lslash.sc" horiz-adv-x="645" 
d="M133 568h111v-204l189 104v-89l-189 -104v-176h370v-99h-481v214l-93 -51v89l93 51v265z" />
    <glyph glyph-name="ntilde.sc" horiz-adv-x="776" 
d="M552 568h111v-568h-98l-340 387h-1v-387h-111v568h98l340 -387h1v387zM274 638l-67 36c38 65 72 88 114 88c28 0 48 -10 71 -26c19 -13 36 -26 55 -26c24 0 40 23 56 45l62 -34c-33 -59 -69 -89 -114 -89c-27 0 -52 11 -70 24c-21 15 -36 28 -54 28
c-24 0 -38 -25 -53 -46z" />
    <glyph glyph-name="nacute.sc" horiz-adv-x="776" 
d="M552 568h111v-568h-98l-340 387h-1v-387h-111v568h98l340 -387h1v387zM305 639l100 130h136l-137 -130h-99z" />
    <glyph glyph-name="ncaron.sc" horiz-adv-x="776" 
d="M552 568h111v-568h-98l-340 387h-1v-387h-111v568h98l340 -387h1v387zM227 772h83l78 -74l77 74h83l-102 -133h-116z" />
    <glyph glyph-name="uni0146.sc" horiz-adv-x="776" 
d="M552 568h111v-568h-98l-340 387h-1v-387h-111v568h98l340 -387h1v387zM373 -63l84 21c18 -16 44 -46 44 -92c0 -68 -62 -113 -160 -113c-26 0 -55 4 -85 12l9 64c21 -3 40 -6 58 -6c52 0 81 19 81 51c0 29 -17 50 -31 63z" />
    <glyph glyph-name="eng.sc" horiz-adv-x="776" 
d="M552 568h111v-574c0 -141 -106 -221 -254 -221v99c84 0 143 43 143 122v21h-1l-326 372h-1v-387h-111v568h98l340 -387h1v387z" />
    </font>
</defs>
</svg>
